<svg width="48" height="48" viewBox="0 0 48 48" fill="none" xmlns="http://www.w3.org/2000/svg">
<g clip-path="url(#clip0_79_3849)">
<path d="M24 48.0001C37.2548 48.0001 48 37.255 48 24.0001C48 10.7453 37.2548 0.00012207 24 0.00012207C10.7452 0.00012207 0 10.7453 0 24.0001C0 37.255 10.7452 48.0001 24 48.0001Z" fill="#04984A"/>
<path d="M24 47.4962C36.9765 47.4962 47.496 36.9766 47.496 24.0002C47.496 11.0237 36.9765 0.50415 24 0.50415C11.0235 0.50415 0.504028 11.0237 0.504028 24.0002C0.504028 36.9766 11.0235 47.4962 24 47.4962Z" fill="white"/>
<path d="M4.4151 18.3621L3.90534 18.1634L3.60294 19.2501L4.1319 19.3356C2.27046 21.3669 3.8583 22.6706 4.03782 22.7839C4.52934 23.0767 4.4823 22.0754 4.4535 21.8671C4.41606 21.6684 4.40646 21.3573 4.4247 21.2344C4.55718 20.6018 4.85958 20.838 4.91622 20.9224C4.97286 21.0079 5.29446 21.2815 5.3607 22.0188L5.79558 21.7164C5.73894 21.2248 5.4087 20.6296 5.30406 20.5356C4.5015 19.78 4.26534 21.1404 4.13286 21.461C4.00038 21.773 3.83046 21.4322 3.80262 21.3477C3.53766 20.3464 4.13286 19.7608 4.40742 19.4959L6.54246 19.997L6.73158 19.4018L4.29414 18.7596" fill="#04984A"/>
<path d="M4.4151 18.3621L3.90534 18.1634L3.60294 19.2501L4.1319 19.3356C2.27046 21.3669 3.8583 22.6706 4.03782 22.7839C4.52934 23.0767 4.4823 22.0754 4.4535 21.8671C4.41606 21.6684 4.40646 21.3573 4.4247 21.2344C4.55718 20.6018 4.85958 20.838 4.91622 20.9224C4.97286 21.0079 5.29446 21.2815 5.3607 22.0188L5.79558 21.7164C5.73894 21.2248 5.4087 20.6296 5.30406 20.5356C4.5015 19.78 4.26534 21.1404 4.13286 21.461C4.00038 21.773 3.83046 21.4322 3.80262 21.3477C3.53766 20.3464 4.13286 19.7608 4.40742 19.4959L6.54246 19.997L6.73158 19.4018L4.29414 18.7596L4.41702 18.3631L4.4151 18.3621Z" stroke="#04984A" stroke-width="0.13" stroke-miterlimit="3.94"/>
<path d="M6.47431 13.7992L5.98279 13.5342L5.42503 14.4789L5.91655 14.8187C4.40455 15.6971 4.51879 16.9538 4.58407 17.1525C5.03719 18.5502 5.83111 18.2958 5.95399 18.2392C6.67207 17.8994 6.60583 16.803 6.62503 16.4632L5.98279 16.4536C6.18151 16.9547 6.03943 17.7573 5.94535 17.861C5.50087 18.3525 5.31271 17.9272 5.27431 17.7851C4.73575 16.0936 6.02023 15.3285 6.22855 15.2152C6.44551 15.0923 6.55879 15.2056 6.64423 15.2152L8.08999 16.0274L8.38279 15.5176L6.20071 14.2898" fill="#04984A"/>
<path d="M6.47431 13.7992L5.98279 13.5342L5.42503 14.4789L5.91655 14.8187C4.40455 15.6971 4.51879 16.9538 4.58407 17.1525C5.03719 18.5502 5.83111 18.2958 5.95399 18.2392C6.67207 17.8994 6.60583 16.803 6.62503 16.4632L5.98279 16.4536C6.18151 16.9547 6.03943 17.7477 5.94535 17.861C5.50087 18.3525 5.31271 17.9272 5.27431 17.7851C4.73575 16.0936 6.02023 15.3285 6.22855 15.2152C6.44551 15.0923 6.55879 15.2056 6.64423 15.2152L8.08999 16.0274L8.38279 15.5176L6.20071 14.2898L6.47431 13.7982V13.7992Z" stroke="#04984A" stroke-width="0.13" stroke-miterlimit="3.94"/>
<path d="M11.6141 8.08335C11.5008 8.84847 11.8973 9.09423 12.1152 9.11343C13.1539 9.19887 13.296 8.56527 13.4947 8.30127C13.9008 8.29167 13.5706 9.02895 13.4851 9.13263C12.6538 10.1243 11.0669 9.51951 10.8211 9.39759L10.6791 9.63375C13.3901 10.6158 14.0515 9.36015 14.0899 9.20847C14.4586 7.81071 13.3248 7.84815 13.1079 7.87599C12.9091 9.00975 12.144 8.86767 12.0595 8.68815C11.7475 8.08335 12.7114 7.43151 12.9475 7.29039C13.2595 7.43247 14.2983 7.35663 14.544 7.33743C14.232 8.01807 14.7427 8.98095 14.8464 9.11343L15.1767 9.00015C14.6189 8.20623 15.1392 7.12047 15.2707 6.95919L14.9971 6.71343C14.4019 7.31823 13.7693 7.14831 13.5139 7.13871C13.2586 7.12911 13.2874 7.02543 13.4007 6.93999L15.5453 5.79663L16.4803 8.16783L16.9719 7.93167L16.0839 5.60751C19.3431 4.12431 23.7648 3.98223 24.048 4.01103C24.3408 4.03023 24.2275 4.61583 24.1901 4.70991C23.8877 4.64367 23.6611 4.80399 23.4912 4.83279C22.5744 3.72783 21.8477 4.69071 21.6864 4.88943L22.1213 5.23887C22.7261 4.22799 23.3309 4.79439 23.4154 4.93647L22.9901 5.30511L23.425 5.62671C23.8973 4.92783 24.2467 5.02191 24.3792 5.08815C24.6442 5.23023 24.4647 5.91951 24.4359 6.16527C23.5104 5.33391 21.696 7.03407 22.2154 5.62671L21.9322 5.72079C21.7335 7.69551 24.1335 5.67375 24.577 6.57135L24.8323 6.56175C25.2384 5.08815 24.6816 4.93647 24.5203 4.81359C24.7939 4.70991 24.7191 4.31247 24.7191 4.08591C24.7191 4.08591 25.3709 4.11471 25.8528 4.14255L25.5696 6.62703L26.0515 6.66447L26.3443 4.22703L26.7504 4.27407L26.8071 3.74511L26.2973 3.69807C25.8154 1.61007 23.3875 2.35695 22.9719 2.48847L23.1043 3.04623C25.872 2.07279 25.9104 3.45231 25.8912 3.65103C20.4499 3.11247 16.368 4.93551 16.1885 5.00175C11.9463 6.58863 9.34851 9.40431 9.00867 9.75375L9.56643 10.3393C7.05315 10.1406 7.25187 12.4648 7.28067 12.7864C7.67715 13.0417 7.80963 12.5128 7.85667 12.3899C7.90371 12.267 8.58435 12.0405 8.45187 12.8056L8.95299 12.796L9.74691 10.5381L10.7203 11.5297C9.10467 11.8033 9.67203 12.7393 9.18051 13.3998C8.79363 14.0421 8.19843 13.5505 8.10339 13.3432L8.05635 13.6456C9.54915 14.7889 9.83235 13.1925 10.0973 12.3227C10.248 11.8312 10.7683 11.6334 11.1936 11.7841L11.4298 11.5384L9.71043 9.70575M8.72835 11.9829C8.71875 12.0395 8.59587 12.2382 8.52963 12.0769C8.46339 11.9157 8.10435 11.907 7.98147 11.9915C7.90563 12.0481 7.79235 12.0481 7.83075 11.8408C7.87779 11.6334 8.08611 10.6033 9.11523 10.6974L8.72835 11.9819" fill="#04984A"/>
<path d="M8.72259 11.9848C8.71299 12.0414 8.59011 12.2402 8.52387 12.0789C8.45763 11.9176 8.09859 11.909 7.97571 11.9934C7.89987 12.0501 7.78659 12.0501 7.82499 11.8427C7.87203 11.6354 8.08035 10.6053 9.10947 10.6994L8.72259 11.9838V11.9848Z" stroke="#04984A" stroke-width="0.13" stroke-miterlimit="3.94"/>
<path d="M11.6141 8.08335C11.5008 8.84847 11.8973 9.09423 12.1152 9.11343C13.1539 9.19887 13.296 8.56527 13.4947 8.30127C13.9008 8.29167 13.5706 9.02895 13.4851 9.13263C12.6538 10.1243 11.0669 9.51951 10.8211 9.39759L10.6791 9.63375C13.3901 10.6158 14.0515 9.36015 14.0899 9.20847C14.4586 7.81071 13.3248 7.84815 13.1079 7.87599C12.9091 9.00975 12.144 8.86767 12.0595 8.68815C11.7475 8.08335 12.7114 7.43151 12.9475 7.29039C13.2595 7.43247 14.2983 7.35663 14.544 7.33743C14.232 8.01807 14.7427 8.98095 14.8464 9.11343L15.1767 9.00015C14.6189 8.20623 15.1392 7.12047 15.2707 6.95919L14.9971 6.71343C14.4019 7.31823 13.7693 7.14831 13.5139 7.13871C13.2586 7.12911 13.2874 7.02543 13.4007 6.93999L15.5453 5.79663L16.4803 8.16783L16.9719 7.93167L16.0839 5.60751C19.3431 4.12431 23.7648 3.98223 24.048 4.01103C24.3408 4.03023 24.2275 4.61583 24.1901 4.70991C23.8877 4.64367 23.6611 4.80399 23.4912 4.83279C22.5744 3.72783 21.8477 4.69071 21.6864 4.88943L22.1213 5.23887C22.7261 4.22799 23.3309 4.79439 23.4154 4.93647L22.9901 5.30511L23.425 5.62671C23.8973 4.92783 24.2467 5.02191 24.3792 5.08815C24.6442 5.23023 24.4647 5.91951 24.4359 6.16527C23.5104 5.33391 21.696 7.03407 22.2154 5.62671L21.9322 5.72079C21.7335 7.69551 24.1335 5.67375 24.577 6.57135L24.8323 6.56175C25.2384 5.08815 24.6816 4.93647 24.5203 4.81359C24.7939 4.70991 24.7191 4.31247 24.7191 4.08591C24.7191 4.08591 25.3709 4.11471 25.8528 4.14255L25.5696 6.62703L26.0515 6.66447L26.3443 4.22703L26.7504 4.27407L26.8071 3.74511L26.2973 3.69807C25.8154 1.61007 23.3875 2.35695 22.9719 2.48847L23.1043 3.04623C25.872 2.07279 25.9104 3.45231 25.8912 3.65103C20.4499 3.11247 16.368 4.93551 16.1885 5.00175C11.9463 6.58863 9.34851 9.40431 9.00867 9.75375L9.56643 10.3393C7.05315 10.1406 7.25187 12.4648 7.28067 12.7864C7.67715 13.0417 7.80963 12.5128 7.85667 12.3899C7.90371 12.267 8.58435 12.0405 8.45187 12.8056L8.95299 12.796L9.74691 10.5381L10.7203 11.5297C9.10467 11.8033 9.67203 12.7393 9.18051 13.3998C8.79363 14.0421 8.19843 13.5505 8.10339 13.3432L8.05635 13.6456C9.54915 14.7889 9.83235 13.1925 10.0973 12.3227C10.248 11.8312 10.7683 11.6334 11.1936 11.7841L11.4298 11.5384L9.71043 9.70575L11.6189 8.08047L11.6141 8.08335Z" stroke="#04984A" stroke-width="0.13" stroke-miterlimit="3.94"/>
<path d="M19.6916 6.45809C18.5674 7.06289 17.2916 5.94833 17.0276 5.71217L16.801 5.76881C17.9252 7.44113 19.5783 7.10993 19.73 7.05329C21.2324 6.51473 20.9204 5.30513 20.8541 5.19185C20.1649 4.03025 18.7661 5.09777 18.53 5.33393L19.0589 5.79665C19.1156 5.63633 19.4458 5.23889 19.5687 5.15441C20.2397 4.70129 20.5421 5.29649 20.5325 5.40017C20.4567 6.01457 19.8145 6.39185 19.6916 6.45809Z" fill="#04984A"/>
<path d="M19.6916 6.45809C18.5674 7.06289 17.2916 5.94833 17.0276 5.71217L16.801 5.76881C17.9252 7.44113 19.5783 7.10993 19.73 7.05329C21.2324 6.51473 20.9204 5.30513 20.8541 5.19185C20.1649 4.03025 18.7661 5.09777 18.53 5.33393L19.0589 5.79665C19.1156 5.63633 19.4458 5.23889 19.5687 5.15441C20.2397 4.70129 20.5421 5.29649 20.5325 5.40017C20.4567 6.01457 19.8145 6.39185 19.6916 6.45809Z" stroke="#04984A" stroke-width="0.13" stroke-miterlimit="3.94"/>
<path d="M28.1184 5.25905L28.2038 5.83505C30.0461 6.25073 30.2726 7.50737 30.3197 7.78097L30.5088 7.80017L31.5955 5.53265L32.4269 5.91089L31.2557 8.15921L31.7376 8.36657L32.8339 6.12785L33.193 6.26993L33.4291 5.77841C31.152 4.64465 28.7242 4.10609 28.441 4.02161L28.2615 4.55057C28.6397 4.53137 31.1904 5.33489 31.1904 5.33489L31.0963 5.57105M30.4349 6.75185C30.4349 6.75185 29.9155 6.09041 29.6602 5.95793L30.888 5.94833L30.4349 6.75089V6.75185Z" fill="#04984A"/>
<path d="M30.4329 6.75091C30.4329 6.75091 29.9136 6.08947 29.6582 5.95699L30.886 5.94739L30.4329 6.74995V6.75091Z" stroke="#04984A" stroke-width="0.13" stroke-miterlimit="3.94"/>
<path d="M28.1184 5.25905L28.2038 5.83505C30.0461 6.25073 30.2726 7.50737 30.3197 7.78097L30.5088 7.80017L31.5955 5.53265L32.4269 5.91089L31.2557 8.15921L31.7376 8.36657L32.8339 6.12785L33.193 6.26993L33.4291 5.77841C31.152 4.64465 28.7242 4.10609 28.441 4.02161L28.2615 4.55057C28.6397 4.53137 31.1904 5.33489 31.1904 5.33489L31.0963 5.57105L28.1203 5.25905H28.1184Z" stroke="#04984A" stroke-width="0.13" stroke-miterlimit="3.94"/>
<path d="M35.3069 6.68463C34.6646 5.82447 33.7008 6.43887 33.5779 6.60879C33.1152 7.26063 33.5779 7.72335 33.7478 7.83663C34.0973 8.08239 34.7587 8.07279 34.9286 7.98735C35.7792 7.56207 35.3818 6.77775 35.3069 6.68367M34.7971 7.60911C34.5706 7.64655 34.2586 7.68495 33.8899 7.52367C33.4742 7.34415 33.6912 6.96591 33.7958 6.87183C33.8333 6.75855 34.8538 6.54159 35.232 6.96591C35.3078 7.04175 35.4778 7.48527 34.7971 7.60815" fill="#04984A"/>
<path d="M34.7971 7.61102C34.5705 7.64846 34.2585 7.68686 33.8899 7.52558C33.4742 7.34606 33.6912 6.96782 33.7958 6.87374C33.8332 6.76046 34.8537 6.5435 35.232 6.96782C35.3078 7.04366 35.4777 7.48718 34.7971 7.61006V7.61102Z" stroke="#04984A" stroke-width="0.13" stroke-miterlimit="3.94"/>
<path d="M35.3069 6.68463C34.6646 5.82447 33.7008 6.43887 33.5779 6.60879C33.1152 7.26063 33.5779 7.72335 33.7478 7.83663C34.0973 8.08239 34.7587 8.07279 34.9286 7.98735C35.7792 7.56207 35.3818 6.77775 35.3069 6.68367V6.68463Z" stroke="#04984A" stroke-width="0.13" stroke-miterlimit="3.94"/>
<path d="M34.249 10.1896L34.4189 9.91599C34.2202 9.17007 33.2007 8.06415 33.049 7.89423L32.7274 8.34735C32.8877 8.45103 34.1444 9.27279 34.2481 10.1896" fill="#04984A"/>
<path d="M34.249 10.1896L34.4189 9.91599C34.2202 9.17007 33.2007 8.06415 33.049 7.89423L32.7274 8.34735C32.8877 8.45103 34.1444 9.27279 34.2481 10.1896H34.249Z" stroke="#04984A" stroke-width="0.13" stroke-miterlimit="3.94"/>
<path d="M44.7639 23.6527L44.7073 22.5947L43.8289 22.6235C44.8301 21.4706 43.6685 20.6306 43.5073 20.4597C44.2628 19.6754 44.0833 19.1186 44.065 19.0053C43.8663 17.5691 42.6673 15.1317 42.6193 15.0088C41.9108 13.3365 40.0973 11.1823 40.0215 11.069C38.7457 9.37747 36.2708 7.56403 36.2708 7.56403L35.9309 7.93267C35.9309 7.93267 38.8877 10.493 39.0394 10.6917L38.378 11.164C38.113 9.99283 37.2913 10.0677 37.0935 10.0207C36.8103 8.57491 35.9597 8.61331 35.761 8.65075C34.8826 8.83027 34.9105 9.53875 34.9585 9.70867C35.1005 10.2664 35.8186 10.4642 36.1114 10.4642L36.1018 9.93523C35.3463 9.91603 35.233 9.58579 35.2234 9.47251C35.1764 8.92435 36.1114 9.10387 36.3005 9.20755C36.9812 9.56659 36.9053 10.4546 36.8583 10.7762C37.8596 10.3701 38.2561 11.0978 38.2561 11.3051L37.0465 12.269L37.3681 12.6751L39.3802 11.069L39.938 11.7967L37.8884 13.2136L38.1716 13.6485L40.297 12.2219L41.1476 13.4978C39.9572 13.1109 39.3149 13.6869 39.2295 13.7906C38.5018 14.7074 39.2669 15.4159 39.5319 15.604L39.7018 15.1125C39.1258 14.9138 39.1825 14.4799 39.2007 14.3378C39.314 13.6293 40.3057 13.7714 40.4852 13.7896C41.0804 13.8463 41.8081 14.668 41.9972 14.8667L40.297 15.6319L40.3345 16.3595C40.8538 16.5861 41.4212 17.2379 41.6948 17.5029C40.8346 17.5787 40.4948 17.8523 40.2778 17.9848L40.3911 18.2114C41.2129 17.6162 41.8743 18.1451 42.073 18.2776L42.3092 17.4175C42.1297 17.0392 41.138 16.1704 40.9959 16.0197L42.2141 15.4245C42.7239 16.2367 43.537 18.7874 43.5649 18.9391C43.8951 20.7055 42.9226 20.4511 42.7901 20.4127C42.4033 20.309 42.5252 19.468 42.554 19.2319L41.8925 19.2127C41.8263 20.1947 42.2794 20.4971 42.7239 20.7151C42.0346 21.3765 42.4311 22.0475 42.5818 22.2079L43.1012 21.8488C42.818 21.556 42.8458 21.3391 42.8458 21.2162C42.8554 20.6776 43.3556 20.9608 43.4602 21.0088C43.8759 21.2258 43.8663 21.8306 43.8471 21.9439C43.7242 22.6619 43.0628 22.6523 42.9399 22.6523C42.8074 22.6523 41.6929 22.6715 41.6929 22.6715V23.2475L44.1965 23.1535V23.6728" fill="#04984A"/>
<path d="M44.7639 23.6527L44.7073 22.5947L43.8289 22.6235C44.8301 21.4706 43.6685 20.6306 43.5073 20.4597C44.2628 19.6754 44.0833 19.1186 44.065 19.0053C43.8663 17.5691 42.6673 15.1317 42.6193 15.0088C41.9108 13.3365 40.0973 11.1823 40.0215 11.069C38.7457 9.37747 36.2708 7.56403 36.2708 7.56403L35.9309 7.93267C35.9309 7.93267 38.8877 10.493 39.0394 10.6917L38.378 11.164C38.113 9.99283 37.2913 10.0677 37.0935 10.0207C36.8103 8.57491 35.9597 8.61331 35.761 8.65075C34.8826 8.83027 34.9105 9.53875 34.9585 9.70867C35.1005 10.2664 35.8186 10.4642 36.1114 10.4642L36.1018 9.93523C35.3463 9.91603 35.233 9.58579 35.2234 9.47251C35.1764 8.92435 36.1114 9.10387 36.3005 9.20755C36.9812 9.56659 36.9053 10.4546 36.8583 10.7762C37.8596 10.3701 38.2561 11.0978 38.2561 11.3051L37.0465 12.269L37.3681 12.6751L39.3802 11.069L39.938 11.7967L37.8884 13.2136L38.1716 13.6485L40.297 12.2219L41.1476 13.4978C39.9572 13.1109 39.3149 13.6869 39.2295 13.7906C38.5018 14.7074 39.2669 15.4159 39.5319 15.604L39.7018 15.1125C39.1258 14.9138 39.1825 14.4799 39.2007 14.3378C39.314 13.6293 40.3057 13.7714 40.4852 13.7896C41.0804 13.8463 41.8081 14.668 41.9972 14.8667L40.297 15.6319L40.3345 16.3595C40.8538 16.5861 41.4212 17.2379 41.6948 17.5029C40.8346 17.5787 40.4948 17.8523 40.2778 17.9848L40.3911 18.2114C41.2129 17.6162 41.8743 18.1451 42.073 18.2776L42.3092 17.4175C42.1297 17.0392 41.138 16.1704 40.9959 16.0197L42.2141 15.4245C42.7239 16.2367 43.537 18.7874 43.5649 18.9391C43.8951 20.7055 42.9226 20.4511 42.7901 20.4127C42.4033 20.309 42.5252 19.468 42.554 19.2319L41.8925 19.2127C41.8263 20.1947 42.2794 20.4971 42.7239 20.7151C42.0346 21.3765 42.4311 22.0475 42.5818 22.2079L43.1012 21.8488C42.818 21.556 42.8458 21.3391 42.8458 21.2162C42.8554 20.6776 43.3556 20.9608 43.4602 21.0088C43.8759 21.2258 43.8663 21.8306 43.8471 21.9439C43.7242 22.6619 43.0628 22.6523 42.9399 22.6523C42.8074 22.6523 41.6929 22.6715 41.6929 22.6715V23.2475L44.1965 23.1535V23.6728L44.7629 23.6536L44.7639 23.6527Z" stroke="#04984A" stroke-width="0.13" stroke-miterlimit="3.94"/>
<path d="M33.9754 39.4197L33.673 39.0136C30.2151 41.5077 25.4919 41.8293 25.2365 41.8667C21.8448 42.2824 18.2832 41.0545 18.0759 40.9787C15.4397 40.1473 13.2202 38.4376 13.0599 38.2581L12.7383 38.5883L12.9744 38.8715C12.9082 38.9656 12.9082 39.1931 13.0973 39.2497C13.2768 39.3064 13.8058 39.8449 13.8346 40.0053C13.9479 40.6283 13.3623 40.7137 13.2116 40.7425C13.0608 40.78 12.5031 40.7137 12.6826 40.0533L12.3524 40.0158C12.2669 42.2737 14.3933 40.9134 15.1959 41.2629C15.744 41.5182 15.649 42.0376 15.602 42.1509L15.0922 43.0014L15.697 43.2664L16.7079 41.0277C18.4272 41.8398 20.4298 42.0664 20.7418 42.124L20.7044 42.3697L17.4644 42.3035L17.4356 42.9457C19.3056 43.0024 20.3549 44.4952 20.4308 44.6277L20.8935 44.6939L21.2717 42.2565C23.1236 42.5493 25.2202 42.3889 25.4948 42.3505L25.5236 42.5397C25.5236 42.5397 22.7463 43.3422 22.3402 43.4651L22.6426 43.9566C24.5981 43.6264 25.562 44.6555 25.7127 44.8168L26.2791 44.7505L26.1562 42.9553C26.6477 42.7288 27.4128 42.7854 27.4973 42.8613C27.5828 42.9371 28.0263 43.3998 26.8743 43.4843L27.0912 44.0037C28.2624 43.6821 27.9514 42.9361 27.8564 42.8133C27.4503 42.3217 26.4394 42.4264 26.184 42.4264V42.2661C27.4023 42.1336 28.1684 41.8696 28.5274 41.7841L29.1984 44.2024L29.7562 44.0325L29.0948 41.6709C30.7008 41.2648 32.6189 40.2251 32.9866 40.0081L33.072 40.1685L30.4455 42.2094L30.9744 42.6059C31.8528 41.6805 34.2058 41.9829 34.4986 42.0395L34.7156 41.8408L33.4685 39.7624M15.8967 41.5576C15.5568 41.3685 15.6605 40.3009 14.1015 40.5275L14.0727 39.7057C14.0727 39.7057 15.8487 40.6792 16.2548 40.8021L15.8957 41.5576H15.8967ZM20.4317 43.9662C20.4317 43.9662 19.7991 43.2011 19.2221 42.9841H20.6016L20.4317 43.9662ZM24.2295 43.5035L25.5706 43.0782L25.656 44.3061C25.4487 44.1928 24.7584 43.5688 24.2295 43.5035ZM33.818 41.5192C33.818 41.5192 32.7879 41.4155 32.306 41.5096L33.2602 40.6408L33.818 41.5192Z" fill="#04984A"/>
<path d="M33.8151 41.5173C33.8151 41.5173 32.785 41.4136 32.3031 41.5077L33.2573 40.6389L33.8151 41.5173Z" stroke="#04984A" stroke-width="0.13" stroke-miterlimit="3.94"/>
<path d="M24.2256 43.5006L25.5667 43.0753L25.6521 44.3032C25.4448 44.1899 24.7545 43.5659 24.2256 43.5006Z" stroke="#04984A" stroke-width="0.13" stroke-miterlimit="3.94"/>
<path d="M20.4279 43.9633C20.4279 43.9633 19.7952 43.1982 19.2183 42.9813H20.5978L20.4279 43.9633Z" stroke="#04984A" stroke-width="0.13" stroke-miterlimit="3.94"/>
<path d="M15.8938 41.5547C15.554 41.3656 15.6577 40.2981 14.0986 40.5246L14.0698 39.7029C14.0698 39.7029 15.8458 40.6763 16.2519 40.7992L15.8929 41.5547H15.8938Z" stroke="#04984A" stroke-width="0.13" stroke-miterlimit="3.94"/>
<path d="M33.9754 39.4197L33.673 39.0136C30.2151 41.5077 25.4919 41.8293 25.2365 41.8667C21.8448 42.2824 18.2832 41.0545 18.0759 40.9787C15.4397 40.1473 13.2202 38.4376 13.0599 38.2581L12.7383 38.5883L12.9744 38.8715C12.9082 38.9656 12.9082 39.1931 13.0973 39.2497C13.2768 39.3064 13.8058 39.8449 13.8346 40.0053C13.9479 40.6283 13.3623 40.7137 13.2116 40.7425C13.0608 40.78 12.5031 40.7137 12.6826 40.0533L12.3524 40.0158C12.2669 42.2737 14.3933 40.9134 15.1959 41.2629C15.744 41.5182 15.649 42.0376 15.602 42.1509L15.0922 43.0014L15.697 43.2664L16.7079 41.0277C18.4272 41.8398 20.4298 42.0664 20.7418 42.124L20.7044 42.3697L17.4644 42.3035L17.4356 42.9457C19.3056 43.0024 20.3549 44.4952 20.4308 44.6277L20.8935 44.6939L21.2717 42.2565C23.1236 42.5493 25.2202 42.3889 25.4948 42.3505L25.5236 42.5397C25.5236 42.5397 22.7463 43.3422 22.3402 43.4651L22.6426 43.9566C24.5981 43.6264 25.562 44.6555 25.7127 44.8168L26.2791 44.7505L26.1562 42.9553C26.6477 42.7288 27.4128 42.7854 27.4973 42.8613C27.5828 42.9371 28.0263 43.3998 26.8743 43.4843L27.0912 44.0037C28.2624 43.6821 27.9514 42.9361 27.8564 42.8133C27.4503 42.3217 26.4394 42.4264 26.184 42.4264V42.2661C27.4023 42.1336 28.1684 41.8696 28.5274 41.7841L29.1984 44.2024L29.7562 44.0325L29.0948 41.6709C30.7008 41.2648 32.6189 40.2251 32.9866 40.0081L33.072 40.1685L30.4455 42.2094L30.9744 42.6059C31.8528 41.6805 34.2058 41.9829 34.4986 42.0395L34.7156 41.8408L33.4685 39.7624L33.9783 39.4225L33.9754 39.4197Z" stroke="#04984A" stroke-width="0.13" stroke-miterlimit="3.94"/>
<path d="M18.3121 43.7272L18.2458 44.1237C18.5386 44.1525 18.9543 44.4923 19.0964 44.6248L19.2471 44.2945C18.9073 43.8597 18.4724 43.7752 18.3121 43.7281" fill="#04984A"/>
<path d="M18.3121 43.7272L18.2458 44.1237C18.5386 44.1525 18.9543 44.4923 19.0964 44.6248L19.2471 44.2945C18.9073 43.8597 18.4724 43.7752 18.3121 43.7281V43.7272Z" stroke="#04984A" stroke-width="0.13" stroke-miterlimit="3.94"/>
<path d="M32.2934 42.5367L32.3875 42.8862C32.6237 42.6788 33.313 42.5934 33.313 42.5934L33.3226 42.2631C32.9923 42.1499 32.2925 42.5367 32.2925 42.5367" fill="#04984A"/>
<path d="M32.2934 42.5367L32.3875 42.8862C32.6237 42.6788 33.313 42.5934 33.313 42.5934L33.3226 42.2631C32.9923 42.1499 32.2925 42.5367 32.2925 42.5367H32.2934Z" stroke="#04984A" stroke-width="0.13" stroke-miterlimit="3.94"/>
<path d="M8.72162 37.4555L8.40098 36.1528L9.57698 35.5019L8.19842 35.4097L7.94114 34.1003L7.45634 35.3262L6.09314 35.1995L7.14626 36.0664L6.55778 37.2971L7.72514 36.5694" fill="#EC2227"/>
<path d="M6.09314 35.1995L7.14626 36.0664L6.55778 37.2971L7.72514 36.5694L8.72162 37.4555L8.40098 36.1528L9.57698 35.5019L8.19842 35.4097L7.94114 34.1003L7.45634 35.3262L6.09314 35.1995Z" stroke="#EC2227" stroke-width="0.09" stroke-miterlimit="2.69"/>
<path d="M5.78017 31.4459L5.46625 30.1269L6.67201 29.476L5.31649 29.3819L5.06785 28.0513L4.54561 29.2916L3.19873 29.1313L4.22017 30.0107L3.66241 31.1953L4.79617 30.5377" fill="#EC2227"/>
<path d="M5.78017 31.4459L5.46625 30.1269L6.67201 29.476L5.31649 29.3819L5.06785 28.0513L4.54561 29.2916L3.19873 29.1313L4.22017 30.0107L3.66241 31.1953L4.79617 30.5377L5.78017 31.4459Z" stroke="#EC2227" stroke-width="0.09" stroke-miterlimit="2.69"/>
<path d="M38.807 37.4555L39.1277 36.1528L37.9517 35.5019L39.3312 35.4097L39.5875 34.1003L40.0723 35.3262L41.4355 35.1995L40.3824 36.0664L40.9718 37.2971L39.8035 36.5694" fill="#EC2227"/>
<path d="M40.3824 36.0664L40.9718 37.2971L39.8035 36.5694L38.807 37.4555L39.1277 36.1528L37.9517 35.5019L39.3312 35.4097L39.5875 34.1003L40.0723 35.3262L41.4355 35.1995L40.3824 36.0664Z" stroke="#EC2227" stroke-width="0.09" stroke-miterlimit="2.69"/>
<path d="M41.7484 31.4459L42.0623 30.1269L40.8566 29.476L42.2121 29.3819L42.4617 28.0513L42.983 29.2916L44.3298 29.1313L43.3094 30.0107L43.8671 31.1953L42.7324 30.5377" fill="#EC2227"/>
<path d="M42.0623 30.1269L40.8566 29.476L42.2121 29.3819L42.4617 28.0513L42.983 29.2916L44.3298 29.1313L43.3094 30.0107L43.8671 31.1953L42.7324 30.5377L41.7484 31.4459L42.0623 30.1269Z" stroke="#EC2227" stroke-width="0.09" stroke-miterlimit="2.69"/>
<path d="M24 40.0465C32.8622 40.0465 40.0464 32.8623 40.0464 24.0001C40.0464 15.138 32.8622 7.95374 24 7.95374C15.1378 7.95374 7.95361 15.138 7.95361 24.0001C7.95361 32.8623 15.1378 40.0465 24 40.0465Z" fill="#EC2227"/>
<path d="M21.7171 30.9284C21.7075 30.8449 21.6615 30.9563 21.6528 30.9841C21.6432 31.012 21.6346 31.1041 21.5885 31.1224C21.5242 31.1502 21.5511 31.0667 21.5511 31.0302C21.5607 30.9745 21.5789 30.9467 21.505 30.9284C21.4771 30.9563 21.4867 30.9928 21.4589 31.0302C21.4215 31.0859 21.4032 31.0676 21.4311 31.1224C21.4493 31.1502 21.4954 31.1867 21.5146 31.2145C21.552 31.2702 21.5607 31.3259 21.5885 31.3806C21.6346 31.492 21.6528 31.5659 21.6528 31.6945C21.6528 31.7684 21.6432 31.852 21.6528 31.9259C21.6154 31.9259 21.5789 31.8337 21.5607 31.8241C21.5146 31.8241 21.5328 31.9076 21.5146 31.9441C21.4867 31.972 21.4867 31.9998 21.4503 32.018C21.3763 32.0737 21.4128 32.0641 21.2842 32.018C21.2467 31.9998 21.2563 31.972 21.2659 31.9345C21.2755 31.8788 21.2563 31.8788 21.2285 31.8424C21.2103 31.8145 21.1728 31.7588 21.1728 31.731C21.1728 31.6849 21.2285 31.6475 21.2007 31.5928C21.1728 31.4727 21.0711 31.6302 21.0528 31.6849C21.0528 31.7031 21.0346 31.7588 21.0432 31.7771C21.0615 31.8328 21.1075 31.8145 21.1354 31.851C21.1632 31.8788 21.1728 31.9153 21.1632 31.9528C21.1354 32.0363 20.9779 32.0545 20.9319 31.9988C20.904 31.971 20.904 31.9345 20.9136 31.9067C20.9232 31.8884 20.9415 31.8692 20.9597 31.8606C20.9693 31.8232 20.9597 31.7684 20.9693 31.731C20.9789 31.6667 21.0154 31.5649 21.0067 31.4814C20.9971 31.4257 20.9885 31.4536 20.9693 31.491C20.9319 31.5371 20.9415 31.6292 20.8771 31.6206C20.8397 31.611 20.8215 31.5649 20.785 31.5563C20.7475 31.538 20.7111 31.5467 20.6736 31.5467C20.6179 31.5467 20.4883 31.5745 20.4883 31.5006C20.4883 31.4632 20.5258 31.4545 20.5344 31.4171V31.3528C20.5527 31.2884 20.5719 31.3153 20.6083 31.2788C20.7005 31.2049 20.6362 30.9371 20.5527 31.0571C20.5066 31.1214 20.4883 31.371 20.3674 31.3528C20.3395 31.3528 20.4231 31.1675 20.4231 31.1492C20.4327 31.0753 20.4327 30.9832 20.3952 30.9179C20.3491 30.8344 20.3952 30.7604 20.3491 30.6779C20.3117 30.604 20.2291 30.5857 20.1917 30.6596C20.1735 30.6971 20.2013 30.7336 20.1735 30.771C20.1456 30.8084 20.1178 30.8171 20.1274 30.8824C20.1456 30.9467 20.2291 30.9841 20.2387 31.058C20.2666 31.1598 20.1648 31.1598 20.2013 31.2702C20.2291 31.3441 20.2752 31.3998 20.2848 31.4641C20.3031 31.5198 20.3031 31.6676 20.2474 31.6955C20.1552 31.7512 20.1639 31.5755 20.1178 31.5476C20.0064 31.4737 20.0256 31.6494 20.0439 31.7051C20.0813 31.779 20.1178 31.8347 20.1178 31.9172C20.1178 31.9912 20.0995 32.0468 20.1082 32.1112C20.1264 32.1755 20.1543 32.2408 20.0803 32.2772C20.0429 32.3051 20.016 32.3147 19.9882 32.3416C19.9603 32.379 19.9421 32.3876 19.9047 32.3972C19.7568 32.4347 19.7847 32.3694 19.7568 32.2772C19.7472 32.2312 19.6733 32.2033 19.7011 32.1294C19.6733 32.1112 19.6176 32.092 19.6176 32.0372C19.6176 31.9825 19.6455 32.0094 19.6733 31.9816C19.7376 31.9441 19.8115 31.8894 19.8307 31.8059C19.8403 31.778 19.8307 31.7137 19.8211 31.6763C19.8115 31.6119 19.7933 31.6119 19.7655 31.5649C19.728 31.5188 19.728 31.4632 19.7098 31.4171C19.7098 31.3892 19.7002 31.2692 19.6637 31.2596C19.5523 31.204 19.5715 31.4171 19.5994 31.4814C19.6272 31.5371 19.7194 31.5928 19.6915 31.6571C19.6733 31.6945 19.6272 31.7128 19.608 31.7406C19.5802 31.7867 19.5802 31.8424 19.5437 31.8788C19.4419 32.0267 19.488 31.6753 19.4794 31.6388C19.4611 31.5371 19.3776 31.5553 19.3037 31.4814C19.2576 31.4257 19.2576 31.3979 19.3037 31.3431C19.3219 31.3249 19.4151 31.3432 19.4237 31.3057C19.4237 31.2875 19.3123 31.2875 19.3123 31.2779C19.3027 31.2596 19.3027 31.25 19.3027 31.2222C19.2931 31.1483 19.3584 31.0561 19.3402 30.9822C19.3306 30.9361 19.1827 30.8344 19.1367 30.89C19.0992 30.9275 19.248 31.0283 19.2202 31.1118C19.1923 31.1953 19.128 31.1761 19.0723 31.1396C18.9427 31.084 19.0167 30.9822 18.9245 30.9275C18.8688 30.9832 18.9063 31.0936 18.8967 31.1588C18.8967 31.2328 18.8784 31.2884 18.8592 31.3441C18.8314 31.4276 18.8314 31.4737 18.9053 31.5102C18.9696 31.5563 19.0167 31.5841 19.0253 31.6763C19.0349 31.7502 19.0071 31.8145 18.961 31.8798C18.9149 31.9355 18.8967 31.9998 18.8592 32.0555C18.841 32.0737 18.8035 32.1015 18.7757 32.0929C18.7296 32.0747 18.7661 32.0372 18.7661 32.019C18.7757 31.9268 18.7939 31.8894 18.7479 31.8068C18.6835 31.6772 18.7383 31.539 18.6922 31.419C18.6643 31.3268 18.6183 31.299 18.5722 31.2155C18.4983 31.0859 18.6183 31.0955 18.6739 31.0302C18.7018 30.9928 18.7479 30.938 18.7383 30.9006C18.7287 30.8449 18.6 30.7988 18.6 30.7432C18.6 30.6875 18.6643 30.651 18.6922 30.6049C18.7296 30.5214 18.7757 30.531 18.6739 30.4388C18.6279 30.3745 18.6922 30.3188 18.6739 30.2631C18.6557 30.171 18.5261 30.1336 18.48 30.051C18.4618 30.0049 18.4061 29.931 18.4243 29.8753C18.4522 29.8014 18.5261 29.8014 18.5261 29.7179C18.5165 29.644 18.4243 29.6065 18.4147 29.524C18.4051 29.45 18.4704 29.3761 18.4887 29.3022C18.5069 29.21 18.4983 29.1265 18.4426 29.0344C18.4147 28.9969 18.313 28.9326 18.313 28.8865C18.3226 28.8404 18.3773 28.8404 18.3869 28.803C18.4243 28.7656 18.4051 28.7569 18.3869 28.7108C18.3687 28.6648 18.3687 28.6273 18.3408 28.5812C18.2947 28.4977 18.3504 28.4795 18.3687 28.3777C18.3783 28.3403 18.4061 28.3038 18.3504 28.2577C18.3226 28.2299 18.2487 28.2116 18.2304 28.1742C18.2026 28.1099 18.3043 28.0724 18.3418 28.0446C18.3879 28.0072 18.4714 27.9524 18.4896 27.8871C18.4992 27.8228 18.4061 27.7489 18.36 27.7019C18.3418 27.674 18.2765 27.6558 18.2583 27.628C18.24 27.5905 18.2583 27.5723 18.2583 27.5358C18.2583 27.4715 18.1939 27.4158 18.1565 27.3419C18.1383 27.2776 18.073 27.1566 18.0922 27.0923C18.1018 27.0548 18.12 27.0644 18.1383 27.0366C18.1565 27.0088 18.1565 26.9905 18.1565 26.9531C18.1661 26.8792 18.1565 26.8148 18.2026 26.7409C18.24 26.667 18.2765 26.6027 18.36 26.5835C18.4243 26.5739 18.5357 26.5931 18.5357 26.4539C18.5357 26.3982 18.4983 26.4356 18.4522 26.4078C18.3965 26.3703 18.3783 26.2782 18.3226 26.2417C18.2583 26.2043 18.2669 26.2599 18.2112 26.2878C18.1277 26.3252 18.1095 26.2321 18.0634 26.186C17.9616 26.1025 17.9616 26.1678 17.9616 26.26C17.9616 26.3713 17.9155 26.3521 17.8599 26.2782C17.8224 26.2225 17.7763 26.1764 17.712 26.1582C17.6285 26.1208 17.5642 26.1025 17.4999 26.0382C17.4816 26.0104 17.4624 25.8904 17.4903 25.8625C17.5546 25.7982 17.6381 25.946 17.7024 25.9364C17.8599 25.9182 17.6467 25.7886 17.6285 25.7512C17.5911 25.659 17.7024 25.6676 17.7485 25.6216C17.7859 25.5841 17.7667 25.5841 17.7667 25.5476C17.7946 25.492 17.7946 25.5016 17.8503 25.4737C17.9059 25.4276 17.9799 25.3441 17.9885 25.2702C17.9981 25.2145 17.9703 25.0945 17.8963 25.1588C17.8589 25.1963 17.8685 25.251 17.8042 25.2702C17.7581 25.2884 17.6928 25.2798 17.6467 25.2702C17.4615 25.2241 17.6467 25.1867 17.6093 25.0945C17.5911 25.0484 17.4797 25.0388 17.4519 25.0024C17.424 24.9745 17.424 24.9284 17.424 24.8824C17.3962 24.8449 17.3319 24.7902 17.2666 24.7988C17.2205 24.8084 17.2023 24.8728 17.1744 24.8449C17.1648 24.8171 17.184 24.771 17.2023 24.7432C17.2397 24.6875 17.2023 24.6318 17.1562 24.5953C17.064 24.5492 17.1562 24.8449 17.0544 24.8353C16.9344 24.8171 16.9987 24.6136 17.0266 24.5579C17.0448 24.5118 17.064 24.4657 17.0909 24.4283C17.1283 24.3908 17.1831 24.3726 17.2291 24.3361C17.257 24.2987 17.2752 24.244 17.257 24.2065C17.2195 24.1422 17.0909 24.1787 17.0909 24.0952C17.1648 24.0212 17.2848 24.123 17.3223 24.0116C17.3405 23.9281 17.2666 23.882 17.2205 23.8264C17.1005 23.6881 17.2483 23.7342 17.3501 23.7707C17.424 23.7889 17.5623 23.7803 17.6362 23.7611C17.7379 23.7332 17.7562 23.6497 17.7936 23.5672C17.8119 23.5115 17.905 23.4193 17.8954 23.3732C17.8579 23.355 17.8311 23.3089 17.8311 23.2811C17.8311 23.2436 17.8589 23.235 17.8685 23.2072C17.8867 23.1428 17.8503 23.0776 17.8407 23.0315C17.8224 22.9854 17.8311 22.9854 17.7946 22.948C17.7667 22.9201 17.6467 22.8836 17.6371 22.8558C17.6093 22.7819 17.7293 22.8184 17.7754 22.8097C17.9971 22.7915 17.9232 22.4766 17.9136 22.3566C17.904 22.2366 17.8301 22.107 17.7101 22.0888C17.664 22.0792 17.6179 22.0792 17.5719 22.0888C17.4979 22.0984 17.424 22.0792 17.3405 22.0792C17.2387 22.0696 17.2387 22.0513 17.1744 22.0052C17.0266 21.9131 16.8413 21.9774 16.6656 21.9217C16.536 21.8756 16.3978 21.8296 16.3056 21.7278C16.1578 21.58 15.9264 21.4964 15.7882 21.3025C15.7507 21.2564 15.7047 21.219 15.6682 21.1825C15.6317 21.146 15.6403 21.1086 15.6039 21.0625C15.5578 21.0164 15.5203 20.9512 15.5117 20.8964C15.5117 20.8129 15.4656 20.7764 15.4003 20.7304C15.3629 20.7025 15.2986 20.6564 15.2986 20.6008C15.2986 20.5268 15.3725 20.5268 15.4186 20.4894C15.4829 20.452 15.5107 20.4059 15.5482 20.3416C15.6039 20.258 15.6317 20.1755 15.696 20.1016C15.7421 20.0459 15.7882 20.0094 15.8439 19.972C15.9178 19.9345 16.0291 19.972 16.0291 19.8606C16.0195 19.7771 15.937 19.7492 15.8813 19.6945C15.7517 19.5928 15.9552 19.5188 16.057 19.5284C16.1587 19.5284 16.1952 19.6302 16.2691 19.6859C16.3613 19.7598 16.4352 19.8337 16.5466 19.8712C16.6109 19.8808 16.6579 19.8616 16.6301 19.7876C16.6023 19.7233 16.4823 19.6955 16.4448 19.6398C16.4823 19.6024 16.5562 19.6676 16.6023 19.6398C16.6666 19.6024 16.5927 19.5284 16.6119 19.5016C16.6675 19.4372 16.7779 19.5572 16.8058 19.5659C16.8979 19.5755 16.8701 19.4737 16.8615 19.4276C16.8519 19.3355 16.9075 19.298 16.9536 19.2241C16.9911 19.1598 17.0179 19.0484 17.0093 18.9649C16.9911 18.8449 16.8519 18.6692 17.0093 18.5857C17.065 18.5579 17.1293 18.5675 17.185 18.5761C17.3146 18.5857 17.3146 18.6136 17.3703 18.7057C17.4624 18.8814 17.5824 18.6683 17.6477 18.604C17.7312 18.5944 17.7216 18.6683 17.7773 18.6961C17.7955 18.7144 17.8234 18.724 17.8416 18.724C17.8877 18.7144 17.8973 18.65 17.9251 18.6318C18.0087 18.604 18.1008 18.7057 18.1651 18.7336C18.2487 18.7796 18.2573 18.771 18.3312 18.7153C18.433 18.6232 18.4512 18.6414 18.4608 18.7057C18.4608 18.7614 18.4983 18.7614 18.5722 18.77C18.6 18.7796 18.6461 18.7883 18.6835 18.77C18.7479 18.7604 18.8035 18.6779 18.8035 18.6222C18.8035 18.5387 18.8218 18.5387 18.8775 18.484C18.9331 18.4292 18.9696 18.3265 18.9149 18.2622C18.8871 18.2344 18.841 18.2065 18.8035 18.1979C18.7296 18.1883 18.6653 18.2353 18.6 18.2075C18.5539 18.1892 18.5357 18.1153 18.5079 18.0779C18.4704 18.0404 18.4243 18.0222 18.3965 17.9857C18.2669 17.8196 18.5626 17.7918 18.4608 17.6622C18.4147 17.6065 18.3965 17.5422 18.3591 17.4865C18.3312 17.4491 18.2573 17.3387 18.2112 17.3944C18.1738 17.4318 18.2947 17.5422 18.1834 17.524C18.1373 17.524 18.1191 17.4779 18.0912 17.45C18.0451 17.4126 18.0538 17.4126 18.0077 17.4404C17.9338 17.4865 17.8781 17.5787 17.7677 17.5422C17.6938 17.5144 17.6477 17.4222 17.5738 17.3848C17.4903 17.3387 17.3885 17.3752 17.3146 17.3387C17.2311 17.2926 17.2685 17.2273 17.2407 17.1812C17.2032 17.0977 17.1111 17.1256 17.0467 17.0891C17.0007 17.0612 17.0007 16.9595 17.0746 16.9777C17.0928 16.9134 17.0189 16.8203 16.9824 16.7656C16.9267 16.682 16.8067 16.7281 16.7232 16.6542C16.6311 16.5985 16.585 16.4968 16.5379 16.4046C16.4919 16.3403 16.464 16.2289 16.3997 16.1924C16.3162 16.155 16.3258 16.2481 16.2701 16.276C16.224 16.2942 16.2058 16.2664 16.1779 16.2664C16.1405 16.276 16.1136 16.2942 16.0944 16.3038C16.0301 16.3038 15.937 16.2203 15.8909 16.1742C15.8352 16.1185 15.8266 16.082 15.817 16.0081C15.8074 15.9524 15.7987 15.8968 15.7891 15.8228C15.7709 15.7585 15.9091 15.7489 15.9005 15.6932C15.9005 15.6289 15.7891 15.6472 15.8083 15.555C15.8179 15.5176 15.8544 15.5176 15.8727 15.4907C15.8823 15.4628 15.8909 15.4446 15.9005 15.4168C15.9283 15.3889 16.0119 15.3611 16.0387 15.3428C16.0762 15.315 16.1309 15.2968 16.1683 15.2593C16.2144 15.2132 16.2519 15.1758 16.1866 15.148L16.1405 15.1384C16.0848 15.1201 15.9552 15.0827 15.9927 14.9905C16.0205 14.9444 16.104 14.9627 16.1587 14.9348C16.2135 14.907 16.1866 14.8792 16.1962 14.8427C16.224 14.7966 16.2519 14.7966 16.3075 14.7688C16.3719 14.7409 16.4371 14.667 16.5111 14.667C16.5485 14.667 16.6589 14.7227 16.6867 14.667C16.705 14.6488 16.6771 14.6113 16.6771 14.5931C16.6835 14.5624 16.696 14.5345 16.7146 14.5096C16.7328 14.4817 16.7328 14.4635 16.7424 14.4356C16.7703 14.38 16.8259 14.3435 16.872 14.2974C16.9095 14.26 16.9555 14.1774 17.0016 14.1592C17.1399 14.1131 17.5287 14.3252 17.4547 14.0478C17.4451 13.9921 17.3069 13.9556 17.2887 13.9C17.2704 13.826 17.3722 13.8539 17.4183 13.8443C17.4365 13.7243 17.2426 13.6782 17.1591 13.6504C17.0573 13.6321 16.8816 13.7243 16.7895 13.6321C16.6973 13.5486 16.7991 13.3182 16.8634 13.2164C16.9095 13.1329 17.0573 12.8564 17.1591 12.9947C17.2051 13.059 17.1687 13.1521 17.1687 13.2164C17.1687 13.3182 17.2243 13.3547 17.3165 13.4104C17.4183 13.4564 17.4365 13.4747 17.4826 13.5678C17.5104 13.6139 17.5287 13.6974 17.5939 13.6974C18.0279 13.6792 17.9818 13.8731 17.9453 13.8827C17.8714 13.9105 18.241 14.1419 18.2592 14.3262C18.2592 14.354 18.2871 14.3905 18.3149 14.4097C18.3523 14.4472 18.3523 14.428 18.3888 14.4472C18.481 14.4932 18.5271 14.5672 18.5741 14.6593C18.6576 14.6968 18.7402 14.5576 18.7594 14.5211C18.8333 14.4289 18.8333 14.6046 18.8794 14.6411C18.9255 14.6689 19.0455 14.6968 19.0829 14.6315C19.1203 14.548 18.9533 14.5201 18.9811 14.428C19.0647 14.354 19.2586 14.6315 19.3882 14.5297C19.4899 14.4462 19.2125 14.2984 19.129 14.2523C18.9715 14.1505 18.8333 14.067 18.9994 13.8923C19.0733 13.8001 19.0637 13.8462 19.129 13.9201C19.1847 14.0036 19.2586 14.0401 19.3411 14.0401C19.5072 14.0305 19.5811 13.9844 19.5168 14.1697C19.489 14.2436 19.5168 14.2811 19.5725 14.3358C19.6186 14.4001 19.5543 14.4097 19.5168 14.4558C19.4707 14.5115 19.5543 14.5854 19.609 14.6036C19.6368 14.6219 19.6733 14.6219 19.6829 14.6593C19.7011 14.6872 19.6925 14.7332 19.6925 14.7611C19.6925 14.835 19.6282 14.9368 19.6829 15.0011C19.729 15.0385 19.729 15.0846 19.7847 15.1028C19.8307 15.1211 19.896 15.1211 19.9507 15.1307C19.9882 15.1403 20.0064 15.1681 20.0343 15.1864C20.0717 15.2238 20.0899 15.2699 20.1264 15.316C20.1447 15.3342 20.1725 15.3438 20.1907 15.3716C20.2186 15.4091 20.2368 15.4456 20.2743 15.4638C20.3299 15.4916 20.3664 15.5195 20.4317 15.5281C20.4874 15.5464 20.5699 15.5377 20.6439 15.5377C20.6899 15.5377 20.7456 15.5281 20.7821 15.5656C20.8282 15.603 20.8003 15.6952 20.8743 15.7038C20.9482 15.7038 20.9299 15.6856 20.976 15.6395C21.0039 15.6116 21.096 15.6299 21.1335 15.6577C21.1709 15.6856 21.2074 15.7873 21.2448 15.6952C21.2631 15.6673 21.2823 15.6308 21.2727 15.5934C21.2727 15.556 21.2448 15.5377 21.2352 15.5099C21.217 15.3899 21.3735 15.4177 21.4387 15.4264C21.5309 15.436 21.577 15.3428 21.5309 15.2689C21.4848 15.2046 21.1795 15.1489 21.3091 15.0193C21.337 15.0011 21.3648 14.9819 21.4013 14.9636C21.4387 14.954 21.4935 14.9636 21.4935 14.9262C21.5117 14.8705 21.4656 14.788 21.5395 14.7688C21.5578 14.7688 21.5856 14.7688 21.6135 14.7592C21.6317 14.7496 21.6413 14.7409 21.6595 14.7592C21.697 14.7774 21.7056 14.8148 21.7431 14.8427C21.7613 14.8801 21.7891 14.907 21.817 14.9444C21.8448 14.9819 21.8727 15.0001 21.9091 15.028C21.937 15.0462 21.9552 15.0923 21.9648 15.1201C21.9744 15.1844 22.0109 15.2497 22.0109 15.314C22.0291 15.4062 21.9648 15.4619 21.937 15.5454C21.9274 15.555 21.937 15.6097 21.9466 15.6289C21.9562 15.6481 21.9744 15.6289 21.9927 15.6289C22.057 15.6289 22.104 15.5646 22.1587 15.6289C22.1962 15.6568 22.2509 15.6932 22.2509 15.7403C22.2509 15.8046 22.2231 15.8324 22.177 15.8699C22.1127 15.9256 22.177 15.9716 22.1587 16.036C22.1405 16.0916 22.1127 16.1473 22.0848 16.202C22.0666 16.2481 22.0387 16.3038 22.057 16.3499C22.0666 16.4056 22.1127 16.4612 22.1213 16.516C22.1395 16.5803 22.1395 16.6177 22.1117 16.6734C22.0839 16.7291 22.0474 16.7848 22.0474 16.8395C22.0378 16.8952 22.0848 16.9316 22.1213 16.9595C22.1587 16.9691 22.1674 16.9969 22.177 17.0238C22.2048 17.0699 22.2048 17.1256 22.2144 17.1812C22.224 17.3195 22.2327 17.4587 22.2144 17.5969C22.2048 17.6804 22.1866 17.7544 22.1587 17.8369C22.1491 17.8744 22.1309 17.9108 22.1031 17.9291C22.0848 17.9569 22.057 17.9752 22.0291 18.003C22.0109 18.0212 22.0195 18.0491 22.0109 18.0769C22.0109 18.1508 22.0666 18.243 22.0387 18.3083C22.0291 18.3361 21.9648 18.4561 22.0109 18.4657C22.0291 18.4657 22.0666 18.4379 22.0752 18.4196C22.1031 18.4014 22.1309 18.3918 22.1587 18.3822C22.2144 18.364 22.2423 18.3361 22.297 18.364C22.3527 18.3822 22.4083 18.4196 22.4727 18.4379C22.5562 18.4657 22.6387 18.4936 22.7319 18.5396C22.7693 18.5579 22.824 18.5675 22.8519 18.5953C22.8701 18.6136 22.8797 18.6414 22.8979 18.6692C22.9258 18.6875 22.9623 18.7067 22.9815 18.7336C23.0371 18.771 23.1111 18.771 23.1754 18.7796C23.2311 18.7892 23.305 18.7979 23.3607 18.8171C23.4346 18.8353 23.5181 18.8449 23.592 18.8632C23.6659 18.8814 23.7216 18.9275 23.7955 18.9553C23.8512 18.9736 23.8791 19.011 23.9251 19.0388C23.9808 19.0667 24.073 19.0667 24.1287 19.0484C24.2208 19.0388 24.2765 19.0667 24.36 19.058C24.4243 19.0484 24.4522 19.0398 24.4983 19.0302C24.5539 19.0206 24.6183 19.0206 24.6643 19.0302C24.7383 19.0302 24.7939 19.0398 24.8583 19.0302C24.9139 19.0206 24.9504 19.012 24.9965 19.0024C25.0426 19.0024 25.0887 19.012 25.1261 19.0398C25.1722 19.0955 25.2643 19.1416 25.32 19.0772C25.3575 19.0398 25.3479 18.9851 25.4122 18.9755C25.4679 18.9572 25.5235 18.9937 25.5418 19.0312C25.68 19.2164 26.0688 19.1972 26.2253 19.059C26.3731 18.9208 26.6323 18.9208 26.7984 19.0129C26.8627 19.0408 26.928 19.0225 26.9741 18.9851C27.0298 18.9572 27.0663 18.9208 27.1219 18.939C27.1402 18.939 27.1498 18.9486 27.168 18.9486C27.1959 18.9582 27.2237 18.9668 27.2515 18.986C27.2794 19.0139 27.2976 19.0417 27.3159 19.06C27.3619 19.1156 27.3994 19.1521 27.4733 19.1617C27.5847 19.1713 27.7133 19.1339 27.8247 19.1896C27.9168 19.2452 28.0186 19.2452 28.1203 19.2452C28.176 19.2548 28.2403 19.2635 28.296 19.2356C28.3335 19.2078 28.3699 19.1982 28.3882 19.1713C28.416 19.1435 28.4343 19.1156 28.4525 19.1156C28.4986 19.106 28.5264 19.1435 28.5264 19.18C28.52 19.2107 28.5168 19.2385 28.5168 19.2635C28.5072 19.347 28.6925 19.3096 28.7482 19.2817C28.7943 19.2635 28.8595 19.2721 28.9239 19.2635C28.9795 19.2452 29.0256 19.2078 29.0717 19.18C29.1552 19.1339 29.3031 19.1617 29.3952 19.1704C29.497 19.18 29.5987 19.1886 29.7005 19.1704C29.7466 19.1608 29.7927 19.1704 29.8387 19.1608C29.8666 19.1608 29.9127 19.1608 29.9405 19.1512L29.9962 19.1233C30.0883 19.0859 30.1815 19.1512 30.2554 19.2251C30.2736 19.2529 30.3015 19.2712 30.3197 19.2808C30.3754 19.3086 30.4397 19.2808 30.4954 19.299C30.5232 19.3086 30.5597 19.3364 30.5875 19.3729C30.5971 19.3825 30.5971 19.4008 30.6058 19.419C30.624 19.4468 30.6519 19.4747 30.6701 19.4929C30.7258 19.5304 30.7623 19.6043 30.8275 19.6129C30.8736 19.6225 30.9015 19.6312 30.9389 19.6129C30.985 19.5947 31.0128 19.5668 31.0685 19.5668C31.1607 19.5668 31.2442 19.6043 31.3085 19.6686C31.3363 19.706 31.3728 19.7521 31.4007 19.8068C31.4103 19.8347 31.4103 19.8712 31.4285 19.9086C31.4563 19.946 31.4563 20.0104 31.4842 20.0382C31.5303 20.0843 31.6042 19.9921 31.6503 20.02C31.6599 20.0382 31.6963 20.0843 31.7059 20.1121C31.7242 20.1496 31.7059 20.2043 31.7242 20.2417C31.7338 20.3339 31.7059 20.3992 31.6407 20.4635C31.585 20.5096 31.5024 20.5192 31.4467 20.4913C31.4093 20.4635 31.3632 20.4635 31.3354 20.4452C31.3258 20.4356 31.3075 20.427 31.2797 20.4078C31.2615 20.3896 31.224 20.38 31.1962 20.3521C31.1779 20.3243 31.1501 20.2964 31.1127 20.2782C31.0752 20.2504 31.0387 20.186 30.9927 20.1764C30.9466 20.1668 30.9091 20.2225 30.9005 20.26C30.9005 20.3156 30.8909 20.38 30.8727 20.426C30.8631 20.4539 30.8266 20.4539 30.817 20.4721C30.7795 20.5364 30.8727 20.6382 30.8813 20.6939C30.8909 20.7678 30.8717 20.8417 30.8631 20.9156C30.8352 20.98 30.7795 21.0356 30.7335 21.0913C30.6874 21.1556 30.6595 21.2296 30.6413 21.3035C30.6317 21.3496 30.6317 21.3956 30.6317 21.4417C30.6317 21.5252 30.6413 21.627 30.6691 21.7096C30.6874 21.747 30.7066 21.7931 30.697 21.8209C30.697 21.8584 30.6595 21.8488 30.6327 21.8209C30.6048 21.7931 30.577 21.7374 30.5491 21.7009C30.5309 21.6635 30.4752 21.6174 30.4378 21.6174C30.3178 21.627 30.4099 21.8113 30.4282 21.8766C30.4656 21.9688 30.5021 22.1262 30.3725 22.1819C30.2803 22.2193 30.1507 22.2097 30.049 22.1819C30.0211 22.1723 29.9194 22.1358 29.9011 22.1262C29.8733 22.1166 29.7898 22.0801 29.7533 22.108C29.6976 22.1723 29.8176 22.2932 29.8455 22.3201C29.8733 22.3758 29.8176 22.3662 29.7715 22.348C29.7341 22.348 29.688 22.3384 29.6419 22.3297C29.5498 22.3297 29.5498 22.3854 29.5498 22.4497C29.5498 22.5793 29.6055 22.6993 29.5594 22.8193C29.5315 22.875 29.4951 23.0411 29.4211 23.0315C29.3933 23.0315 29.3655 22.9672 29.3655 22.948C29.3655 22.9288 29.3751 22.9201 29.3933 22.9105C29.4029 22.8731 29.4029 22.827 29.3933 22.7905C29.3655 22.7166 29.3376 22.6888 29.2637 22.6984C29.1994 22.6984 29.1994 22.7262 29.1619 22.7627C29.1437 22.7905 29.1159 22.8001 29.088 22.8088C29.0045 22.8184 29.0141 22.7444 28.9863 22.707C28.9488 22.6609 28.8845 22.6427 28.8384 22.7166C28.7827 22.8088 28.8845 22.9288 28.8567 23.0305C28.8384 23.0766 28.7827 23.0862 28.7367 23.068C28.681 23.0401 28.6627 22.9662 28.6445 22.9201C28.6349 22.8644 28.5984 22.7819 28.5245 22.8088C28.4784 22.827 28.4871 22.8827 28.4784 22.9288C28.4602 23.0584 28.4506 23.2062 28.3402 23.2888C28.3219 23.2984 28.2941 23.307 28.2759 23.3166C28.1923 23.3166 28.1463 23.2888 28.0723 23.2792C28.0349 23.2696 27.9706 23.2888 27.9245 23.2792C27.8871 23.2696 27.8506 23.2417 27.8227 23.2331C27.7853 23.2052 27.7392 23.2052 27.6931 23.1956C27.6471 23.1774 27.5453 23.1496 27.5079 23.2052C27.48 23.2609 27.5079 23.3348 27.5175 23.3435C27.5357 23.3896 27.5731 23.4078 27.5914 23.4452C27.601 23.4913 27.5357 23.5096 27.5175 23.5374C27.4896 23.5652 27.4618 23.6209 27.4339 23.6392C27.3965 23.6574 27.36 23.6017 27.3226 23.6017C27.2583 23.5921 27.2304 23.6113 27.193 23.6574C27.1651 23.6948 27.1287 23.7409 27.1555 23.7774C27.2016 23.8235 27.2112 23.8513 27.1834 23.8974C27.1651 23.9531 27.1191 23.9252 27.0634 23.9348C26.9991 23.9348 26.952 23.9627 26.9434 24.027C26.9155 24.0731 26.9434 24.1009 26.9712 24.1384C26.9991 24.1844 27.0355 24.2305 27.0269 24.2958C27.0269 24.3419 26.9808 24.3697 26.9712 24.4158C26.9616 24.4619 26.9991 24.5358 26.9434 24.5636C26.8695 24.5915 26.8051 24.5454 26.7773 24.6376C26.7677 24.675 26.7869 24.7211 26.7955 24.7489C26.8234 24.7864 26.8512 24.8132 26.8695 24.8603C26.8877 24.9438 26.8416 24.9985 26.7581 25.0264C26.6938 25.036 26.6285 25.0724 26.6381 25.1464C26.6477 25.1924 26.6755 25.2299 26.7216 25.2577C26.7591 25.276 26.7859 25.2856 26.833 25.3038C26.88 25.322 26.8791 25.3316 26.8791 25.3873C26.8791 25.4334 26.8695 25.4795 26.8695 25.5256C26.8599 25.5995 26.9069 25.6369 26.953 25.6916C26.9991 25.7377 27.0365 25.7838 27.0643 25.8491C27.0739 25.8769 27.1018 25.8865 27.12 25.9134C27.1383 25.9412 27.12 25.9873 27.1296 26.0248C27.1296 26.0622 27.1392 26.0622 27.1671 26.0804C27.1853 26.0987 27.2131 26.1179 27.2045 26.1448C27.1863 26.2004 27.1402 26.1822 27.1584 26.2561C27.1584 26.284 27.1584 26.2935 27.168 26.3118C27.1863 26.3396 27.1863 26.3953 27.2237 26.4232C27.3437 26.5431 27.288 26.6728 27.3072 26.8302C27.3255 26.9041 27.3255 26.9502 27.3255 27.0155C27.3351 27.099 27.3351 27.2008 27.3811 27.2651C27.409 27.3112 27.4455 27.3112 27.4829 27.3294C27.5664 27.3572 27.6211 27.292 27.6307 27.2094C27.6403 27.1816 27.6307 27.1537 27.6211 27.1259C27.6115 27.1076 27.5933 27.0884 27.5837 27.0702C27.5463 27.0424 27.5098 27.0328 27.4915 26.9963C27.4733 26.9598 27.4541 26.8849 27.4637 26.858C27.4733 26.7841 27.4733 26.7198 27.4733 26.6545C27.4733 26.5988 27.4733 26.4424 27.5568 26.4232C27.6125 26.4232 27.6307 26.5432 27.649 26.571C27.6864 26.6267 27.7325 26.6728 27.7786 26.7188C27.8064 26.7563 27.8343 26.811 27.8803 26.8484C27.9178 26.8763 27.9821 26.8763 27.9725 26.9128C27.9629 26.9406 27.9168 26.9771 27.8986 27.0049C27.8429 27.1067 27.9907 27.2084 28.0282 27.291C28.0464 27.3284 28.0003 27.3553 28.0186 27.3832C28.0368 27.4014 28.0464 27.411 28.056 27.4292C28.0743 27.4849 28.0656 27.5492 28.0656 27.6145C28.0656 27.652 28.056 27.6884 28.056 27.7259C28.056 27.772 28.0282 27.8737 28.1021 27.8737C28.1482 27.8833 28.1856 27.8094 28.2221 27.7816C28.2317 27.7633 28.2864 27.7076 28.3143 27.698C28.3603 27.6884 28.3699 27.7624 28.4064 27.7816C28.4439 27.8094 28.4343 27.7998 28.4439 27.7633C28.4535 27.7537 28.4621 27.7451 28.4621 27.7259C28.4717 27.7076 28.4525 27.6884 28.4717 27.6702C28.4899 27.6424 28.5639 27.6606 28.6013 27.6606C28.657 27.6606 28.7309 27.6327 28.777 27.6231C28.8883 27.5675 28.9805 27.4849 29.0631 27.3736C29.0909 27.3457 29.1091 27.3179 29.1187 27.2814C29.1283 27.2353 29.1562 27.2257 29.1744 27.1892C29.2023 27.1518 29.2023 27.1153 29.2023 27.0692C29.1927 26.9771 29.1283 26.9214 29.064 26.8657L28.9805 26.7822C28.9527 26.7265 28.9527 26.6526 28.9527 26.5969C28.9527 26.5412 28.9987 26.4395 28.9623 26.3934C28.9527 26.3752 28.9344 26.356 28.9162 26.3473C28.8883 26.3291 28.8519 26.3291 28.8327 26.2916C28.7866 26.2456 28.8509 26.2542 28.8883 26.2456C28.9258 26.2369 28.9623 26.2177 28.9997 26.1899C29.0371 26.162 29.0179 26.1063 29.0179 26.0603C29.0179 26.0324 29.0083 25.996 29.0458 26.0046C29.0919 26.0046 29.1101 26.0603 29.1475 26.0689C29.1936 26.0871 29.2771 26.0872 29.3136 26.0785C29.4058 26.0603 29.4711 25.9489 29.545 25.9028C29.6007 25.8654 29.6746 25.8846 29.7111 25.8107L29.7389 25.7732C29.7763 25.7176 29.7389 25.635 29.7389 25.5611C29.7293 25.515 29.7667 25.4593 29.7571 25.4132C29.7475 25.3758 29.7111 25.3576 29.7015 25.3211C29.6919 25.2654 29.6919 25.2568 29.6736 25.2097C29.6179 25.1262 29.6179 25.0244 29.6275 24.9419C29.6371 24.8776 29.6736 24.7662 29.7571 24.794C29.7946 24.8036 29.8215 24.8497 29.8215 24.8862C29.8311 24.9419 29.8032 25.0062 29.8397 25.0523C29.8858 25.0984 29.9597 25.1166 30.025 25.108C30.0989 25.0984 30.1267 25.0436 30.1632 24.988C30.2007 24.9601 30.2275 24.9044 30.2832 24.8862C30.3475 24.8584 30.4407 24.8488 30.5146 24.8584C30.6259 24.8862 30.6259 24.9784 30.672 25.0436C30.6999 25.0811 30.7277 25.0897 30.7363 25.0532C30.745 25.0168 30.7459 24.9793 30.7363 24.9515C30.7267 24.8958 30.7363 24.8958 30.7738 24.8497C30.792 24.8219 30.8112 24.7854 30.8477 24.8123C30.8851 24.8401 30.8573 24.8862 30.8659 24.9323C30.8842 24.9697 30.912 25.0062 30.912 25.0436C30.9216 25.1176 30.7738 25.2654 30.8938 25.3211C30.9312 25.3307 30.9773 25.3307 30.9955 25.3768C31.033 25.4324 30.9581 25.4785 30.9581 25.5428C30.9677 25.5889 30.9955 25.6072 31.0224 25.6446C31.0599 25.6907 31.0781 25.7368 31.0963 25.7924C31.1146 25.8481 31.1146 25.9038 31.1338 25.9681C31.1434 26.0056 31.1712 26.0238 31.1799 26.0699C31.1981 26.1342 31.2077 26.1812 31.2077 26.236C31.1981 26.2734 31.2173 26.2916 31.2173 26.3195C31.2269 26.3656 31.2077 26.4116 31.2173 26.4577C31.2173 26.5134 31.2451 26.5595 31.2547 26.6238C31.2547 26.6612 31.2365 26.6881 31.2087 26.7073C31.1712 26.7534 31.1347 26.7995 31.1165 26.8456C31.1069 26.9099 31.1261 26.9752 31.1261 27.0395C31.1261 27.0856 31.1079 27.123 31.1079 27.1691C31.1175 27.2526 31.2279 27.2891 31.2375 27.363C31.2375 27.4004 31.1818 27.4369 31.1731 27.4648C31.1635 27.4926 31.2106 27.5291 31.2288 27.5569C31.2567 27.6126 31.2567 27.6683 31.2192 27.7144C31.201 27.7422 31.1635 27.7883 31.1635 27.8161C31.1539 27.8622 31.1635 27.8804 31.2096 27.8996C31.2653 27.9092 31.2931 27.9553 31.3018 28.011C31.3114 28.0388 31.3018 28.0753 31.32 28.1128C31.3661 28.1867 31.4496 28.0945 31.5139 28.1032C31.5514 28.1214 31.5418 28.1588 31.5139 28.1867C31.5043 28.2049 31.4861 28.2145 31.4765 28.2424C31.4583 28.3163 31.4583 28.418 31.4583 28.5016C31.4583 28.5851 31.4861 28.6676 31.5783 28.6955C31.5965 28.7137 31.6243 28.7233 31.6522 28.7233C31.6983 28.7329 31.7165 28.7329 31.7443 28.779C31.7626 28.7972 31.7818 28.8251 31.7818 28.8529C31.7914 28.9086 31.7818 28.9729 31.7818 29.019C31.7722 29.0833 31.7539 29.1486 31.7357 29.2129C31.6983 29.2868 31.6896 29.3703 31.6983 29.4529C31.7079 29.5268 31.7539 29.6008 31.7722 29.6651C31.7818 29.7486 31.7818 29.8033 31.7818 29.8772C31.7722 29.9608 31.7722 30.0347 31.7914 30.1268C31.7914 30.2008 31.801 30.2929 31.8288 30.3764C31.8384 30.4139 31.8567 30.4503 31.8663 30.4878C31.9037 30.626 31.9498 30.7556 31.9584 30.9035C31.968 30.9774 31.921 31.0417 31.8845 31.1156C31.8471 31.2078 31.8202 31.2913 31.8663 31.3748C31.9037 31.4305 31.9219 31.4948 31.9498 31.5505C31.9776 31.6062 32.0333 31.634 32.0611 31.6801C32.1072 31.7723 32.089 31.9201 32.0333 32.0219C32.0151 32.0593 31.9959 32.0862 31.9872 32.1236C31.9776 32.1975 32.0055 32.2897 32.0151 32.355C32.0151 32.475 32.0055 32.595 31.9776 32.7064C31.9498 32.7985 31.9959 32.8916 31.9959 32.9924C31.9776 33.1403 31.9402 33.2881 31.9776 33.436C32.0151 33.556 32.0515 33.6952 32.0419 33.8238C32.0419 33.9256 32.1063 34.0552 32.0976 34.0456C32.0515 33.9899 32.209 34.2395 32.1898 34.3134C32.1802 34.3508 32.1619 34.3691 32.1159 34.3691C32.0784 34.3873 32.0602 34.3787 32.0419 34.4248C32.0237 34.4622 32.0141 34.4891 31.9776 34.4891C31.9219 34.5073 31.8663 34.4612 31.8394 34.4248C31.7751 34.3326 31.8298 34.203 31.7933 34.0916C31.7837 34.0638 31.7559 34.0177 31.729 33.9899C31.7011 33.9524 31.6368 33.9524 31.5994 33.9524C31.5072 33.9428 31.4237 34.0359 31.3402 33.962C31.2663 33.8977 31.2288 33.8142 31.1923 33.7403C31.1741 33.676 31.1827 33.5646 31.0723 33.5464C30.961 33.5368 30.9341 33.5838 30.9341 33.6664C30.9341 33.6942 30.9437 33.7681 30.9063 33.7864C30.8784 33.796 30.8323 33.7681 30.7949 33.7681C30.7306 33.7681 30.6931 33.8055 30.6653 33.8516C30.6279 33.8977 30.6557 33.9534 30.6192 34.0091C30.5731 34.0552 30.4992 34.0273 30.4618 34.1012C30.4157 34.1752 30.3879 34.2673 30.4618 34.3326C30.4992 34.3787 30.5731 34.444 30.5261 34.5083C30.48 34.5639 30.3965 34.6004 30.36 34.6657C30.3139 34.7579 30.36 34.851 30.3975 34.9249C30.4253 34.9806 30.4714 35.0267 30.4992 35.0824C30.5175 35.1006 30.5453 35.138 30.5453 35.1563C30.5731 35.2302 30.5635 35.3137 30.601 35.3876C30.6106 35.4059 30.6384 35.4337 30.6384 35.4616C30.648 35.5076 30.6567 35.5537 30.6567 35.5912C30.6749 35.6651 30.7123 35.6833 30.7402 35.7294C30.7776 35.7851 30.8045 35.8408 30.8419 35.8955C30.8794 35.9598 30.8698 36.0337 30.888 36.099C30.8976 36.1364 30.8976 36.1633 30.9063 36.1912C30.9245 36.219 30.9341 36.2372 30.9341 36.2555C30.9063 36.3198 30.8506 36.2555 30.8323 36.2372C30.7949 36.2094 30.721 36.1633 30.7027 36.1172C30.6931 36.0798 30.6931 36.0433 30.6749 36.0059C30.6471 35.9502 30.5549 35.978 30.5271 35.9224C30.4992 35.8388 30.5271 35.7467 30.4714 35.6728C30.4253 35.6084 30.3792 35.5432 30.3514 35.4692C30.3139 35.4136 30.2775 35.3675 30.2314 35.3118C30.2035 35.2743 30.1671 35.2475 30.1296 35.21L30.0279 35.1083C30 35.0804 29.9818 35.0526 29.9539 35.0344C29.9261 35.0161 29.8983 34.9787 29.88 34.9604C29.7879 34.8404 29.8061 34.683 29.8061 34.5352C29.8157 34.4238 29.8243 34.323 29.7879 34.2116C29.7504 34.1099 29.7139 34.0081 29.64 33.9256C29.6218 33.916 29.6026 33.8977 29.5843 33.8881C29.5565 33.8603 29.52 33.8507 29.4922 33.8324C29.4643 33.8142 29.4547 33.7768 29.4643 33.7403C29.4547 33.6846 29.52 33.6385 29.5479 33.602C29.5853 33.556 29.6122 33.5003 29.64 33.4446C29.6496 33.4072 29.6583 33.3707 29.6679 33.3524C29.6861 33.2689 29.6957 33.1768 29.6679 33.1028C29.6496 33.0472 29.6496 32.9915 29.6218 32.9454C29.5661 32.8715 29.5104 32.8158 29.4643 32.7419L29.3443 32.4923C29.3261 32.4462 29.3347 32.3809 29.3347 32.3348C29.3443 32.3166 29.3347 32.2792 29.3443 32.2705C29.3539 32.2523 29.3722 32.2523 29.3722 32.2244C29.4096 32.1409 29.3722 32.067 29.3539 31.9931C29.3539 31.9556 29.3635 31.9374 29.3635 31.9009C29.3731 31.8452 29.3539 31.827 29.3357 31.7713C29.3079 31.7339 29.3175 31.707 29.3175 31.6791C29.3271 31.6331 29.2992 31.5956 29.3079 31.5496C29.3165 31.5035 29.3453 31.466 29.3175 31.4113C29.2992 31.347 29.2992 31.2539 29.2618 31.1992C29.2522 31.1809 29.2339 31.1617 29.2157 31.1348C29.0957 30.987 29.0218 30.8852 29.1322 30.7278C29.2618 30.5339 29.0679 30.4504 29.1322 30.34C29.2896 30.3496 29.3539 30.1086 29.4557 30.026C29.5479 29.9521 29.8714 29.9704 29.8714 29.8407L29.6035 29.8964C29.4739 29.8964 29.4461 29.9243 29.3539 29.98C29.2983 30.026 29.2704 30.0913 29.2157 30.146C29.1418 30.2199 29.04 30.2382 29.0122 30.3496C29.0026 30.4052 29.0957 30.5252 29.0496 30.5713C28.9383 30.6635 28.9296 30.4417 28.92 30.4052C28.92 30.2756 28.8922 30.1192 28.8826 29.98C28.8547 29.7304 28.6887 29.5825 28.5408 29.4164C28.4487 29.3243 28.3469 29.2225 28.2634 29.1112C28.2173 29.0468 28.1991 28.9633 28.1155 28.899C28.0599 28.8529 28.0234 28.8068 27.9581 28.7608C27.9207 28.7147 27.8563 28.6686 27.8381 28.6033C27.7824 28.4555 27.8103 28.3259 27.8842 28.1876C27.9024 28.1416 27.8659 28.0676 27.8842 28.0302C27.912 28.0024 27.9485 27.9006 28.0042 27.8641C27.9207 27.9476 27.8007 27.9755 27.7642 28.0763C27.7363 28.1502 27.8381 28.2145 27.7181 28.2884C27.6807 28.3163 27.6442 28.3345 27.6346 28.3806C27.6163 28.418 27.6903 28.4363 27.672 28.4728C27.6346 28.6024 27.5607 28.4728 27.4781 28.5371C27.4224 28.5832 27.4503 28.6667 27.3399 28.6484C27.2563 28.6302 27.2285 28.4449 27.1546 28.5467C27.1085 28.6023 27.2007 28.6763 27.0903 28.7406C27.0067 28.7224 26.8042 28.5553 26.7763 28.6945C26.7485 28.8059 26.9146 28.8059 26.9703 28.898C27.0163 29.0094 26.9328 29.0459 26.8589 29.1102C26.8032 29.1745 26.7754 29.2676 26.6736 29.2859C26.6179 29.2859 26.4423 29.2302 26.3875 29.1841C26.3501 29.1563 26.2954 29.1284 26.2675 29.092C26.1658 28.9624 26.1101 29.0919 26.0179 29.138C25.9162 29.1841 25.7587 29.0919 25.6944 28.9998C25.6109 28.8884 25.6205 28.8145 25.5005 28.732C25.3709 28.6398 25.2144 28.5659 25.1405 28.4267C25.0762 28.2971 25.0848 28.1588 25.0291 28.0388C25.0013 27.9745 24.9552 27.9188 24.8813 27.891C24.7795 27.8632 24.7335 27.9371 24.6691 28.0206C24.5952 28.1128 24.2535 28.3163 24.5213 28.3537C24.6135 28.3633 24.7248 28.2894 24.8074 28.3816C24.9274 28.5198 24.8995 28.7329 24.8813 28.8904C24.8813 28.946 24.8439 29.0478 24.9187 29.066C24.9831 29.0843 25.0301 28.9643 25.0944 28.9825C25.1779 29.0007 25.1779 29.1486 25.1779 29.2043C25.1875 29.2878 25.1962 29.3799 25.2519 29.4443C25.3075 29.5086 25.4093 29.5278 25.4554 29.6017C25.5293 29.6756 25.4928 29.7496 25.4554 29.8513C25.4179 29.9435 25.4093 30.0452 25.3997 30.147C25.3997 30.1844 25.3815 30.2305 25.3815 30.267C25.3815 30.3131 25.4093 30.3313 25.4189 30.3688C25.4467 30.4984 25.3632 30.4801 25.2989 30.5627C25.2528 30.627 25.3085 30.6827 25.3171 30.748C25.3267 30.8593 25.2432 30.8776 25.1875 30.9332C25.1319 30.9889 25.1319 31.0628 25.0579 31.1185C24.9936 31.1646 24.9283 31.1742 24.8727 31.2385C24.817 31.2942 24.8083 31.3499 24.7344 31.3864C24.7248 31.396 24.697 31.3864 24.6787 31.396C24.6605 31.4142 24.6605 31.442 24.6605 31.4516C24.6144 31.4891 24.6327 31.4977 24.5962 31.4516C24.5779 31.4334 24.5779 31.396 24.5587 31.3681C24.5405 31.3038 24.4848 31.3038 24.457 31.276C24.4109 31.2203 24.4291 31.1838 24.4666 31.1377L24.5127 31.0081C24.5223 30.9985 24.5223 30.962 24.5405 30.9438C24.5405 30.9159 24.5587 30.8795 24.5779 30.8516C24.5875 30.8238 24.5962 30.796 24.5962 30.7681C24.5962 30.7499 24.6058 30.7038 24.6144 30.6942C24.624 30.676 24.6605 30.676 24.6701 30.6567C24.6883 30.6193 24.6605 30.5732 24.6605 30.5368C24.6787 30.3985 24.8083 30.3707 24.8362 30.3054C24.8919 30.1854 24.744 30.2219 24.7066 30.1297C24.6691 30.0097 24.7901 29.9176 24.7805 29.788C24.7805 29.6584 24.7709 29.5288 24.7344 29.4001C24.697 29.2984 24.6423 29.1409 24.5223 29.114C24.4762 29.1044 24.3648 29.1697 24.3466 29.0958C24.3283 29.0219 24.4666 28.9662 24.4666 28.8923C24.4666 28.7905 24.3648 28.7348 24.3005 28.6705C24.3101 28.708 24.4119 28.874 24.3283 28.9201C24.2823 29.0123 24.3101 29.0315 24.2083 29.0584C24.097 29.0958 24.097 29.1601 24.2266 29.2158C24.3648 29.2715 24.4387 29.2801 24.3927 29.4376C24.3744 29.5393 24.4023 29.6411 24.4483 29.7332C24.4944 29.8254 24.5962 29.8907 24.6144 29.9828C24.6423 30.0942 24.5309 30.1028 24.4848 30.195C24.4291 30.2689 24.4205 30.3611 24.3552 30.4446C24.2995 30.5281 24.1795 30.5828 24.1517 30.6664C24.1056 30.7585 24.0682 30.7585 24.0317 30.842C23.9856 30.9438 23.9943 30.9995 23.8743 31.0734C23.7543 31.1377 23.6247 31.0552 23.6986 30.916C23.7082 30.8977 23.8282 30.842 23.8003 30.796C23.7725 30.7585 23.6986 30.8238 23.6707 30.8334C23.5968 30.8708 23.569 30.8795 23.4951 30.843C23.5047 30.9073 23.5411 31.0091 23.5133 31.083C23.4672 31.1848 23.328 31.1665 23.2637 31.1108C23.2176 31.0734 23.2176 31.0648 23.1619 31.0465C23.1063 31.0283 23.0141 31.0283 23.0237 30.9822C23.0515 30.9179 23.0055 30.8161 22.9037 30.89C22.8394 30.9361 22.9959 31.0283 22.9959 31.1214C22.9959 31.1771 22.8941 31.2692 22.8576 31.3153C22.8298 31.3432 22.7933 31.371 22.7559 31.3988C22.7098 31.4449 22.6819 31.4824 22.6359 31.5371C22.5802 31.611 22.5437 31.6571 22.5063 31.7588C22.4688 31.8606 22.2941 31.9902 22.2288 31.8328C22.1914 31.7588 22.2384 31.6206 22.2931 31.5553C22.3575 31.491 22.4227 31.5179 22.441 31.4171C22.4592 31.3528 22.5984 31.0935 22.4688 31.1396C22.3767 31.2318 22.3575 31.3153 22.3306 31.4449C22.2845 31.4449 22.2192 31.3892 22.1827 31.3528C22.1184 31.2884 22.0992 31.251 22.1645 31.2049C22.1923 31.1953 22.2019 31.1867 22.2384 31.1675C22.2845 31.1579 22.2941 31.13 22.2845 31.0753C22.2749 31.0379 22.4141 30.8996 22.3123 30.9092C22.2845 30.9188 22.1827 31.0206 22.1463 31.0388C22.0819 31.0849 22.0349 31.1684 21.9984 31.2606C21.9523 31.372 22.008 31.3441 22.0627 31.418C22.081 31.4555 22.1002 31.5841 22.081 31.6302C22.0531 31.612 22.0349 31.5745 22.0071 31.5563C21.9792 31.538 21.9427 31.5563 21.9053 31.5188C21.8871 31.491 21.8679 31.4075 21.8592 31.371C21.8131 31.1771 21.8496 31.011 21.8592 30.8161C21.7114 30.7979 21.7479 30.89 21.6931 30.9918C21.6653 30.9457 21.6749 30.8718 21.6557 30.8257" fill="#FCEE23"/>
<path d="M26.1159 30.0404C26.1063 30.0961 26.1341 30.1518 26.1341 30.2065C26.1437 30.2439 26.1341 30.2987 26.1437 30.3447C26.1437 30.4091 26.1994 30.4647 26.2359 30.5204C26.3098 30.6318 26.2733 30.77 26.2637 30.8996C26.2359 31.0292 26.1898 31.1588 26.0976 31.251C26.0698 31.2884 26.0333 31.3153 26.0141 31.3431C25.9767 31.371 25.9498 31.371 25.9124 31.3806C25.8567 31.3988 25.7924 31.4727 25.7463 31.5102C25.7088 31.538 25.6906 31.5476 25.6445 31.538C25.6349 31.5102 25.6349 31.4823 25.6445 31.4545C25.6445 31.3988 25.6349 31.3067 25.6628 31.2606C25.6906 31.1963 25.7549 31.1492 25.7828 31.0849C25.8202 31.0292 25.8471 30.9735 25.8663 30.8996C25.8759 30.8439 25.8759 30.7796 25.8845 30.7239V30.6596C25.8941 30.53 25.8749 30.41 25.8941 30.2804C25.9037 30.1787 25.9776 29.9751 26.1159 30.0404Z" fill="#FCEE23"/>
<path d="M27.3081 29.7448C27.2707 29.7908 27.262 29.8091 27.2707 29.8648C27.2803 29.9291 27.2707 29.9291 27.2332 29.9848C27.215 30.0308 27.2236 30.0769 27.2707 30.123C27.3264 30.1604 27.4185 30.1412 27.4185 30.2344V30.3083C27.4368 30.3361 27.456 30.3544 27.4646 30.3918C27.4742 30.4196 27.4646 30.5675 27.5107 30.5579C27.5385 30.5579 27.5385 30.5204 27.5385 30.4936C27.5664 30.4475 27.6124 30.4561 27.6681 30.4657C27.7142 30.4753 27.7238 30.484 27.742 30.4475C27.7603 30.41 27.7603 30.3553 27.7516 30.3179C27.742 30.29 27.7238 30.2622 27.7238 30.2257C27.7238 30.2075 27.742 30.1796 27.742 30.1422C27.742 30.0587 27.696 29.9944 27.622 29.9569C27.5203 29.9195 27.5299 29.8091 27.4924 29.7256C27.4828 29.6699 27.455 29.596 27.4089 29.5681C27.3993 29.6056 27.4185 29.6516 27.3993 29.6795C27.3897 29.7073 27.3436 29.7256 27.335 29.7534L27.3072 29.7438L27.3081 29.7448Z" fill="#FCEE23"/>
</g>
<defs>
<clipPath id="clip0_79_3849">
<rect width="48" height="48" fill="white"/>
</clipPath>
</defs>
</svg>

