<svg width="48" height="48" viewBox="0 0 48 48" fill="none" xmlns="http://www.w3.org/2000/svg">
<rect x="0.5" y="0.5" width="47" height="47" rx="4.3" fill="white"/>
<rect x="0.5" y="0.5" width="47" height="47" rx="4.3" stroke="#DC3545"/>
<g clip-path="url(#clip0_69_125847)">
<rect width="24" height="24" transform="translate(12 12)" fill="white" fill-opacity="0.01"/>
<path d="M20.2529 20.2511C20.4518 20.2511 20.6426 20.3301 20.7833 20.4708C20.9239 20.6114 21.0029 20.8022 21.0029 21.0011V30.0011C21.0029 30.2 20.9239 30.3908 20.7833 30.5314C20.6426 30.6721 20.4518 30.7511 20.2529 30.7511C20.054 30.7511 19.8633 30.6721 19.7226 30.5314C19.5819 30.3908 19.5029 30.2 19.5029 30.0011V21.0011C19.5029 20.8022 19.5819 20.6114 19.7226 20.4708C19.8633 20.3301 20.054 20.2511 20.2529 20.2511ZM24.0029 20.2511C24.2018 20.2511 24.3926 20.3301 24.5333 20.4708C24.6739 20.6114 24.7529 20.8022 24.7529 21.0011V30.0011C24.7529 30.2 24.6739 30.3908 24.5333 30.5314C24.3926 30.6721 24.2018 30.7511 24.0029 30.7511C23.804 30.7511 23.6133 30.6721 23.4726 30.5314C23.3319 30.3908 23.2529 30.2 23.2529 30.0011V21.0011C23.2529 20.8022 23.3319 20.6114 23.4726 20.4708C23.6133 20.3301 23.804 20.2511 24.0029 20.2511ZM28.5029 21.0011C28.5029 20.8022 28.4239 20.6114 28.2833 20.4708C28.1426 20.3301 27.9518 20.2511 27.7529 20.2511C27.554 20.2511 27.3633 20.3301 27.2226 20.4708C27.0819 20.6114 27.0029 20.8022 27.0029 21.0011V30.0011C27.0029 30.2 27.0819 30.3908 27.2226 30.5314C27.3633 30.6721 27.554 30.7511 27.7529 30.7511C27.9518 30.7511 28.1426 30.6721 28.2833 30.5314C28.4239 30.3908 28.5029 30.2 28.5029 30.0011V21.0011Z" fill="#DC3545"/>
<path fill-rule="evenodd" clip-rule="evenodd" d="M33.7529 16.5011C33.7529 16.8989 33.5949 17.2805 33.3136 17.5618C33.0323 17.8431 32.6508 18.0011 32.2529 18.0011H31.5029V31.5011C31.5029 32.2967 31.1869 33.0598 30.6242 33.6224C30.0616 34.185 29.2986 34.5011 28.5029 34.5011H19.5029C18.7073 34.5011 17.9442 34.185 17.3816 33.6224C16.819 33.0598 16.5029 32.2967 16.5029 31.5011V18.0011H15.7529C15.3551 18.0011 14.9736 17.8431 14.6923 17.5618C14.411 17.2805 14.2529 16.8989 14.2529 16.5011V15.0011C14.2529 14.6033 14.411 14.2217 14.6923 13.9404C14.9736 13.6591 15.3551 13.5011 15.7529 13.5011H21.0029C21.0029 13.1033 21.161 12.7217 21.4423 12.4404C21.7236 12.1591 22.1051 12.0011 22.5029 12.0011H25.5029C25.9008 12.0011 26.2823 12.1591 26.5636 12.4404C26.8449 12.7217 27.0029 13.1033 27.0029 13.5011H32.2529C32.6508 13.5011 33.0323 13.6591 33.3136 13.9404C33.5949 14.2217 33.7529 14.6033 33.7529 15.0011V16.5011ZM18.1799 18.0011L18.0029 18.0896V31.5011C18.0029 31.8989 18.161 32.2805 18.4423 32.5618C18.7236 32.8431 19.1051 33.0011 19.5029 33.0011H28.5029C28.9008 33.0011 29.2823 32.8431 29.5636 32.5618C29.8449 32.2805 30.0029 31.8989 30.0029 31.5011V18.0896L29.8259 18.0011H18.1799ZM15.7529 16.5011V15.0011H32.2529V16.5011H15.7529Z" fill="#DC3545"/>
</g>
<defs>
<clipPath id="clip0_69_125847">
<rect width="24" height="24" fill="white" transform="translate(12 12)"/>
</clipPath>
</defs>
</svg>
