<svg width="12" height="12" viewBox="0 0 12 12" fill="none" xmlns="http://www.w3.org/2000/svg">
<path fill-rule="evenodd" clip-rule="evenodd" d="M8.51513 1.23371C8.55006 1.26854 8.57776 1.30992 8.59667 1.35548C8.61557 1.40104 8.6253 1.44988 8.6253 1.49921C8.6253 1.54853 8.61557 1.59737 8.59667 1.64293C8.57776 1.68849 8.55006 1.72987 8.51513 1.76471L4.27988 5.99921L8.51513 10.2337C8.58555 10.3041 8.62511 10.3996 8.62511 10.4992C8.62511 10.5988 8.58555 10.6943 8.51513 10.7647C8.44472 10.8351 8.34921 10.8747 8.24963 10.8747C8.15005 10.8747 8.05455 10.8351 7.98413 10.7647L3.48413 6.26471C3.44921 6.22987 3.4215 6.18849 3.4026 6.14293C3.38369 6.09737 3.37396 6.04853 3.37396 5.99921C3.37396 5.94988 3.38369 5.90104 3.4026 5.85548C3.4215 5.80992 3.44921 5.76854 3.48413 5.73371L7.98413 1.23371C8.01897 1.19878 8.06035 1.17108 8.10591 1.15217C8.15147 1.13327 8.20031 1.12354 8.24963 1.12354C8.29896 1.12354 8.3478 1.13327 8.39336 1.15217C8.43892 1.17108 8.4803 1.19878 8.51513 1.23371Z" fill="#0D6EFD"/>
</svg>
