<svg width="48" height="48" viewBox="0 0 48 48" fill="none" xmlns="http://www.w3.org/2000/svg">
<g clip-path="url(#clip0_361_8656)">
<path d="M40.4475 0H7.55251C3.38138 0 0 3.38138 0 7.55251V40.4475C0 44.6186 3.38138 48 7.55251 48H40.4475C44.6186 48 48 44.6186 48 40.4475V7.55251C48 3.38138 44.6186 0 40.4475 0Z" fill="#0A58CA"/>
<path d="M23.9369 35.713C29.6518 35.713 34.2847 31.0802 34.2847 25.3653C34.2847 19.6504 29.6518 15.0176 23.9369 15.0176C18.2221 15.0176 13.5892 19.6504 13.5892 25.3653C13.5892 31.0802 18.2221 35.713 23.9369 35.713Z" fill="white"/>
<path d="M33.3657 40.1504C34.7969 40.1504 35.9571 38.9903 35.9571 37.5591C35.9571 36.128 34.7969 34.9678 33.3657 34.9678C31.9346 34.9678 30.7744 36.128 30.7744 37.5591C30.7744 38.9903 31.9346 40.1504 33.3657 40.1504Z" fill="white"/>
<path d="M15.3675 40.5372C16.7986 40.5372 17.9588 39.377 17.9588 37.9458C17.9588 36.5147 16.7986 35.3545 15.3675 35.3545C13.9363 35.3545 12.7761 36.5147 12.7761 37.9458C12.7761 39.377 13.9363 40.5372 15.3675 40.5372Z" fill="white"/>
<path d="M9.43936 23.5381C10.8705 23.5381 12.0307 22.378 12.0307 20.9468C12.0307 19.5156 10.8705 18.3555 9.43936 18.3555C8.0082 18.3555 6.84802 19.5156 6.84802 20.9468C6.84802 22.378 8.0082 23.5381 9.43936 23.5381Z" fill="white"/>
<path d="M23.9369 12.6475C25.3681 12.6475 26.5282 11.4873 26.5282 10.0562C26.5282 8.62502 25.3681 7.46484 23.9369 7.46484C22.5058 7.46484 21.3456 8.62502 21.3456 10.0562C21.3456 11.4873 22.5058 12.6475 23.9369 12.6475Z" fill="white"/>
<path d="M38.5607 22.9141C39.9918 22.9141 41.152 21.7539 41.152 20.3228C41.152 18.8916 39.9918 17.7314 38.5607 17.7314C37.1295 17.7314 35.9694 18.8916 35.9694 20.3228C35.9694 21.7539 37.1295 22.9141 38.5607 22.9141Z" fill="white"/>
<path d="M19.7814 27.5051C19.7581 27.0222 19.8694 26.5609 20.0273 26.1104C20.6915 24.2256 21.7165 22.5257 22.7612 20.8365C23.0556 20.3608 23.3805 19.9049 23.6677 19.4256C23.8562 19.1133 23.9962 19.1079 24.1954 19.4113C25.0211 20.675 25.8181 21.953 26.5433 23.2778C27.0406 24.1861 27.4929 25.1141 27.8376 26.0924C28.394 27.6828 28.0404 29.1081 26.897 30.2605C25.6638 31.5009 24.1272 31.8814 22.4596 31.2244C20.8674 30.5962 19.9681 29.3899 19.7958 27.6703C19.7904 27.6146 19.7868 27.559 19.7832 27.5033L19.7814 27.5051Z" fill="#0A58CA"/>
</g>
<defs>
<clipPath id="clip0_361_8656">
<rect width="48" height="48" fill="white"/>
</clipPath>
</defs>
</svg>
