<svg width="48" height="48" viewBox="0 0 48 48" fill="none" xmlns="http://www.w3.org/2000/svg">
<g clip-path="url(#clip0_488_29476)">
<path d="M40.4475 0H7.55251C3.38138 0 0 3.38138 0 7.55251V40.4475C0 44.6186 3.38138 48 7.55251 48H40.4475C44.6186 48 48 44.6186 48 40.4475V7.55251C48 3.38138 44.6186 0 40.4475 0Z" fill="#0A58CA"/>
<path d="M23.9371 35.713C29.652 35.713 34.2848 31.0802 34.2848 25.3653C34.2848 19.6504 29.652 15.0176 23.9371 15.0176C18.2222 15.0176 13.5894 19.6504 13.5894 25.3653C13.5894 31.0802 18.2222 35.713 23.9371 35.713Z" fill="white"/>
<path d="M33.3657 40.1504C34.7969 40.1504 35.9571 38.9903 35.9571 37.5591C35.9571 36.128 34.7969 34.9678 33.3657 34.9678C31.9346 34.9678 30.7744 36.128 30.7744 37.5591C30.7744 38.9903 31.9346 40.1504 33.3657 40.1504Z" fill="white"/>
<path d="M15.3675 40.5367C16.7986 40.5367 17.9588 39.3765 17.9588 37.9453C17.9588 36.5142 16.7986 35.354 15.3675 35.354C13.9363 35.354 12.7761 36.5142 12.7761 37.9453C12.7761 39.3765 13.9363 40.5367 15.3675 40.5367Z" fill="white"/>
<path d="M9.43923 23.5384C10.8704 23.5384 12.0306 22.3782 12.0306 20.947C12.0306 19.5159 10.8704 18.3557 9.43923 18.3557C8.00808 18.3557 6.8479 19.5159 6.8479 20.947C6.8479 22.3782 8.00808 23.5384 9.43923 23.5384Z" fill="white"/>
<path d="M23.937 12.6473C25.3682 12.6473 26.5284 11.4871 26.5284 10.0559C26.5284 8.62478 25.3682 7.4646 23.937 7.4646C22.5059 7.4646 21.3457 8.62478 21.3457 10.0559C21.3457 11.4871 22.5059 12.6473 23.937 12.6473Z" fill="white"/>
<path d="M38.5606 22.9136C39.9917 22.9136 41.1519 21.7534 41.1519 20.3223C41.1519 18.8911 39.9917 17.731 38.5606 17.731C37.1294 17.731 35.9692 18.8911 35.9692 20.3223C35.9692 21.7534 37.1294 22.9136 38.5606 22.9136Z" fill="white"/>
<path d="M19.7814 27.5051C19.7581 27.0222 19.8694 26.5609 20.0273 26.1104C20.6915 24.2256 21.7165 22.5257 22.7612 20.8365C23.0556 20.3608 23.3805 19.9049 23.6677 19.4256C23.8562 19.1133 23.9962 19.1079 24.1954 19.4113C25.0211 20.675 25.8181 21.953 26.5433 23.2778C27.0406 24.1861 27.4929 25.1141 27.8376 26.0924C28.394 27.6828 28.0404 29.1081 26.897 30.2605C25.6638 31.5009 24.1272 31.8814 22.4596 31.2244C20.8674 30.5962 19.9681 29.3899 19.7958 27.6703C19.7904 27.6146 19.7868 27.559 19.7832 27.5033L19.7814 27.5051Z" fill="#0A58CA"/>
</g>
<defs>
<clipPath id="clip0_488_29476">
<rect width="48" height="48" fill="white"/>
</clipPath>
</defs>
</svg>
