<svg width="12" height="12" viewBox="0 0 12 12" fill="none" xmlns="http://www.w3.org/2000/svg">
<g clip-path="url(#clip0_425_10046)">
<rect width="12" height="12" fill="white" fill-opacity="0.01"/>
<path fill-rule="evenodd" clip-rule="evenodd" d="M3.48413 1.23371C3.51897 1.19878 3.56035 1.17108 3.60591 1.15217C3.65147 1.13327 3.70031 1.12354 3.74963 1.12354C3.79896 1.12354 3.8478 1.13327 3.89336 1.15217C3.93892 1.17108 3.9803 1.19878 4.01513 1.23371L8.51513 5.73371C8.55006 5.76854 8.57776 5.80992 8.59667 5.85548C8.61557 5.90104 8.6253 5.94988 8.6253 5.99921C8.6253 6.04853 8.61557 6.09737 8.59667 6.14293C8.57776 6.18849 8.55006 6.22987 8.51513 6.26471L4.01513 10.7647C3.94472 10.8351 3.84921 10.8747 3.74963 10.8747C3.65005 10.8747 3.55455 10.8351 3.48413 10.7647C3.41372 10.6943 3.37416 10.5988 3.37416 10.4992C3.37416 10.3996 3.41372 10.3041 3.48413 10.2337L7.71938 5.99921L3.48413 1.76471C3.44921 1.72987 3.4215 1.68849 3.4026 1.64293C3.38369 1.59737 3.37396 1.54853 3.37396 1.49921C3.37396 1.44988 3.38369 1.40104 3.4026 1.35548C3.4215 1.30992 3.44921 1.26854 3.48413 1.23371Z" fill="#0D6EFD"/>
</g>
<defs>
<clipPath id="clip0_425_10046">
<rect width="12" height="12" fill="white"/>
</clipPath>
</defs>
</svg>
