<svg width="270" height="63" viewBox="0 0 270 63" fill="none" xmlns="http://www.w3.org/2000/svg">
<path d="M120.678 22.8792V22.5141C121.212 22.5141 121.581 22.366 121.784 22.0691C121.988 21.7721 122.09 21.2558 122.09 20.5185V12.6768C122.09 11.926 121.988 11.404 121.784 11.111C121.581 10.8181 121.212 10.6708 120.678 10.6708V10.3065H126.44C128.569 10.3065 130.272 10.9173 131.549 12.1389C132.826 13.3604 133.464 14.915 133.464 16.801C133.464 18.687 132.859 20.127 131.65 21.2277C130.44 22.3276 128.757 22.8784 126.598 22.8784H120.678V22.8792ZM126.105 10.7893H123.737V20.071C123.737 20.9644 123.843 21.5751 124.055 21.9034C124.267 22.2324 124.692 22.3965 125.33 22.3965H126.614C128.143 22.3965 129.347 21.8978 130.226 20.9019C131.103 19.9053 131.542 18.5461 131.542 16.8234C131.542 14.9943 131.062 13.5318 130.103 12.4351C129.143 11.3384 127.81 10.7901 126.105 10.7901V10.7893Z" fill="#6C757D"/>
<path d="M139.995 10.5181H140.423V13.5327H139.97C139.865 12.6994 139.51 12.0494 138.901 11.5811C138.292 11.1136 137.526 10.8799 136.603 10.8799C135.783 10.8799 135.123 11.0552 134.622 11.4058C134.121 11.7564 133.871 12.2239 133.871 12.8091C133.871 13.3502 134.079 13.8433 134.493 14.2892C134.906 14.7351 135.805 15.3083 137.185 16.0103C138.79 16.8212 139.869 17.5304 140.422 18.1372C140.974 18.744 141.25 19.438 141.25 20.2201C141.25 21.2287 140.828 22.0909 139.984 22.8073C139.139 23.5238 138.123 23.8816 136.933 23.8816C136.244 23.8816 135.364 23.7207 134.296 23.3989C133.857 23.2676 133.577 23.202 133.457 23.202C133.206 23.202 133.012 23.3661 132.875 23.6951H132.422V20.2193H132.875C132.884 21.1767 133.252 21.9444 133.98 22.5215C134.708 23.0987 135.558 23.3877 136.531 23.3877C137.454 23.3877 138.192 23.1795 138.748 22.7625C139.304 22.3454 139.581 21.7899 139.581 21.095C139.581 20.5755 139.353 20.0784 138.897 19.6029C138.44 19.1274 137.486 18.5142 136.034 17.7642C134.85 17.1454 134.06 16.6563 133.664 16.2977C133.268 15.9398 132.975 15.5468 132.785 15.1185C132.595 14.6911 132.501 14.2212 132.501 13.7089C132.501 12.7218 132.883 11.9205 133.646 11.3066C134.41 10.6926 135.404 10.3852 136.63 10.3852C137.303 10.3852 138.037 10.4989 138.83 10.7246C139.201 10.8271 139.46 10.8783 139.608 10.8783C139.729 10.8783 139.81 10.8567 139.853 10.8127C139.896 10.7686 139.944 10.6702 139.996 10.5165L139.995 10.5181Z" fill="#6C757D"/>
<path d="M141.489 28.8885C140.538 29.1735 139.942 28.9117 139.699 28.1032C139.5 27.442 139.732 25.9107 140.394 23.5084C141.304 20.3512 142.234 17.1876 143.184 14.0185C143.122 13.9568 143.044 13.9104 142.948 13.8784C142.852 13.848 142.779 13.8191 142.729 13.7943C142.292 13.9256 141.726 14.3755 141.028 15.1456C140.33 15.9164 139.818 16.5512 139.492 17.0483L138.937 16.4944C139.9 15.244 140.659 14.3162 141.212 13.7087C142.357 12.4847 143.305 11.7595 144.058 11.5329C144.93 11.272 145.482 11.5265 145.714 12.2982C145.912 12.9602 145.359 15.3289 144.054 19.4058C142.751 23.4827 142.159 25.7233 142.28 26.1268C142.358 26.3845 142.554 26.4654 142.871 26.3701C143.347 26.2277 143.933 25.7313 144.628 24.882C144.947 24.5066 145.409 23.8878 146.015 23.0241L146.57 23.5788C145.833 24.7219 145.096 25.7233 144.362 26.5847C143.279 27.8703 142.321 28.6395 141.489 28.8885H141.489Z" fill="#6C757D"/>
<mask id="mask0_152_6702" style="mask-type:luminance" maskUnits="userSpaceOnUse" x="142" y="0" width="11" height="11">
<path d="M152.724 5.51083C152.724 8.47107 150.323 10.8718 147.363 10.8718C144.403 10.8718 142.002 8.47107 142.002 5.51083C142.002 2.55059 144.402 0.149902 147.363 0.149902C150.324 0.149902 152.724 2.54979 152.724 5.51083Z" fill="white"/>
</mask>
<g mask="url(#mask0_152_6702)">
<path d="M152.724 0.149902H142.002V10.8718H152.724V0.149902Z" fill="#6C757D"/>
<path d="M152.587 6.71647C153.186 4.12021 151.333 1.47561 148.449 0.809582C145.564 0.143555 142.739 1.70832 142.14 4.30458C141.54 6.90084 143.393 9.54544 146.278 10.2115C149.163 10.8775 151.987 9.31273 152.587 6.71647Z" fill="#6C757D"/>
<path d="M149.974 6.11339C150.274 4.81504 149.348 3.49261 147.906 3.15964C146.464 2.82668 145.051 3.60928 144.752 4.90762C144.452 6.20597 145.378 7.5284 146.82 7.86137C148.263 8.19433 149.675 7.41174 149.974 6.11339Z" fill="#6C757D"/>
</g>
<mask id="path-8-outside-1_152_6702" maskUnits="userSpaceOnUse" x="108.4" y="6.54898" width="53" height="20" fill="black">
<rect fill="white" x="108.4" y="6.54898" width="53" height="20"/>
<path d="M160.556 9.15798C160.258 8.13334 158.492 7.61542 155.725 7.54898C155.73 7.55218 155.735 7.55538 155.74 7.55859C155.752 7.55859 155.764 7.56019 155.775 7.56019C155.798 7.55859 155.82 7.55699 155.843 7.55699C155.894 7.55699 155.944 7.56099 155.991 7.56659C156.003 7.56659 156.015 7.56419 156.028 7.56419C156.091 7.56419 156.151 7.56979 156.208 7.5786C156.248 7.5786 156.288 7.581 156.326 7.585C156.388 7.585 156.445 7.59061 156.501 7.59861C156.523 7.60101 156.544 7.60421 156.564 7.60822C156.567 7.60822 156.57 7.60902 156.572 7.60982C156.596 7.61382 156.62 7.61782 156.643 7.62343C156.699 7.62743 156.753 7.63623 156.804 7.64744C156.886 7.64904 156.961 7.66265 157.033 7.67946C157.108 7.68587 157.177 7.70188 157.243 7.72029C157.29 7.72429 157.335 7.73149 157.377 7.7411C157.434 7.7483 157.487 7.75871 157.539 7.77232C157.614 7.78112 157.685 7.79553 157.751 7.81795C158.434 7.902 159.132 8.2294 159.481 8.78975C159.719 9.17319 159.654 9.65989 159.393 10.0041C159.332 10.1546 159.24 10.2947 159.125 10.4204C159.064 10.5316 158.984 10.6317 158.884 10.7141C158.855 10.747 158.825 10.7782 158.791 10.8054C158.723 10.9079 158.638 10.9991 158.534 11.072C158.481 11.1416 158.42 11.2049 158.348 11.2593C158.17 11.4866 157.935 11.6795 157.694 11.8533C156.996 12.4768 156.183 13.034 155.329 13.4735C155.28 13.5055 155.225 13.5335 155.167 13.5567C155.159 13.5607 155.15 13.5647 155.142 13.5687C155.079 13.616 155.011 13.656 154.935 13.6888C154.276 14.0914 153.514 14.5085 152.719 14.8447C152.713 14.8487 152.708 14.8535 152.702 14.8575C152.631 14.8999 152.556 14.936 152.481 14.9696C152.483 14.9688 152.484 14.968 152.487 14.9672C152.483 14.9688 152.48 14.9704 152.477 14.972C152.471 14.9752 152.463 14.9784 152.456 14.9816C152.264 15.0681 152.073 15.1569 151.878 15.2386C151.878 15.2394 151.876 15.2402 151.875 15.2402C151.926 15.2185 151.977 15.1969 152.028 15.1753C151.959 15.2057 151.894 15.2426 151.826 15.2746C151.824 15.2762 151.821 15.2762 151.82 15.2778C151.796 15.293 151.774 15.313 151.748 15.3266C151.658 15.3722 151.565 15.4115 151.472 15.4507C151.433 15.4747 151.392 15.4955 151.348 15.5147C151.305 15.5371 151.26 15.5572 151.213 15.5732C151.171 15.5964 151.124 15.6148 151.077 15.6324C151.071 15.6348 151.063 15.638 151.057 15.6404C151.055 15.6404 151.055 15.642 151.052 15.6428C151.047 15.6452 151.04 15.6484 151.034 15.6508C151.025 15.6548 151.016 15.6588 151.007 15.6628C150.957 15.6932 150.903 15.7181 150.845 15.7397C150.833 15.7453 150.822 15.7517 150.81 15.7565C150.789 15.7669 150.769 15.7789 150.746 15.7869C150.733 15.7957 150.719 15.8053 150.704 15.8133C150.389 15.9774 150.065 16.1063 149.737 16.2216C149.636 16.2976 149.515 16.3537 149.377 16.3873C149.338 16.4113 149.297 16.4321 149.253 16.4505C149.176 16.4969 149.088 16.5314 148.993 16.5562C148.928 16.5954 148.857 16.6266 148.781 16.6506C148.747 16.6658 148.712 16.6795 148.675 16.6907C148.672 16.6923 148.668 16.6931 148.665 16.6939C148.611 16.7235 148.554 16.7491 148.491 16.7683C148.438 16.7947 148.381 16.8187 148.32 16.8356C148.315 16.838 148.308 16.8396 148.302 16.842C148.228 16.89 148.142 16.9252 148.05 16.9524C147.98 16.9908 147.902 17.0213 147.818 17.0429C147.778 17.0629 147.739 17.0821 147.695 17.0965C147.633 17.1277 147.568 17.1558 147.496 17.1742C147.428 17.2126 147.355 17.243 147.274 17.2662C147.243 17.2782 147.213 17.2902 147.181 17.3006C147.146 17.3159 147.109 17.3287 147.071 17.3399C147.021 17.3639 146.971 17.3879 146.916 17.4055C146.881 17.4215 146.843 17.4359 146.805 17.4487C146.754 17.4759 146.702 17.5008 146.645 17.5192C146.564 17.5672 146.47 17.6008 146.369 17.6248C146.345 17.6352 146.32 17.6433 146.295 17.6513C146.268 17.6633 146.242 17.6745 146.215 17.6849C146.129 17.7345 146.034 17.7737 145.927 17.7961C145.866 17.8258 145.801 17.8506 145.73 17.8682C145.67 17.8978 145.606 17.9218 145.538 17.9402C145.5 17.9594 145.46 17.9755 145.418 17.9891C145.365 18.0179 145.306 18.0403 145.245 18.0587C145.172 18.0971 145.091 18.1276 145.004 18.1476C144.953 18.1684 144.901 18.1868 144.844 18.2004C144.83 18.2052 144.816 18.2108 144.802 18.2156C144.764 18.2324 144.727 18.2492 144.685 18.2604C144.678 18.2644 144.667 18.266 144.659 18.27C144.658 18.2708 144.655 18.2716 144.654 18.2724C144.574 18.3173 144.484 18.3525 144.385 18.3749C144.306 18.4189 144.219 18.4542 144.122 18.4766C144.061 18.5022 143.997 18.5246 143.927 18.539C143.849 18.5822 143.76 18.6119 143.665 18.6343C143.584 18.6767 143.493 18.7103 143.393 18.7303C143.373 18.7399 143.353 18.7503 143.331 18.7599C143.246 18.8056 143.15 18.8408 143.045 18.8616C142.991 18.8864 142.937 18.9088 142.876 18.9241C142.809 18.9545 142.735 18.9793 142.656 18.9961C142.623 19.0081 142.589 19.0193 142.554 19.0289C142.464 19.0801 142.364 19.1186 142.252 19.141C142.204 19.1634 142.154 19.181 142.101 19.1962C142.066 19.2114 142.028 19.2242 141.99 19.2354C141.907 19.2747 141.812 19.2995 141.71 19.3155C141.704 19.3179 141.696 19.3195 141.69 19.3227C141.638 19.3467 141.582 19.3667 141.524 19.3827C141.512 19.3875 141.5 19.3931 141.488 19.3979C141.488 19.3979 141.488 19.3987 141.489 19.3995C141.481 19.4011 141.473 19.4043 141.466 19.4059C141.338 19.4572 141.209 19.4972 141.076 19.5284C140.985 19.5789 140.882 19.6157 140.767 19.6365C140.689 19.6693 140.607 19.6973 140.514 19.7109C140.462 19.7302 140.407 19.7462 140.349 19.7574C140.289 19.7902 140.221 19.8142 140.151 19.8342C140.065 19.8782 139.968 19.9071 139.864 19.9271C139.782 19.9687 139.691 19.9999 139.591 20.0191C139.579 20.0231 139.565 20.0247 139.554 20.0279C139.471 20.0688 139.379 20.0984 139.278 20.1168C139.212 20.1432 139.144 20.1664 139.067 20.1792C138.986 20.2177 138.894 20.2457 138.795 20.2625C138.769 20.2729 138.743 20.2809 138.717 20.2897C138.64 20.3257 138.554 20.3521 138.461 20.3689C138.384 20.4018 138.304 20.4282 138.214 20.4418C138.179 20.4562 138.142 20.4642 138.106 20.4746C138.035 20.509 137.954 20.5338 137.87 20.5515C137.765 20.6059 137.645 20.6443 137.509 20.6603C137.494 20.6667 137.479 20.6707 137.464 20.6771C137.385 20.7132 137.298 20.7388 137.204 20.754C137.107 20.7988 137.001 20.8324 136.88 20.846C136.78 20.8965 136.666 20.9309 136.539 20.9469C136.478 20.9741 136.412 20.9933 136.341 21.0085C136.298 21.0286 136.251 21.0446 136.202 21.0566C136.119 21.0934 136.027 21.119 135.926 21.1334C135.877 21.1478 135.826 21.159 135.772 21.167C135.707 21.1935 135.636 21.2127 135.561 21.2271C135.473 21.2679 135.374 21.2967 135.265 21.3119C135.214 21.3311 135.161 21.3472 135.104 21.3584C135.011 21.3992 134.908 21.4272 134.793 21.44C134.719 21.4688 134.641 21.492 134.555 21.5041C134.529 21.5145 134.502 21.5217 134.476 21.5305C134.387 21.5721 134.286 21.5985 134.177 21.6137C134.114 21.6369 134.045 21.6537 133.972 21.665C133.97 21.665 133.969 21.6658 133.967 21.6666C133.875 21.7106 133.773 21.7418 133.66 21.757C133.57 21.7946 133.474 21.8243 133.365 21.8363C133.3 21.8595 133.23 21.8763 133.156 21.8883C133.106 21.9083 133.051 21.9243 132.995 21.9379C132.938 21.9547 132.878 21.9675 132.814 21.9763C132.748 22.0028 132.677 22.0236 132.6 22.0372C132.581 22.0444 132.559 22.0476 132.538 22.0524C132.473 22.0772 132.403 22.0964 132.328 22.1084C131.652 22.3462 130.934 22.4887 130.227 22.6255C130.186 22.6368 130.143 22.6456 130.099 22.652C130.045 22.668 129.99 22.6816 129.929 22.6888C129.919 22.692 129.91 22.6944 129.901 22.6968C129.853 22.7152 129.801 22.7296 129.748 22.7408C129.718 22.7504 129.685 22.7536 129.653 22.7608C129.587 22.7864 129.516 22.8065 129.44 22.8193C129.396 22.8353 129.352 22.8489 129.301 22.8585C129.242 22.8697 129.183 22.8817 129.123 22.8937C129.062 22.9145 128.994 22.9297 128.923 22.9393C128.866 22.9554 128.806 22.969 128.742 22.9762C128.721 22.981 128.702 22.9882 128.679 22.9922C128.616 23.0122 128.55 23.0298 128.479 23.0386C128.417 23.0578 128.353 23.0738 128.284 23.0826C128.216 23.1042 128.144 23.1211 128.064 23.1283C128.01 23.1443 127.951 23.1563 127.891 23.1643C127.87 23.1699 127.847 23.1723 127.827 23.1763C127.765 23.1971 127.699 23.2123 127.63 23.2219C127.596 23.2315 127.558 23.2347 127.522 23.2411C127.498 23.2483 127.47 23.2499 127.446 23.2555C127.422 23.2635 127.392 23.2659 127.365 23.2716C127.289 23.298 127.207 23.3164 127.118 23.3252C126.932 23.3684 126.744 23.4116 126.555 23.4429C126.552 23.4429 126.55 23.4437 126.547 23.4445C126.543 23.4445 126.539 23.4461 126.535 23.4469C126.504 23.4541 126.471 23.4589 126.438 23.4645C126.374 23.4877 126.304 23.5013 126.231 23.5109C126.197 23.5189 126.16 23.5245 126.122 23.5293C126.074 23.5421 126.024 23.5525 125.971 23.5589C125.958 23.5621 125.945 23.5653 125.932 23.5685C125.855 23.5958 125.769 23.6126 125.679 23.6214C125.624 23.6358 125.565 23.6462 125.504 23.6518C125.476 23.6574 125.45 23.6654 125.42 23.6694C125.376 23.679 125.331 23.687 125.283 23.6926C125.262 23.6982 125.242 23.7046 125.219 23.7078H125.218C125.155 23.7254 125.088 23.7382 125.017 23.7438C124.99 23.7502 124.958 23.7526 124.93 23.7575C124.928 23.7575 124.927 23.7575 124.926 23.7583C124.855 23.7799 124.779 23.7959 124.698 23.8031C124.637 23.8207 124.57 23.8327 124.501 23.8399C124.449 23.8535 124.392 23.8607 124.335 23.8663C124.292 23.8783 124.246 23.8871 124.2 23.8935C124.179 23.8983 124.155 23.8991 124.133 23.9031C124.056 23.9248 123.974 23.9376 123.885 23.9424C123.786 23.9688 123.686 23.9888 123.581 23.9968C123.512 24.0152 123.439 24.0272 123.361 24.0328C123.333 24.04 123.305 24.048 123.275 24.0528C123.246 24.0592 123.214 24.0608 123.184 24.0648C123.168 24.0688 123.149 24.0696 123.133 24.0736C123.005 24.1001 122.877 24.1209 122.75 24.1353C122.715 24.1441 122.676 24.1465 122.639 24.1521C122.593 24.1625 122.545 24.1697 122.494 24.1745C122.449 24.1833 122.404 24.1921 122.355 24.1961C122.325 24.2009 122.295 24.2065 122.263 24.2089C122.246 24.2129 122.225 24.2145 122.207 24.2177C122.203 24.2185 122.199 24.2185 122.196 24.2193C122.163 24.2249 122.131 24.2321 122.097 24.2353C122.083 24.2378 122.068 24.2402 122.054 24.2418C122.053 24.2418 122.051 24.2426 122.049 24.2426C122.045 24.2442 122.039 24.2442 122.034 24.245C122.011 24.2482 121.989 24.2522 121.965 24.2546C121.941 24.2578 121.92 24.2626 121.896 24.2642H121.896C121.882 24.2658 121.87 24.269 121.856 24.2698C121.806 24.2818 121.752 24.2882 121.698 24.2946C121.649 24.305 121.598 24.3122 121.544 24.317C121.542 24.317 121.54 24.317 121.538 24.3178C121.47 24.3354 121.397 24.3474 121.319 24.3522C121.303 24.3546 121.287 24.3554 121.271 24.357C121.24 24.3642 121.207 24.369 121.174 24.3738C121.126 24.3842 121.074 24.3874 121.022 24.3914C121 24.3962 120.975 24.3962 120.952 24.4003C120.905 24.4091 120.856 24.4147 120.805 24.4179C120.799 24.4195 120.792 24.4203 120.785 24.4219C120.729 24.4355 120.668 24.4435 120.604 24.4491C120.56 24.4563 120.514 24.4611 120.466 24.4643C120.421 24.4715 120.376 24.4803 120.328 24.4827C120.3 24.4875 120.268 24.4875 120.239 24.4915C120.188 24.5027 120.134 24.5099 120.079 24.5155C120.019 24.5251 119.955 24.5315 119.888 24.5315C119.826 24.5435 119.761 24.5531 119.691 24.5547C119.687 24.5547 119.683 24.5547 119.679 24.5555C119.648 24.5612 119.613 24.5628 119.581 24.566C119.514 24.5804 119.443 24.5884 119.368 24.5908C119.298 24.6044 119.226 24.6124 119.148 24.6132C119.083 24.626 119.015 24.6348 118.942 24.6364C118.873 24.6492 118.802 24.658 118.724 24.658C118.717 24.658 118.71 24.6572 118.703 24.6564C118.649 24.666 118.594 24.6732 118.535 24.6764C118.514 24.6788 118.492 24.6788 118.47 24.6796C118.41 24.6884 118.349 24.6948 118.283 24.6948C118.28 24.6948 118.277 24.6948 118.274 24.6948C118.252 24.6964 118.231 24.7004 118.208 24.7004C118.173 24.706 118.134 24.7084 118.097 24.71C118.058 24.7164 118.017 24.7172 117.977 24.7197C117.917 24.7293 117.855 24.7349 117.789 24.7357C117.507 24.7661 117.223 24.7813 116.939 24.7901C116.868 24.8029 116.792 24.8117 116.711 24.8117C116.705 24.8117 116.7 24.8109 116.694 24.8109C116.392 24.8405 116.095 24.8461 115.838 24.8325C115.829 24.8325 115.819 24.8325 115.81 24.8317C115.802 24.8317 115.795 24.8325 115.788 24.8325C115.768 24.8325 115.749 24.8309 115.73 24.8293C115.683 24.8349 115.634 24.8389 115.583 24.8389C115.537 24.8389 115.494 24.8357 115.452 24.8317C115.448 24.8317 115.444 24.8317 115.44 24.8317C115.436 24.8317 115.432 24.8317 115.428 24.8317C115.209 24.8429 114.991 24.8445 114.774 24.8333C114.722 24.8357 114.562 24.8261 114.538 24.8245C114.505 24.8269 114.473 24.8293 114.438 24.8293C114.39 24.8293 114.349 24.8213 114.304 24.8165C114.277 24.8181 114.251 24.8205 114.224 24.8205C114.172 24.8205 114.122 24.8165 114.074 24.8109C114.072 24.8109 114.071 24.8109 114.069 24.8109C114.059 24.8109 114.048 24.8093 114.038 24.8093C114.027 24.8093 114.017 24.8109 114.006 24.8109C113.978 24.8109 113.953 24.8053 113.926 24.8029C113.905 24.8037 113.886 24.8061 113.864 24.8061C113.793 24.8061 113.727 24.7981 113.663 24.7877C113.645 24.7861 113.626 24.7845 113.608 24.7829C113.604 24.7829 113.6 24.7837 113.595 24.7837C113.525 24.7837 113.459 24.7773 113.395 24.7661C113.389 24.7661 113.382 24.7653 113.374 24.7645C113.37 24.7645 113.366 24.7645 113.363 24.7645C113.274 24.7645 113.19 24.7557 113.112 24.7397C113.082 24.7365 113.05 24.7365 113.021 24.7309C112.999 24.7285 112.974 24.7285 112.952 24.7253C112.921 24.7221 112.893 24.7148 112.864 24.71C112.808 24.706 112.756 24.6988 112.705 24.6884C112.588 24.6836 112.479 24.666 112.382 24.6324C112.359 24.6292 112.337 24.6228 112.315 24.618C112.298 24.6148 112.28 24.6132 112.263 24.61C112.237 24.6068 112.213 24.6012 112.188 24.5964C112.119 24.5892 112.053 24.574 111.988 24.5539C111.936 24.5435 111.886 24.5307 111.839 24.5131C111.829 24.5107 111.818 24.5107 111.809 24.5075C111.745 24.4963 111.683 24.4827 111.625 24.4611C111.561 24.4459 111.502 24.4259 111.447 24.4003C111.368 24.3794 111.294 24.353 111.227 24.3162C111.114 24.2842 111.014 24.2369 110.926 24.1753C110.861 24.1441 110.801 24.1081 110.746 24.0648C110.718 24.0504 110.696 24.0304 110.671 24.0128C110.531 23.9328 110.421 23.8223 110.338 23.6934C110.265 23.5917 110.207 23.4797 110.174 23.3596C110.174 23.3572 110.174 23.3548 110.173 23.3524C110.169 23.3412 110.164 23.33 110.16 23.3188C110.075 23.0082 110.148 22.7584 110.271 22.4751C110.332 22.335 110.406 22.1829 110.499 22.0604C110.501 22.0588 110.502 22.0564 110.504 22.0548C110.544 21.9811 110.593 21.9131 110.653 21.8523C110.686 21.8026 110.721 21.7538 110.764 21.7098C110.818 21.6281 110.878 21.5497 110.95 21.48C111.005 21.404 111.075 21.3383 111.151 21.2799C111.171 21.2599 111.195 21.2431 111.216 21.2247C111.252 21.1879 111.291 21.1542 111.333 21.123C111.356 21.103 111.378 21.083 111.401 21.0638C111.435 21.0262 111.472 20.9917 111.511 20.9589C111.537 20.9301 111.57 20.9077 111.6 20.8821C111.644 20.8356 111.693 20.794 111.747 20.7572C111.769 20.7364 111.791 20.714 111.817 20.6955C111.828 20.6851 111.841 20.6755 111.853 20.6659C111.909 20.6035 111.978 20.5499 112.052 20.5034C112.078 20.4826 112.104 20.4626 112.132 20.4442C112.174 20.4018 112.222 20.3633 112.272 20.3281C112.279 20.3201 112.287 20.3129 112.294 20.3057C110.224 21.7466 109.163 23.0378 109.445 24.0088C110.276 26.8698 122.391 25.8636 136.505 21.7618C150.618 17.6609 161.387 12.0174 160.555 9.15718L160.556 9.15798Z"/>
</mask>
<path d="M160.556 9.15798C160.258 8.13334 158.492 7.61542 155.725 7.54898C155.73 7.55218 155.735 7.55538 155.74 7.55859C155.752 7.55859 155.764 7.56019 155.775 7.56019C155.798 7.55859 155.82 7.55699 155.843 7.55699C155.894 7.55699 155.944 7.56099 155.991 7.56659C156.003 7.56659 156.015 7.56419 156.028 7.56419C156.091 7.56419 156.151 7.56979 156.208 7.5786C156.248 7.5786 156.288 7.581 156.326 7.585C156.388 7.585 156.445 7.59061 156.501 7.59861C156.523 7.60101 156.544 7.60421 156.564 7.60822C156.567 7.60822 156.57 7.60902 156.572 7.60982C156.596 7.61382 156.62 7.61782 156.643 7.62343C156.699 7.62743 156.753 7.63623 156.804 7.64744C156.886 7.64904 156.961 7.66265 157.033 7.67946C157.108 7.68587 157.177 7.70188 157.243 7.72029C157.29 7.72429 157.335 7.73149 157.377 7.7411C157.434 7.7483 157.487 7.75871 157.539 7.77232C157.614 7.78112 157.685 7.79553 157.751 7.81795C158.434 7.902 159.132 8.2294 159.481 8.78975C159.719 9.17319 159.654 9.65989 159.393 10.0041C159.332 10.1546 159.24 10.2947 159.125 10.4204C159.064 10.5316 158.984 10.6317 158.884 10.7141C158.855 10.747 158.825 10.7782 158.791 10.8054C158.723 10.9079 158.638 10.9991 158.534 11.072C158.481 11.1416 158.42 11.2049 158.348 11.2593C158.17 11.4866 157.935 11.6795 157.694 11.8533C156.996 12.4768 156.183 13.034 155.329 13.4735C155.28 13.5055 155.225 13.5335 155.167 13.5567C155.159 13.5607 155.15 13.5647 155.142 13.5687C155.079 13.616 155.011 13.656 154.935 13.6888C154.276 14.0914 153.514 14.5085 152.719 14.8447C152.713 14.8487 152.708 14.8535 152.702 14.8575C152.631 14.8999 152.556 14.936 152.481 14.9696C152.483 14.9688 152.484 14.968 152.487 14.9672C152.483 14.9688 152.48 14.9704 152.477 14.972C152.471 14.9752 152.463 14.9784 152.456 14.9816C152.264 15.0681 152.073 15.1569 151.878 15.2386C151.878 15.2394 151.876 15.2402 151.875 15.2402C151.926 15.2185 151.977 15.1969 152.028 15.1753C151.959 15.2057 151.894 15.2426 151.826 15.2746C151.824 15.2762 151.821 15.2762 151.82 15.2778C151.796 15.293 151.774 15.313 151.748 15.3266C151.658 15.3722 151.565 15.4115 151.472 15.4507C151.433 15.4747 151.392 15.4955 151.348 15.5147C151.305 15.5371 151.26 15.5572 151.213 15.5732C151.171 15.5964 151.124 15.6148 151.077 15.6324C151.071 15.6348 151.063 15.638 151.057 15.6404C151.055 15.6404 151.055 15.642 151.052 15.6428C151.047 15.6452 151.04 15.6484 151.034 15.6508C151.025 15.6548 151.016 15.6588 151.007 15.6628C150.957 15.6932 150.903 15.7181 150.845 15.7397C150.833 15.7453 150.822 15.7517 150.81 15.7565C150.789 15.7669 150.769 15.7789 150.746 15.7869C150.733 15.7957 150.719 15.8053 150.704 15.8133C150.389 15.9774 150.065 16.1063 149.737 16.2216C149.636 16.2976 149.515 16.3537 149.377 16.3873C149.338 16.4113 149.297 16.4321 149.253 16.4505C149.176 16.4969 149.088 16.5314 148.993 16.5562C148.928 16.5954 148.857 16.6266 148.781 16.6506C148.747 16.6658 148.712 16.6795 148.675 16.6907C148.672 16.6923 148.668 16.6931 148.665 16.6939C148.611 16.7235 148.554 16.7491 148.491 16.7683C148.438 16.7947 148.381 16.8187 148.32 16.8356C148.315 16.838 148.308 16.8396 148.302 16.842C148.228 16.89 148.142 16.9252 148.05 16.9524C147.98 16.9908 147.902 17.0213 147.818 17.0429C147.778 17.0629 147.739 17.0821 147.695 17.0965C147.633 17.1277 147.568 17.1558 147.496 17.1742C147.428 17.2126 147.355 17.243 147.274 17.2662C147.243 17.2782 147.213 17.2902 147.181 17.3006C147.146 17.3159 147.109 17.3287 147.071 17.3399C147.021 17.3639 146.971 17.3879 146.916 17.4055C146.881 17.4215 146.843 17.4359 146.805 17.4487C146.754 17.4759 146.702 17.5008 146.645 17.5192C146.564 17.5672 146.47 17.6008 146.369 17.6248C146.345 17.6352 146.32 17.6433 146.295 17.6513C146.268 17.6633 146.242 17.6745 146.215 17.6849C146.129 17.7345 146.034 17.7737 145.927 17.7961C145.866 17.8258 145.801 17.8506 145.73 17.8682C145.67 17.8978 145.606 17.9218 145.538 17.9402C145.5 17.9594 145.46 17.9755 145.418 17.9891C145.365 18.0179 145.306 18.0403 145.245 18.0587C145.172 18.0971 145.091 18.1276 145.004 18.1476C144.953 18.1684 144.901 18.1868 144.844 18.2004C144.83 18.2052 144.816 18.2108 144.802 18.2156C144.764 18.2324 144.727 18.2492 144.685 18.2604C144.678 18.2644 144.667 18.266 144.659 18.27C144.658 18.2708 144.655 18.2716 144.654 18.2724C144.574 18.3173 144.484 18.3525 144.385 18.3749C144.306 18.4189 144.219 18.4542 144.122 18.4766C144.061 18.5022 143.997 18.5246 143.927 18.539C143.849 18.5822 143.76 18.6119 143.665 18.6343C143.584 18.6767 143.493 18.7103 143.393 18.7303C143.373 18.7399 143.353 18.7503 143.331 18.7599C143.246 18.8056 143.15 18.8408 143.045 18.8616C142.991 18.8864 142.937 18.9088 142.876 18.9241C142.809 18.9545 142.735 18.9793 142.656 18.9961C142.623 19.0081 142.589 19.0193 142.554 19.0289C142.464 19.0801 142.364 19.1186 142.252 19.141C142.204 19.1634 142.154 19.181 142.101 19.1962C142.066 19.2114 142.028 19.2242 141.99 19.2354C141.907 19.2747 141.812 19.2995 141.71 19.3155C141.704 19.3179 141.696 19.3195 141.69 19.3227C141.638 19.3467 141.582 19.3667 141.524 19.3827C141.512 19.3875 141.5 19.3931 141.488 19.3979C141.488 19.3979 141.488 19.3987 141.489 19.3995C141.481 19.4011 141.473 19.4043 141.466 19.4059C141.338 19.4572 141.209 19.4972 141.076 19.5284C140.985 19.5789 140.882 19.6157 140.767 19.6365C140.689 19.6693 140.607 19.6973 140.514 19.7109C140.462 19.7302 140.407 19.7462 140.349 19.7574C140.289 19.7902 140.221 19.8142 140.151 19.8342C140.065 19.8782 139.968 19.9071 139.864 19.9271C139.782 19.9687 139.691 19.9999 139.591 20.0191C139.579 20.0231 139.565 20.0247 139.554 20.0279C139.471 20.0688 139.379 20.0984 139.278 20.1168C139.212 20.1432 139.144 20.1664 139.067 20.1792C138.986 20.2177 138.894 20.2457 138.795 20.2625C138.769 20.2729 138.743 20.2809 138.717 20.2897C138.64 20.3257 138.554 20.3521 138.461 20.3689C138.384 20.4018 138.304 20.4282 138.214 20.4418C138.179 20.4562 138.142 20.4642 138.106 20.4746C138.035 20.509 137.954 20.5338 137.87 20.5515C137.765 20.6059 137.645 20.6443 137.509 20.6603C137.494 20.6667 137.479 20.6707 137.464 20.6771C137.385 20.7132 137.298 20.7388 137.204 20.754C137.107 20.7988 137.001 20.8324 136.88 20.846C136.78 20.8965 136.666 20.9309 136.539 20.9469C136.478 20.9741 136.412 20.9933 136.341 21.0085C136.298 21.0286 136.251 21.0446 136.202 21.0566C136.119 21.0934 136.027 21.119 135.926 21.1334C135.877 21.1478 135.826 21.159 135.772 21.167C135.707 21.1935 135.636 21.2127 135.561 21.2271C135.473 21.2679 135.374 21.2967 135.265 21.3119C135.214 21.3311 135.161 21.3472 135.104 21.3584C135.011 21.3992 134.908 21.4272 134.793 21.44C134.719 21.4688 134.641 21.492 134.555 21.5041C134.529 21.5145 134.502 21.5217 134.476 21.5305C134.387 21.5721 134.286 21.5985 134.177 21.6137C134.114 21.6369 134.045 21.6537 133.972 21.665C133.97 21.665 133.969 21.6658 133.967 21.6666C133.875 21.7106 133.773 21.7418 133.66 21.757C133.57 21.7946 133.474 21.8243 133.365 21.8363C133.3 21.8595 133.23 21.8763 133.156 21.8883C133.106 21.9083 133.051 21.9243 132.995 21.9379C132.938 21.9547 132.878 21.9675 132.814 21.9763C132.748 22.0028 132.677 22.0236 132.6 22.0372C132.581 22.0444 132.559 22.0476 132.538 22.0524C132.473 22.0772 132.403 22.0964 132.328 22.1084C131.652 22.3462 130.934 22.4887 130.227 22.6255C130.186 22.6368 130.143 22.6456 130.099 22.652C130.045 22.668 129.99 22.6816 129.929 22.6888C129.919 22.692 129.91 22.6944 129.901 22.6968C129.853 22.7152 129.801 22.7296 129.748 22.7408C129.718 22.7504 129.685 22.7536 129.653 22.7608C129.587 22.7864 129.516 22.8065 129.44 22.8193C129.396 22.8353 129.352 22.8489 129.301 22.8585C129.242 22.8697 129.183 22.8817 129.123 22.8937C129.062 22.9145 128.994 22.9297 128.923 22.9393C128.866 22.9554 128.806 22.969 128.742 22.9762C128.721 22.981 128.702 22.9882 128.679 22.9922C128.616 23.0122 128.55 23.0298 128.479 23.0386C128.417 23.0578 128.353 23.0738 128.284 23.0826C128.216 23.1042 128.144 23.1211 128.064 23.1283C128.01 23.1443 127.951 23.1563 127.891 23.1643C127.87 23.1699 127.847 23.1723 127.827 23.1763C127.765 23.1971 127.699 23.2123 127.63 23.2219C127.596 23.2315 127.558 23.2347 127.522 23.2411C127.498 23.2483 127.47 23.2499 127.446 23.2555C127.422 23.2635 127.392 23.2659 127.365 23.2716C127.289 23.298 127.207 23.3164 127.118 23.3252C126.932 23.3684 126.744 23.4116 126.555 23.4429C126.552 23.4429 126.55 23.4437 126.547 23.4445C126.543 23.4445 126.539 23.4461 126.535 23.4469C126.504 23.4541 126.471 23.4589 126.438 23.4645C126.374 23.4877 126.304 23.5013 126.231 23.5109C126.197 23.5189 126.16 23.5245 126.122 23.5293C126.074 23.5421 126.024 23.5525 125.971 23.5589C125.958 23.5621 125.945 23.5653 125.932 23.5685C125.855 23.5958 125.769 23.6126 125.679 23.6214C125.624 23.6358 125.565 23.6462 125.504 23.6518C125.476 23.6574 125.45 23.6654 125.42 23.6694C125.376 23.679 125.331 23.687 125.283 23.6926C125.262 23.6982 125.242 23.7046 125.219 23.7078H125.218C125.155 23.7254 125.088 23.7382 125.017 23.7438C124.99 23.7502 124.958 23.7526 124.93 23.7575C124.928 23.7575 124.927 23.7575 124.926 23.7583C124.855 23.7799 124.779 23.7959 124.698 23.8031C124.637 23.8207 124.57 23.8327 124.501 23.8399C124.449 23.8535 124.392 23.8607 124.335 23.8663C124.292 23.8783 124.246 23.8871 124.2 23.8935C124.179 23.8983 124.155 23.8991 124.133 23.9031C124.056 23.9248 123.974 23.9376 123.885 23.9424C123.786 23.9688 123.686 23.9888 123.581 23.9968C123.512 24.0152 123.439 24.0272 123.361 24.0328C123.333 24.04 123.305 24.048 123.275 24.0528C123.246 24.0592 123.214 24.0608 123.184 24.0648C123.168 24.0688 123.149 24.0696 123.133 24.0736C123.005 24.1001 122.877 24.1209 122.75 24.1353C122.715 24.1441 122.676 24.1465 122.639 24.1521C122.593 24.1625 122.545 24.1697 122.494 24.1745C122.449 24.1833 122.404 24.1921 122.355 24.1961C122.325 24.2009 122.295 24.2065 122.263 24.2089C122.246 24.2129 122.225 24.2145 122.207 24.2177C122.203 24.2185 122.199 24.2185 122.196 24.2193C122.163 24.2249 122.131 24.2321 122.097 24.2353C122.083 24.2378 122.068 24.2402 122.054 24.2418C122.053 24.2418 122.051 24.2426 122.049 24.2426C122.045 24.2442 122.039 24.2442 122.034 24.245C122.011 24.2482 121.989 24.2522 121.965 24.2546C121.941 24.2578 121.92 24.2626 121.896 24.2642H121.896C121.882 24.2658 121.87 24.269 121.856 24.2698C121.806 24.2818 121.752 24.2882 121.698 24.2946C121.649 24.305 121.598 24.3122 121.544 24.317C121.542 24.317 121.54 24.317 121.538 24.3178C121.47 24.3354 121.397 24.3474 121.319 24.3522C121.303 24.3546 121.287 24.3554 121.271 24.357C121.24 24.3642 121.207 24.369 121.174 24.3738C121.126 24.3842 121.074 24.3874 121.022 24.3914C121 24.3962 120.975 24.3962 120.952 24.4003C120.905 24.4091 120.856 24.4147 120.805 24.4179C120.799 24.4195 120.792 24.4203 120.785 24.4219C120.729 24.4355 120.668 24.4435 120.604 24.4491C120.56 24.4563 120.514 24.4611 120.466 24.4643C120.421 24.4715 120.376 24.4803 120.328 24.4827C120.3 24.4875 120.268 24.4875 120.239 24.4915C120.188 24.5027 120.134 24.5099 120.079 24.5155C120.019 24.5251 119.955 24.5315 119.888 24.5315C119.826 24.5435 119.761 24.5531 119.691 24.5547C119.687 24.5547 119.683 24.5547 119.679 24.5555C119.648 24.5612 119.613 24.5628 119.581 24.566C119.514 24.5804 119.443 24.5884 119.368 24.5908C119.298 24.6044 119.226 24.6124 119.148 24.6132C119.083 24.626 119.015 24.6348 118.942 24.6364C118.873 24.6492 118.802 24.658 118.724 24.658C118.717 24.658 118.71 24.6572 118.703 24.6564C118.649 24.666 118.594 24.6732 118.535 24.6764C118.514 24.6788 118.492 24.6788 118.47 24.6796C118.41 24.6884 118.349 24.6948 118.283 24.6948C118.28 24.6948 118.277 24.6948 118.274 24.6948C118.252 24.6964 118.231 24.7004 118.208 24.7004C118.173 24.706 118.134 24.7084 118.097 24.71C118.058 24.7164 118.017 24.7172 117.977 24.7197C117.917 24.7293 117.855 24.7349 117.789 24.7357C117.507 24.7661 117.223 24.7813 116.939 24.7901C116.868 24.8029 116.792 24.8117 116.711 24.8117C116.705 24.8117 116.7 24.8109 116.694 24.8109C116.392 24.8405 116.095 24.8461 115.838 24.8325C115.829 24.8325 115.819 24.8325 115.81 24.8317C115.802 24.8317 115.795 24.8325 115.788 24.8325C115.768 24.8325 115.749 24.8309 115.73 24.8293C115.683 24.8349 115.634 24.8389 115.583 24.8389C115.537 24.8389 115.494 24.8357 115.452 24.8317C115.448 24.8317 115.444 24.8317 115.44 24.8317C115.436 24.8317 115.432 24.8317 115.428 24.8317C115.209 24.8429 114.991 24.8445 114.774 24.8333C114.722 24.8357 114.562 24.8261 114.538 24.8245C114.505 24.8269 114.473 24.8293 114.438 24.8293C114.39 24.8293 114.349 24.8213 114.304 24.8165C114.277 24.8181 114.251 24.8205 114.224 24.8205C114.172 24.8205 114.122 24.8165 114.074 24.8109C114.072 24.8109 114.071 24.8109 114.069 24.8109C114.059 24.8109 114.048 24.8093 114.038 24.8093C114.027 24.8093 114.017 24.8109 114.006 24.8109C113.978 24.8109 113.953 24.8053 113.926 24.8029C113.905 24.8037 113.886 24.8061 113.864 24.8061C113.793 24.8061 113.727 24.7981 113.663 24.7877C113.645 24.7861 113.626 24.7845 113.608 24.7829C113.604 24.7829 113.6 24.7837 113.595 24.7837C113.525 24.7837 113.459 24.7773 113.395 24.7661C113.389 24.7661 113.382 24.7653 113.374 24.7645C113.37 24.7645 113.366 24.7645 113.363 24.7645C113.274 24.7645 113.19 24.7557 113.112 24.7397C113.082 24.7365 113.05 24.7365 113.021 24.7309C112.999 24.7285 112.974 24.7285 112.952 24.7253C112.921 24.7221 112.893 24.7148 112.864 24.71C112.808 24.706 112.756 24.6988 112.705 24.6884C112.588 24.6836 112.479 24.666 112.382 24.6324C112.359 24.6292 112.337 24.6228 112.315 24.618C112.298 24.6148 112.28 24.6132 112.263 24.61C112.237 24.6068 112.213 24.6012 112.188 24.5964C112.119 24.5892 112.053 24.574 111.988 24.5539C111.936 24.5435 111.886 24.5307 111.839 24.5131C111.829 24.5107 111.818 24.5107 111.809 24.5075C111.745 24.4963 111.683 24.4827 111.625 24.4611C111.561 24.4459 111.502 24.4259 111.447 24.4003C111.368 24.3794 111.294 24.353 111.227 24.3162C111.114 24.2842 111.014 24.2369 110.926 24.1753C110.861 24.1441 110.801 24.1081 110.746 24.0648C110.718 24.0504 110.696 24.0304 110.671 24.0128C110.531 23.9328 110.421 23.8223 110.338 23.6934C110.265 23.5917 110.207 23.4797 110.174 23.3596C110.174 23.3572 110.174 23.3548 110.173 23.3524C110.169 23.3412 110.164 23.33 110.16 23.3188C110.075 23.0082 110.148 22.7584 110.271 22.4751C110.332 22.335 110.406 22.1829 110.499 22.0604C110.501 22.0588 110.502 22.0564 110.504 22.0548C110.544 21.9811 110.593 21.9131 110.653 21.8523C110.686 21.8026 110.721 21.7538 110.764 21.7098C110.818 21.6281 110.878 21.5497 110.95 21.48C111.005 21.404 111.075 21.3383 111.151 21.2799C111.171 21.2599 111.195 21.2431 111.216 21.2247C111.252 21.1879 111.291 21.1542 111.333 21.123C111.356 21.103 111.378 21.083 111.401 21.0638C111.435 21.0262 111.472 20.9917 111.511 20.9589C111.537 20.9301 111.57 20.9077 111.6 20.8821C111.644 20.8356 111.693 20.794 111.747 20.7572C111.769 20.7364 111.791 20.714 111.817 20.6955C111.828 20.6851 111.841 20.6755 111.853 20.6659C111.909 20.6035 111.978 20.5499 112.052 20.5034C112.078 20.4826 112.104 20.4626 112.132 20.4442C112.174 20.4018 112.222 20.3633 112.272 20.3281C112.279 20.3201 112.287 20.3129 112.294 20.3057C110.224 21.7466 109.163 23.0378 109.445 24.0088C110.276 26.8698 122.391 25.8636 136.505 21.7618C150.618 17.6609 161.387 12.0174 160.555 9.15718L160.556 9.15798Z" fill="#6C757D"/>
<path d="M160.556 9.15798C160.258 8.13334 158.492 7.61542 155.725 7.54898C155.73 7.55218 155.735 7.55538 155.74 7.55859C155.752 7.55859 155.764 7.56019 155.775 7.56019C155.798 7.55859 155.82 7.55699 155.843 7.55699C155.894 7.55699 155.944 7.56099 155.991 7.56659C156.003 7.56659 156.015 7.56419 156.028 7.56419C156.091 7.56419 156.151 7.56979 156.208 7.5786C156.248 7.5786 156.288 7.581 156.326 7.585C156.388 7.585 156.445 7.59061 156.501 7.59861C156.523 7.60101 156.544 7.60421 156.564 7.60822C156.567 7.60822 156.57 7.60902 156.572 7.60982C156.596 7.61382 156.62 7.61782 156.643 7.62343C156.699 7.62743 156.753 7.63623 156.804 7.64744C156.886 7.64904 156.961 7.66265 157.033 7.67946C157.108 7.68587 157.177 7.70188 157.243 7.72029C157.29 7.72429 157.335 7.73149 157.377 7.7411C157.434 7.7483 157.487 7.75871 157.539 7.77232C157.614 7.78112 157.685 7.79553 157.751 7.81795C158.434 7.902 159.132 8.2294 159.481 8.78975C159.719 9.17319 159.654 9.65989 159.393 10.0041C159.332 10.1546 159.24 10.2947 159.125 10.4204C159.064 10.5316 158.984 10.6317 158.884 10.7141C158.855 10.747 158.825 10.7782 158.791 10.8054C158.723 10.9079 158.638 10.9991 158.534 11.072C158.481 11.1416 158.42 11.2049 158.348 11.2593C158.17 11.4866 157.935 11.6795 157.694 11.8533C156.996 12.4768 156.183 13.034 155.329 13.4735C155.28 13.5055 155.225 13.5335 155.167 13.5567C155.159 13.5607 155.15 13.5647 155.142 13.5687C155.079 13.616 155.011 13.656 154.935 13.6888C154.276 14.0914 153.514 14.5085 152.719 14.8447C152.713 14.8487 152.708 14.8535 152.702 14.8575C152.631 14.8999 152.556 14.936 152.481 14.9696C152.483 14.9688 152.484 14.968 152.487 14.9672C152.483 14.9688 152.48 14.9704 152.477 14.972C152.471 14.9752 152.463 14.9784 152.456 14.9816C152.264 15.0681 152.073 15.1569 151.878 15.2386C151.878 15.2394 151.876 15.2402 151.875 15.2402C151.926 15.2185 151.977 15.1969 152.028 15.1753C151.959 15.2057 151.894 15.2426 151.826 15.2746C151.824 15.2762 151.821 15.2762 151.82 15.2778C151.796 15.293 151.774 15.313 151.748 15.3266C151.658 15.3722 151.565 15.4115 151.472 15.4507C151.433 15.4747 151.392 15.4955 151.348 15.5147C151.305 15.5371 151.26 15.5572 151.213 15.5732C151.171 15.5964 151.124 15.6148 151.077 15.6324C151.071 15.6348 151.063 15.638 151.057 15.6404C151.055 15.6404 151.055 15.642 151.052 15.6428C151.047 15.6452 151.04 15.6484 151.034 15.6508C151.025 15.6548 151.016 15.6588 151.007 15.6628C150.957 15.6932 150.903 15.7181 150.845 15.7397C150.833 15.7453 150.822 15.7517 150.81 15.7565C150.789 15.7669 150.769 15.7789 150.746 15.7869C150.733 15.7957 150.719 15.8053 150.704 15.8133C150.389 15.9774 150.065 16.1063 149.737 16.2216C149.636 16.2976 149.515 16.3537 149.377 16.3873C149.338 16.4113 149.297 16.4321 149.253 16.4505C149.176 16.4969 149.088 16.5314 148.993 16.5562C148.928 16.5954 148.857 16.6266 148.781 16.6506C148.747 16.6658 148.712 16.6795 148.675 16.6907C148.672 16.6923 148.668 16.6931 148.665 16.6939C148.611 16.7235 148.554 16.7491 148.491 16.7683C148.438 16.7947 148.381 16.8187 148.32 16.8356C148.315 16.838 148.308 16.8396 148.302 16.842C148.228 16.89 148.142 16.9252 148.05 16.9524C147.98 16.9908 147.902 17.0213 147.818 17.0429C147.778 17.0629 147.739 17.0821 147.695 17.0965C147.633 17.1277 147.568 17.1558 147.496 17.1742C147.428 17.2126 147.355 17.243 147.274 17.2662C147.243 17.2782 147.213 17.2902 147.181 17.3006C147.146 17.3159 147.109 17.3287 147.071 17.3399C147.021 17.3639 146.971 17.3879 146.916 17.4055C146.881 17.4215 146.843 17.4359 146.805 17.4487C146.754 17.4759 146.702 17.5008 146.645 17.5192C146.564 17.5672 146.47 17.6008 146.369 17.6248C146.345 17.6352 146.32 17.6433 146.295 17.6513C146.268 17.6633 146.242 17.6745 146.215 17.6849C146.129 17.7345 146.034 17.7737 145.927 17.7961C145.866 17.8258 145.801 17.8506 145.73 17.8682C145.67 17.8978 145.606 17.9218 145.538 17.9402C145.5 17.9594 145.46 17.9755 145.418 17.9891C145.365 18.0179 145.306 18.0403 145.245 18.0587C145.172 18.0971 145.091 18.1276 145.004 18.1476C144.953 18.1684 144.901 18.1868 144.844 18.2004C144.83 18.2052 144.816 18.2108 144.802 18.2156C144.764 18.2324 144.727 18.2492 144.685 18.2604C144.678 18.2644 144.667 18.266 144.659 18.27C144.658 18.2708 144.655 18.2716 144.654 18.2724C144.574 18.3173 144.484 18.3525 144.385 18.3749C144.306 18.4189 144.219 18.4542 144.122 18.4766C144.061 18.5022 143.997 18.5246 143.927 18.539C143.849 18.5822 143.76 18.6119 143.665 18.6343C143.584 18.6767 143.493 18.7103 143.393 18.7303C143.373 18.7399 143.353 18.7503 143.331 18.7599C143.246 18.8056 143.15 18.8408 143.045 18.8616C142.991 18.8864 142.937 18.9088 142.876 18.9241C142.809 18.9545 142.735 18.9793 142.656 18.9961C142.623 19.0081 142.589 19.0193 142.554 19.0289C142.464 19.0801 142.364 19.1186 142.252 19.141C142.204 19.1634 142.154 19.181 142.101 19.1962C142.066 19.2114 142.028 19.2242 141.99 19.2354C141.907 19.2747 141.812 19.2995 141.71 19.3155C141.704 19.3179 141.696 19.3195 141.69 19.3227C141.638 19.3467 141.582 19.3667 141.524 19.3827C141.512 19.3875 141.5 19.3931 141.488 19.3979C141.488 19.3979 141.488 19.3987 141.489 19.3995C141.481 19.4011 141.473 19.4043 141.466 19.4059C141.338 19.4572 141.209 19.4972 141.076 19.5284C140.985 19.5789 140.882 19.6157 140.767 19.6365C140.689 19.6693 140.607 19.6973 140.514 19.7109C140.462 19.7302 140.407 19.7462 140.349 19.7574C140.289 19.7902 140.221 19.8142 140.151 19.8342C140.065 19.8782 139.968 19.9071 139.864 19.9271C139.782 19.9687 139.691 19.9999 139.591 20.0191C139.579 20.0231 139.565 20.0247 139.554 20.0279C139.471 20.0688 139.379 20.0984 139.278 20.1168C139.212 20.1432 139.144 20.1664 139.067 20.1792C138.986 20.2177 138.894 20.2457 138.795 20.2625C138.769 20.2729 138.743 20.2809 138.717 20.2897C138.64 20.3257 138.554 20.3521 138.461 20.3689C138.384 20.4018 138.304 20.4282 138.214 20.4418C138.179 20.4562 138.142 20.4642 138.106 20.4746C138.035 20.509 137.954 20.5338 137.87 20.5515C137.765 20.6059 137.645 20.6443 137.509 20.6603C137.494 20.6667 137.479 20.6707 137.464 20.6771C137.385 20.7132 137.298 20.7388 137.204 20.754C137.107 20.7988 137.001 20.8324 136.88 20.846C136.78 20.8965 136.666 20.9309 136.539 20.9469C136.478 20.9741 136.412 20.9933 136.341 21.0085C136.298 21.0286 136.251 21.0446 136.202 21.0566C136.119 21.0934 136.027 21.119 135.926 21.1334C135.877 21.1478 135.826 21.159 135.772 21.167C135.707 21.1935 135.636 21.2127 135.561 21.2271C135.473 21.2679 135.374 21.2967 135.265 21.3119C135.214 21.3311 135.161 21.3472 135.104 21.3584C135.011 21.3992 134.908 21.4272 134.793 21.44C134.719 21.4688 134.641 21.492 134.555 21.5041C134.529 21.5145 134.502 21.5217 134.476 21.5305C134.387 21.5721 134.286 21.5985 134.177 21.6137C134.114 21.6369 134.045 21.6537 133.972 21.665C133.97 21.665 133.969 21.6658 133.967 21.6666C133.875 21.7106 133.773 21.7418 133.66 21.757C133.57 21.7946 133.474 21.8243 133.365 21.8363C133.3 21.8595 133.23 21.8763 133.156 21.8883C133.106 21.9083 133.051 21.9243 132.995 21.9379C132.938 21.9547 132.878 21.9675 132.814 21.9763C132.748 22.0028 132.677 22.0236 132.6 22.0372C132.581 22.0444 132.559 22.0476 132.538 22.0524C132.473 22.0772 132.403 22.0964 132.328 22.1084C131.652 22.3462 130.934 22.4887 130.227 22.6255C130.186 22.6368 130.143 22.6456 130.099 22.652C130.045 22.668 129.99 22.6816 129.929 22.6888C129.919 22.692 129.91 22.6944 129.901 22.6968C129.853 22.7152 129.801 22.7296 129.748 22.7408C129.718 22.7504 129.685 22.7536 129.653 22.7608C129.587 22.7864 129.516 22.8065 129.44 22.8193C129.396 22.8353 129.352 22.8489 129.301 22.8585C129.242 22.8697 129.183 22.8817 129.123 22.8937C129.062 22.9145 128.994 22.9297 128.923 22.9393C128.866 22.9554 128.806 22.969 128.742 22.9762C128.721 22.981 128.702 22.9882 128.679 22.9922C128.616 23.0122 128.55 23.0298 128.479 23.0386C128.417 23.0578 128.353 23.0738 128.284 23.0826C128.216 23.1042 128.144 23.1211 128.064 23.1283C128.01 23.1443 127.951 23.1563 127.891 23.1643C127.87 23.1699 127.847 23.1723 127.827 23.1763C127.765 23.1971 127.699 23.2123 127.63 23.2219C127.596 23.2315 127.558 23.2347 127.522 23.2411C127.498 23.2483 127.47 23.2499 127.446 23.2555C127.422 23.2635 127.392 23.2659 127.365 23.2716C127.289 23.298 127.207 23.3164 127.118 23.3252C126.932 23.3684 126.744 23.4116 126.555 23.4429C126.552 23.4429 126.55 23.4437 126.547 23.4445C126.543 23.4445 126.539 23.4461 126.535 23.4469C126.504 23.4541 126.471 23.4589 126.438 23.4645C126.374 23.4877 126.304 23.5013 126.231 23.5109C126.197 23.5189 126.16 23.5245 126.122 23.5293C126.074 23.5421 126.024 23.5525 125.971 23.5589C125.958 23.5621 125.945 23.5653 125.932 23.5685C125.855 23.5958 125.769 23.6126 125.679 23.6214C125.624 23.6358 125.565 23.6462 125.504 23.6518C125.476 23.6574 125.45 23.6654 125.42 23.6694C125.376 23.679 125.331 23.687 125.283 23.6926C125.262 23.6982 125.242 23.7046 125.219 23.7078H125.218C125.155 23.7254 125.088 23.7382 125.017 23.7438C124.99 23.7502 124.958 23.7526 124.93 23.7575C124.928 23.7575 124.927 23.7575 124.926 23.7583C124.855 23.7799 124.779 23.7959 124.698 23.8031C124.637 23.8207 124.57 23.8327 124.501 23.8399C124.449 23.8535 124.392 23.8607 124.335 23.8663C124.292 23.8783 124.246 23.8871 124.2 23.8935C124.179 23.8983 124.155 23.8991 124.133 23.9031C124.056 23.9248 123.974 23.9376 123.885 23.9424C123.786 23.9688 123.686 23.9888 123.581 23.9968C123.512 24.0152 123.439 24.0272 123.361 24.0328C123.333 24.04 123.305 24.048 123.275 24.0528C123.246 24.0592 123.214 24.0608 123.184 24.0648C123.168 24.0688 123.149 24.0696 123.133 24.0736C123.005 24.1001 122.877 24.1209 122.75 24.1353C122.715 24.1441 122.676 24.1465 122.639 24.1521C122.593 24.1625 122.545 24.1697 122.494 24.1745C122.449 24.1833 122.404 24.1921 122.355 24.1961C122.325 24.2009 122.295 24.2065 122.263 24.2089C122.246 24.2129 122.225 24.2145 122.207 24.2177C122.203 24.2185 122.199 24.2185 122.196 24.2193C122.163 24.2249 122.131 24.2321 122.097 24.2353C122.083 24.2378 122.068 24.2402 122.054 24.2418C122.053 24.2418 122.051 24.2426 122.049 24.2426C122.045 24.2442 122.039 24.2442 122.034 24.245C122.011 24.2482 121.989 24.2522 121.965 24.2546C121.941 24.2578 121.92 24.2626 121.896 24.2642H121.896C121.882 24.2658 121.87 24.269 121.856 24.2698C121.806 24.2818 121.752 24.2882 121.698 24.2946C121.649 24.305 121.598 24.3122 121.544 24.317C121.542 24.317 121.54 24.317 121.538 24.3178C121.47 24.3354 121.397 24.3474 121.319 24.3522C121.303 24.3546 121.287 24.3554 121.271 24.357C121.24 24.3642 121.207 24.369 121.174 24.3738C121.126 24.3842 121.074 24.3874 121.022 24.3914C121 24.3962 120.975 24.3962 120.952 24.4003C120.905 24.4091 120.856 24.4147 120.805 24.4179C120.799 24.4195 120.792 24.4203 120.785 24.4219C120.729 24.4355 120.668 24.4435 120.604 24.4491C120.56 24.4563 120.514 24.4611 120.466 24.4643C120.421 24.4715 120.376 24.4803 120.328 24.4827C120.3 24.4875 120.268 24.4875 120.239 24.4915C120.188 24.5027 120.134 24.5099 120.079 24.5155C120.019 24.5251 119.955 24.5315 119.888 24.5315C119.826 24.5435 119.761 24.5531 119.691 24.5547C119.687 24.5547 119.683 24.5547 119.679 24.5555C119.648 24.5612 119.613 24.5628 119.581 24.566C119.514 24.5804 119.443 24.5884 119.368 24.5908C119.298 24.6044 119.226 24.6124 119.148 24.6132C119.083 24.626 119.015 24.6348 118.942 24.6364C118.873 24.6492 118.802 24.658 118.724 24.658C118.717 24.658 118.71 24.6572 118.703 24.6564C118.649 24.666 118.594 24.6732 118.535 24.6764C118.514 24.6788 118.492 24.6788 118.47 24.6796C118.41 24.6884 118.349 24.6948 118.283 24.6948C118.28 24.6948 118.277 24.6948 118.274 24.6948C118.252 24.6964 118.231 24.7004 118.208 24.7004C118.173 24.706 118.134 24.7084 118.097 24.71C118.058 24.7164 118.017 24.7172 117.977 24.7197C117.917 24.7293 117.855 24.7349 117.789 24.7357C117.507 24.7661 117.223 24.7813 116.939 24.7901C116.868 24.8029 116.792 24.8117 116.711 24.8117C116.705 24.8117 116.7 24.8109 116.694 24.8109C116.392 24.8405 116.095 24.8461 115.838 24.8325C115.829 24.8325 115.819 24.8325 115.81 24.8317C115.802 24.8317 115.795 24.8325 115.788 24.8325C115.768 24.8325 115.749 24.8309 115.73 24.8293C115.683 24.8349 115.634 24.8389 115.583 24.8389C115.537 24.8389 115.494 24.8357 115.452 24.8317C115.448 24.8317 115.444 24.8317 115.44 24.8317C115.436 24.8317 115.432 24.8317 115.428 24.8317C115.209 24.8429 114.991 24.8445 114.774 24.8333C114.722 24.8357 114.562 24.8261 114.538 24.8245C114.505 24.8269 114.473 24.8293 114.438 24.8293C114.39 24.8293 114.349 24.8213 114.304 24.8165C114.277 24.8181 114.251 24.8205 114.224 24.8205C114.172 24.8205 114.122 24.8165 114.074 24.8109C114.072 24.8109 114.071 24.8109 114.069 24.8109C114.059 24.8109 114.048 24.8093 114.038 24.8093C114.027 24.8093 114.017 24.8109 114.006 24.8109C113.978 24.8109 113.953 24.8053 113.926 24.8029C113.905 24.8037 113.886 24.8061 113.864 24.8061C113.793 24.8061 113.727 24.7981 113.663 24.7877C113.645 24.7861 113.626 24.7845 113.608 24.7829C113.604 24.7829 113.6 24.7837 113.595 24.7837C113.525 24.7837 113.459 24.7773 113.395 24.7661C113.389 24.7661 113.382 24.7653 113.374 24.7645C113.37 24.7645 113.366 24.7645 113.363 24.7645C113.274 24.7645 113.19 24.7557 113.112 24.7397C113.082 24.7365 113.05 24.7365 113.021 24.7309C112.999 24.7285 112.974 24.7285 112.952 24.7253C112.921 24.7221 112.893 24.7148 112.864 24.71C112.808 24.706 112.756 24.6988 112.705 24.6884C112.588 24.6836 112.479 24.666 112.382 24.6324C112.359 24.6292 112.337 24.6228 112.315 24.618C112.298 24.6148 112.28 24.6132 112.263 24.61C112.237 24.6068 112.213 24.6012 112.188 24.5964C112.119 24.5892 112.053 24.574 111.988 24.5539C111.936 24.5435 111.886 24.5307 111.839 24.5131C111.829 24.5107 111.818 24.5107 111.809 24.5075C111.745 24.4963 111.683 24.4827 111.625 24.4611C111.561 24.4459 111.502 24.4259 111.447 24.4003C111.368 24.3794 111.294 24.353 111.227 24.3162C111.114 24.2842 111.014 24.2369 110.926 24.1753C110.861 24.1441 110.801 24.1081 110.746 24.0648C110.718 24.0504 110.696 24.0304 110.671 24.0128C110.531 23.9328 110.421 23.8223 110.338 23.6934C110.265 23.5917 110.207 23.4797 110.174 23.3596C110.174 23.3572 110.174 23.3548 110.173 23.3524C110.169 23.3412 110.164 23.33 110.16 23.3188C110.075 23.0082 110.148 22.7584 110.271 22.4751C110.332 22.335 110.406 22.1829 110.499 22.0604C110.501 22.0588 110.502 22.0564 110.504 22.0548C110.544 21.9811 110.593 21.9131 110.653 21.8523C110.686 21.8026 110.721 21.7538 110.764 21.7098C110.818 21.6281 110.878 21.5497 110.95 21.48C111.005 21.404 111.075 21.3383 111.151 21.2799C111.171 21.2599 111.195 21.2431 111.216 21.2247C111.252 21.1879 111.291 21.1542 111.333 21.123C111.356 21.103 111.378 21.083 111.401 21.0638C111.435 21.0262 111.472 20.9917 111.511 20.9589C111.537 20.9301 111.57 20.9077 111.6 20.8821C111.644 20.8356 111.693 20.794 111.747 20.7572C111.769 20.7364 111.791 20.714 111.817 20.6955C111.828 20.6851 111.841 20.6755 111.853 20.6659C111.909 20.6035 111.978 20.5499 112.052 20.5034C112.078 20.4826 112.104 20.4626 112.132 20.4442C112.174 20.4018 112.222 20.3633 112.272 20.3281C112.279 20.3201 112.287 20.3129 112.294 20.3057C110.224 21.7466 109.163 23.0378 109.445 24.0088C110.276 26.8698 122.391 25.8636 136.505 21.7618C150.618 17.6609 161.387 12.0174 160.555 9.15718L160.556 9.15798Z" stroke="white" stroke-width="0.48" stroke-miterlimit="10" mask="url(#path-8-outside-1_152_6702)"/>
<path d="M72.7926 38.4545H73.7386L75.9631 43.8878H76.0398L78.2642 38.4545H79.2102V45H78.4688V40.027H78.4048L76.3594 45H75.6435L73.598 40.027H73.5341V45H72.7926V38.4545ZM82.1418 45.1151C81.8307 45.1151 81.5484 45.0565 81.2948 44.9393C81.0413 44.82 80.8399 44.6484 80.6908 44.4247C80.5416 44.1989 80.4671 43.9261 80.4671 43.6065C80.4671 43.3253 80.5225 43.0973 80.6333 42.9226C80.7441 42.7457 80.8921 42.6072 81.0775 42.5071C81.2629 42.407 81.4674 42.3324 81.6911 42.2834C81.917 42.2322 82.1439 42.1918 82.3719 42.1619C82.6702 42.1236 82.912 42.0948 83.0974 42.0756C83.2849 42.0543 83.4213 42.0192 83.5065 41.9702C83.5938 41.9212 83.6375 41.8359 83.6375 41.7145V41.6889C83.6375 41.3736 83.5512 41.1286 83.3786 40.9538C83.2082 40.7791 82.9493 40.6918 82.602 40.6918C82.2419 40.6918 81.9596 40.7706 81.7551 40.9283C81.5505 41.0859 81.4067 41.2543 81.3236 41.4332L80.6077 41.1776C80.7355 40.8793 80.906 40.647 81.1191 40.4808C81.3343 40.3125 81.5686 40.1953 81.8222 40.1293C82.0779 40.0611 82.3293 40.027 82.5764 40.027C82.7341 40.027 82.9152 40.0462 83.1198 40.0845C83.3264 40.1207 83.5257 40.1964 83.7174 40.3114C83.9113 40.4265 84.0722 40.6001 84.2 40.8324C84.3279 41.0646 84.3918 41.3757 84.3918 41.7656V45H83.6375V44.3352H83.5992C83.548 44.4418 83.4628 44.5558 83.3435 44.6772C83.2242 44.7987 83.0654 44.902 82.8673 44.9872C82.6691 45.0724 82.4273 45.1151 82.1418 45.1151ZM82.2568 44.4375C82.5551 44.4375 82.8066 44.3789 83.0111 44.2617C83.2178 44.1445 83.3733 43.9933 83.4777 43.8079C83.5843 43.6225 83.6375 43.4276 83.6375 43.223V42.5327C83.6056 42.571 83.5352 42.6062 83.4266 42.6381C83.32 42.668 83.1965 42.6946 83.0558 42.718C82.9173 42.7393 82.782 42.7585 82.6499 42.7756C82.52 42.7905 82.4145 42.8033 82.3335 42.8139C82.1375 42.8395 81.9543 42.881 81.7838 42.9386C81.6155 42.994 81.4791 43.0781 81.3747 43.1911C81.2725 43.3018 81.2213 43.4531 81.2213 43.6449C81.2213 43.907 81.3183 44.1051 81.5122 44.2393C81.7082 44.3714 81.9564 44.4375 82.2568 44.4375ZM85.7685 45V40.0909H86.5227V45H85.7685ZM86.152 39.2727C86.005 39.2727 85.8782 39.2227 85.7717 39.1225C85.6673 39.0224 85.6151 38.902 85.6151 38.7614C85.6151 38.6207 85.6673 38.5004 85.7717 38.4002C85.8782 38.3001 86.005 38.25 86.152 38.25C86.299 38.25 86.4247 38.3001 86.5291 38.4002C86.6357 38.5004 86.6889 38.6207 86.6889 38.7614C86.6889 38.902 86.6357 39.0224 86.5291 39.1225C86.4247 39.2227 86.299 39.2727 86.152 39.2727ZM88.6585 42.0469V45H87.9042V40.0909H88.6329V40.858H88.6968C88.8119 40.6087 88.9866 40.4084 89.221 40.2571C89.4553 40.1037 89.7579 40.027 90.1286 40.027C90.461 40.027 90.7519 40.0952 91.0012 40.2315C91.2504 40.3658 91.4443 40.5703 91.5828 40.8452C91.7213 41.1179 91.7906 41.4631 91.7906 41.8807V45H91.0363V41.9318C91.0363 41.5462 90.9362 41.2457 90.7359 41.0305C90.5356 40.8132 90.2607 40.7045 89.9113 40.7045C89.6705 40.7045 89.4553 40.7567 89.2657 40.8612C89.0782 40.9656 88.9301 41.1179 88.8215 41.3182C88.7128 41.5185 88.6585 41.7614 88.6585 42.0469ZM95.3038 40.0909V40.7301H92.7598V40.0909H95.3038ZM93.5012 38.9148H94.2555V43.5938C94.2555 43.8068 94.2864 43.9666 94.3482 44.0732C94.4121 44.1776 94.4931 44.2479 94.5911 44.2841C94.6912 44.3182 94.7967 44.3352 94.9075 44.3352C94.9906 44.3352 95.0588 44.331 95.112 44.3224C95.1653 44.3118 95.2079 44.3033 95.2399 44.2969L95.3933 44.9744C95.3422 44.9936 95.2708 45.0128 95.1792 45.032C95.0875 45.0533 94.9714 45.0639 94.8308 45.0639C94.6177 45.0639 94.4089 45.0181 94.2044 44.9265C94.002 44.8349 93.8336 44.6953 93.6994 44.5078C93.5673 44.3203 93.5012 44.0838 93.5012 43.7983V38.9148ZM97.883 45.1151C97.5719 45.1151 97.2896 45.0565 97.036 44.9393C96.7825 44.82 96.5811 44.6484 96.432 44.4247C96.2828 44.1989 96.2083 43.9261 96.2083 43.6065C96.2083 43.3253 96.2637 43.0973 96.3745 42.9226C96.4853 42.7457 96.6333 42.6072 96.8187 42.5071C97.0041 42.407 97.2086 42.3324 97.4324 42.2834C97.6582 42.2322 97.8851 42.1918 98.1131 42.1619C98.4114 42.1236 98.6532 42.0948 98.8386 42.0756C99.0261 42.0543 99.1625 42.0192 99.2477 41.9702C99.335 41.9212 99.3787 41.8359 99.3787 41.7145V41.6889C99.3787 41.3736 99.2924 41.1286 99.1199 40.9538C98.9494 40.7791 98.6905 40.6918 98.3432 40.6918C97.9831 40.6918 97.7008 40.7706 97.4963 40.9283C97.2917 41.0859 97.1479 41.2543 97.0648 41.4332L96.3489 41.1776C96.4767 40.8793 96.6472 40.647 96.8603 40.4808C97.0755 40.3125 97.3098 40.1953 97.5634 40.1293C97.8191 40.0611 98.0705 40.027 98.3176 40.027C98.4753 40.027 98.6564 40.0462 98.861 40.0845C99.0676 40.1207 99.2669 40.1964 99.4586 40.3114C99.6525 40.4265 99.8134 40.6001 99.9412 40.8324C100.069 41.0646 100.133 41.3757 100.133 41.7656V45H99.3787V44.3352H99.3404C99.2892 44.4418 99.204 44.5558 99.0847 44.6772C98.9654 44.7987 98.8066 44.902 98.6085 44.9872C98.4103 45.0724 98.1685 45.1151 97.883 45.1151ZM97.998 44.4375C98.2963 44.4375 98.5478 44.3789 98.7523 44.2617C98.959 44.1445 99.1145 43.9933 99.2189 43.8079C99.3255 43.6225 99.3787 43.4276 99.3787 43.223V42.5327C99.3468 42.571 99.2765 42.6062 99.1678 42.6381C99.0613 42.668 98.9377 42.6946 98.7971 42.718C98.6586 42.7393 98.5233 42.7585 98.3912 42.7756C98.2612 42.7905 98.1557 42.8033 98.0748 42.8139C97.8787 42.8395 97.6955 42.881 97.525 42.9386C97.3567 42.994 97.2203 43.0781 97.1159 43.1911C97.0137 43.3018 96.9625 43.4531 96.9625 43.6449C96.9625 43.907 97.0595 44.1051 97.2534 44.2393C97.4494 44.3714 97.6976 44.4375 97.998 44.4375ZM101.51 45V40.0909H102.264V45H101.51ZM101.893 39.2727C101.746 39.2727 101.619 39.2227 101.513 39.1225C101.408 39.0224 101.356 38.902 101.356 38.7614C101.356 38.6207 101.408 38.5004 101.513 38.4002C101.619 38.3001 101.746 38.25 101.893 38.25C102.04 38.25 102.166 38.3001 102.27 38.4002C102.377 38.5004 102.43 38.6207 102.43 38.7614C102.43 38.902 102.377 39.0224 102.27 39.1225C102.166 39.2227 102.04 39.2727 101.893 39.2727ZM104.4 42.0469V45H103.645V40.0909H104.374V40.858H104.438C104.553 40.6087 104.728 40.4084 104.962 40.2571C105.197 40.1037 105.499 40.027 105.87 40.027C106.202 40.027 106.493 40.0952 106.742 40.2315C106.992 40.3658 107.186 40.5703 107.324 40.8452C107.463 41.1179 107.532 41.4631 107.532 41.8807V45H106.778V41.9318C106.778 41.5462 106.677 41.2457 106.477 41.0305C106.277 40.8132 106.002 40.7045 105.653 40.7045C105.412 40.7045 105.197 40.7567 105.007 40.8612C104.819 40.9656 104.671 41.1179 104.563 41.3182C104.454 41.5185 104.4 41.7614 104.4 42.0469ZM110.968 45.1023C110.495 45.1023 110.087 44.9979 109.744 44.7891C109.403 44.5781 109.14 44.2841 108.955 43.907C108.772 43.5277 108.68 43.0866 108.68 42.5838C108.68 42.081 108.772 41.6378 108.955 41.2543C109.14 40.8686 109.398 40.5682 109.728 40.353C110.061 40.1357 110.448 40.027 110.892 40.027C111.147 40.027 111.4 40.0696 111.649 40.1548C111.898 40.2401 112.125 40.3786 112.33 40.5703C112.534 40.7599 112.697 41.0114 112.819 41.3246C112.94 41.6378 113.001 42.0234 113.001 42.4815V42.8011H109.217V42.1491H112.234C112.234 41.8722 112.179 41.625 112.068 41.4077C111.959 41.1903 111.804 41.0188 111.601 40.8931C111.401 40.7674 111.164 40.7045 110.892 40.7045C110.591 40.7045 110.331 40.7791 110.112 40.9283C109.894 41.0753 109.727 41.267 109.61 41.5036C109.493 41.7401 109.434 41.9936 109.434 42.2642V42.6989C109.434 43.0696 109.498 43.3839 109.626 43.6417C109.756 43.8974 109.936 44.0923 110.166 44.2266C110.396 44.3587 110.664 44.4247 110.968 44.4247C111.166 44.4247 111.345 44.397 111.505 44.3416C111.667 44.2841 111.807 44.1989 111.924 44.0859C112.041 43.9709 112.132 43.8281 112.196 43.6577L112.924 43.8622C112.848 44.1094 112.719 44.3267 112.538 44.5142C112.356 44.6996 112.133 44.8445 111.866 44.9489C111.6 45.0511 111.301 45.1023 110.968 45.1023ZM116.002 45.1023C115.593 45.1023 115.232 44.9989 114.919 44.7923C114.605 44.5835 114.36 44.2894 114.184 43.9102C114.007 43.5288 113.918 43.0781 113.918 42.5582C113.918 42.0426 114.007 41.5952 114.184 41.2159C114.36 40.8366 114.606 40.5437 114.922 40.337C115.237 40.1303 115.601 40.027 116.015 40.027C116.334 40.027 116.587 40.0803 116.772 40.1868C116.96 40.2912 117.103 40.4105 117.201 40.5447C117.301 40.6768 117.378 40.7855 117.434 40.8707H117.498V38.4545H118.252V45H117.523V44.2457H117.434C117.378 44.3352 117.3 44.4482 117.197 44.5845C117.095 44.7187 116.949 44.8391 116.759 44.9457C116.57 45.0501 116.317 45.1023 116.002 45.1023ZM116.104 44.4247C116.407 44.4247 116.663 44.3459 116.871 44.1882C117.08 44.0284 117.239 43.8079 117.348 43.5266C117.456 43.2433 117.511 42.9162 117.511 42.5455C117.511 42.179 117.457 41.8583 117.351 41.5835C117.244 41.3065 117.087 41.0913 116.878 40.9379C116.669 40.7823 116.411 40.7045 116.104 40.7045C115.785 40.7045 115.518 40.7866 115.305 40.9506C115.094 41.1126 114.936 41.3331 114.829 41.6122C114.725 41.8892 114.672 42.2003 114.672 42.5455C114.672 42.8949 114.726 43.2124 114.832 43.4979C114.941 43.7812 115.101 44.0071 115.312 44.1754C115.525 44.3416 115.789 44.4247 116.104 44.4247ZM123.714 45.1151C123.403 45.1151 123.121 45.0565 122.867 44.9393C122.614 44.82 122.412 44.6484 122.263 44.4247C122.114 44.1989 122.039 43.9261 122.039 43.6065C122.039 43.3253 122.095 43.0973 122.206 42.9226C122.316 42.7457 122.464 42.6072 122.65 42.5071C122.835 42.407 123.04 42.3324 123.263 42.2834C123.489 42.2322 123.716 42.1918 123.944 42.1619C124.242 42.1236 124.484 42.0948 124.67 42.0756C124.857 42.0543 124.994 42.0192 125.079 41.9702C125.166 41.9212 125.21 41.8359 125.21 41.7145V41.6889C125.21 41.3736 125.123 41.1286 124.951 40.9538C124.78 40.7791 124.522 40.6918 124.174 40.6918C123.814 40.6918 123.532 40.7706 123.327 40.9283C123.123 41.0859 122.979 41.2543 122.896 41.4332L122.18 41.1776C122.308 40.8793 122.478 40.647 122.691 40.4808C122.907 40.3125 123.141 40.1953 123.394 40.1293C123.65 40.0611 123.902 40.027 124.149 40.027C124.306 40.027 124.487 40.0462 124.692 40.0845C124.899 40.1207 125.098 40.1964 125.29 40.3114C125.484 40.4265 125.644 40.6001 125.772 40.8324C125.9 41.0646 125.964 41.3757 125.964 41.7656V45H125.21V44.3352H125.171C125.12 44.4418 125.035 44.5558 124.916 44.6772C124.796 44.7987 124.638 44.902 124.44 44.9872C124.241 45.0724 124 45.1151 123.714 45.1151ZM123.829 44.4375C124.127 44.4375 124.379 44.3789 124.583 44.2617C124.79 44.1445 124.946 43.9933 125.05 43.8079C125.157 43.6225 125.21 43.4276 125.21 43.223V42.5327C125.178 42.571 125.108 42.6062 124.999 42.6381C124.892 42.668 124.769 42.6946 124.628 42.718C124.49 42.7393 124.354 42.7585 124.222 42.7756C124.092 42.7905 123.987 42.8033 123.906 42.8139C123.71 42.8395 123.527 42.881 123.356 42.9386C123.188 42.994 123.051 43.0781 122.947 43.1911C122.845 43.3018 122.794 43.4531 122.794 43.6449C122.794 43.907 122.891 44.1051 123.084 44.2393C123.28 44.3714 123.529 44.4375 123.829 44.4375ZM128.095 42.0469V45H127.341V40.0909H128.069V40.858H128.133C128.248 40.6087 128.423 40.4084 128.657 40.2571C128.892 40.1037 129.194 40.027 129.565 40.027C129.898 40.027 130.188 40.0952 130.438 40.2315C130.687 40.3658 130.881 40.5703 131.019 40.8452C131.158 41.1179 131.227 41.4631 131.227 41.8807V45H130.473V41.9318C130.473 41.5462 130.373 41.2457 130.172 41.0305C129.972 40.8132 129.697 40.7045 129.348 40.7045C129.107 40.7045 128.892 40.7567 128.702 40.8612C128.515 40.9656 128.367 41.1179 128.258 41.3182C128.149 41.5185 128.095 41.7614 128.095 42.0469ZM134.459 45.1023C134.05 45.1023 133.689 44.9989 133.376 44.7923C133.062 44.5835 132.817 44.2894 132.641 43.9102C132.464 43.5288 132.375 43.0781 132.375 42.5582C132.375 42.0426 132.464 41.5952 132.641 41.2159C132.817 40.8366 133.063 40.5437 133.379 40.337C133.694 40.1303 134.059 40.027 134.472 40.027C134.791 40.027 135.044 40.0803 135.229 40.1868C135.417 40.2912 135.56 40.4105 135.658 40.5447C135.758 40.6768 135.835 40.7855 135.891 40.8707H135.955V38.4545H136.709V45H135.98V44.2457H135.891C135.835 44.3352 135.757 44.4482 135.654 44.5845C135.552 44.7187 135.406 44.8391 135.217 44.9457C135.027 45.0501 134.774 45.1023 134.459 45.1023ZM134.561 44.4247C134.864 44.4247 135.12 44.3459 135.328 44.1882C135.537 44.0284 135.696 43.8079 135.805 43.5266C135.913 43.2433 135.968 42.9162 135.968 42.5455C135.968 42.179 135.914 41.8583 135.808 41.5835C135.701 41.3065 135.544 41.0913 135.335 40.9379C135.126 40.7823 134.868 40.7045 134.561 40.7045C134.242 40.7045 133.975 40.7866 133.762 40.9506C133.551 41.1126 133.393 41.3331 133.286 41.6122C133.182 41.8892 133.13 42.2003 133.13 42.5455C133.13 42.8949 133.183 43.2124 133.289 43.4979C133.398 43.7812 133.558 44.0071 133.769 44.1754C133.982 44.3416 134.246 44.4247 134.561 44.4247ZM144.408 40.0909C144.37 39.767 144.214 39.5156 143.942 39.3366C143.669 39.1577 143.334 39.0682 142.938 39.0682C142.648 39.0682 142.395 39.1151 142.177 39.2088C141.962 39.3026 141.794 39.4315 141.672 39.5955C141.553 39.7596 141.494 39.946 141.494 40.1548C141.494 40.3295 141.535 40.4798 141.618 40.6055C141.703 40.729 141.812 40.8324 141.944 40.9155C142.076 40.9964 142.215 41.0636 142.36 41.1168C142.505 41.168 142.638 41.2095 142.759 41.2415L143.424 41.4205C143.594 41.4652 143.784 41.527 143.993 41.6058C144.204 41.6847 144.405 41.7923 144.597 41.9286C144.791 42.0629 144.951 42.2354 145.076 42.4464C145.202 42.6573 145.265 42.9162 145.265 43.223C145.265 43.5767 145.172 43.8963 144.987 44.1818C144.804 44.4673 144.535 44.6942 144.181 44.8626C143.83 45.0309 143.403 45.1151 142.9 45.1151C142.431 45.1151 142.025 45.0394 141.682 44.8881C141.341 44.7369 141.073 44.5259 140.877 44.2553C140.683 43.9847 140.573 43.6705 140.547 43.3125H141.366C141.387 43.5597 141.47 43.7642 141.615 43.9261C141.762 44.0859 141.947 44.2053 142.171 44.2841C142.397 44.3608 142.64 44.3991 142.9 44.3991C143.202 44.3991 143.474 44.3501 143.715 44.2521C143.956 44.152 144.146 44.0135 144.287 43.8366C144.427 43.6577 144.498 43.4489 144.498 43.2102C144.498 42.9929 144.437 42.8161 144.316 42.6797C144.194 42.5433 144.034 42.4325 143.836 42.3473C143.638 42.2621 143.424 42.1875 143.194 42.1236L142.388 41.8935C141.877 41.7464 141.472 41.5366 141.174 41.2638C140.876 40.9911 140.726 40.6342 140.726 40.1932C140.726 39.8267 140.826 39.5071 141.024 39.2344C141.224 38.9595 141.492 38.7464 141.829 38.5952C142.168 38.4418 142.546 38.3651 142.964 38.3651C143.386 38.3651 143.761 38.4407 144.089 38.592C144.417 38.7411 144.677 38.9457 144.869 39.2056C145.062 39.4656 145.165 39.7607 145.175 40.0909H144.408ZM149.559 42.9929V40.0909H150.314V45H149.559V44.169H149.508C149.393 44.4183 149.214 44.6303 148.971 44.805C148.729 44.9776 148.422 45.0639 148.051 45.0639C147.744 45.0639 147.471 44.9968 147.233 44.8626C146.994 44.7262 146.807 44.5217 146.67 44.2489C146.534 43.9741 146.466 43.6278 146.466 43.2102V40.0909H147.22V43.1591C147.22 43.517 147.32 43.8026 147.52 44.0156C147.723 44.2287 147.981 44.3352 148.294 44.3352C148.481 44.3352 148.672 44.2873 148.866 44.1914C149.062 44.0955 149.226 43.9485 149.358 43.7504C149.492 43.5522 149.559 43.2997 149.559 42.9929ZM151.695 46.8409V40.0909H152.424V40.8707H152.513C152.569 40.7855 152.646 40.6768 152.744 40.5447C152.844 40.4105 152.986 40.2912 153.172 40.1868C153.359 40.0803 153.613 40.027 153.932 40.027C154.346 40.027 154.71 40.1303 155.025 40.337C155.341 40.5437 155.587 40.8366 155.764 41.2159C155.941 41.5952 156.029 42.0426 156.029 42.5582C156.029 43.0781 155.941 43.5288 155.764 43.9102C155.587 44.2894 155.342 44.5835 155.029 44.7923C154.715 44.9989 154.354 45.1023 153.945 45.1023C153.63 45.1023 153.377 45.0501 153.188 44.9457C152.998 44.8391 152.852 44.7187 152.75 44.5845C152.648 44.4482 152.569 44.3352 152.513 44.2457H152.449V46.8409H151.695ZM152.437 42.5455C152.437 42.9162 152.491 43.2433 152.6 43.5266C152.708 43.8079 152.867 44.0284 153.076 44.1882C153.285 44.3459 153.54 44.4247 153.843 44.4247C154.158 44.4247 154.421 44.3416 154.632 44.1754C154.845 44.0071 155.005 43.7812 155.112 43.4979C155.22 43.2124 155.275 42.8949 155.275 42.5455C155.275 42.2003 155.222 41.8892 155.115 41.6122C155.011 41.3331 154.852 41.1126 154.639 40.9506C154.428 40.7866 154.163 40.7045 153.843 40.7045C153.536 40.7045 153.278 40.7823 153.07 40.9379C152.861 41.0913 152.703 41.3065 152.597 41.5835C152.49 41.8583 152.437 42.179 152.437 42.5455ZM157.18 46.8409V40.0909H157.908V40.8707H157.998C158.053 40.7855 158.13 40.6768 158.228 40.5447C158.328 40.4105 158.471 40.2912 158.656 40.1868C158.844 40.0803 159.097 40.027 159.417 40.027C159.83 40.027 160.195 40.1303 160.51 40.337C160.825 40.5437 161.071 40.8366 161.248 41.2159C161.425 41.5952 161.513 42.0426 161.513 42.5582C161.513 43.0781 161.425 43.5288 161.248 43.9102C161.071 44.2894 160.826 44.5835 160.513 44.7923C160.2 44.9989 159.839 45.1023 159.43 45.1023C159.114 45.1023 158.862 45.0501 158.672 44.9457C158.483 44.8391 158.337 44.7187 158.234 44.5845C158.132 44.4482 158.053 44.3352 157.998 44.2457H157.934V46.8409H157.18ZM157.921 42.5455C157.921 42.9162 157.975 43.2433 158.084 43.5266C158.193 43.8079 158.351 44.0284 158.56 44.1882C158.769 44.3459 159.025 44.4247 159.327 44.4247C159.643 44.4247 159.906 44.3416 160.117 44.1754C160.33 44.0071 160.49 43.7812 160.596 43.4979C160.705 43.2124 160.759 42.8949 160.759 42.5455C160.759 42.2003 160.706 41.8892 160.599 41.6122C160.495 41.3331 160.336 41.1126 160.123 40.9506C159.912 40.7866 159.647 40.7045 159.327 40.7045C159.021 40.7045 158.763 40.7823 158.554 40.9379C158.345 41.0913 158.187 41.3065 158.081 41.5835C157.974 41.8583 157.921 42.179 157.921 42.5455ZM164.658 45.1023C164.215 45.1023 163.826 44.9968 163.492 44.7859C163.159 44.5749 162.899 44.2798 162.712 43.9006C162.527 43.5213 162.434 43.0781 162.434 42.571C162.434 42.0597 162.527 41.6133 162.712 41.2319C162.899 40.8505 163.159 40.5543 163.492 40.3434C163.826 40.1325 164.215 40.027 164.658 40.027C165.101 40.027 165.489 40.1325 165.822 40.3434C166.156 40.5543 166.416 40.8505 166.601 41.2319C166.789 41.6133 166.883 42.0597 166.883 42.571C166.883 43.0781 166.789 43.5213 166.601 43.9006C166.416 44.2798 166.156 44.5749 165.822 44.7859C165.489 44.9968 165.101 45.1023 164.658 45.1023ZM164.658 44.4247C164.995 44.4247 165.272 44.3384 165.489 44.1658C165.707 43.9933 165.867 43.7663 165.972 43.4851C166.076 43.2038 166.128 42.8991 166.128 42.571C166.128 42.2429 166.076 41.9371 165.972 41.6538C165.867 41.3704 165.707 41.1413 165.489 40.9666C165.272 40.7919 164.995 40.7045 164.658 40.7045C164.322 40.7045 164.045 40.7919 163.827 40.9666C163.61 41.1413 163.449 41.3704 163.345 41.6538C163.24 41.9371 163.188 42.2429 163.188 42.571C163.188 42.8991 163.24 43.2038 163.345 43.4851C163.449 43.7663 163.61 43.9933 163.827 44.1658C164.045 44.3384 164.322 44.4247 164.658 44.4247ZM168.034 45V40.0909H168.763V40.8324H168.814C168.903 40.5895 169.065 40.3924 169.3 40.2411C169.534 40.0898 169.798 40.0142 170.092 40.0142C170.148 40.0142 170.217 40.0153 170.3 40.0174C170.383 40.0195 170.446 40.0227 170.489 40.027V40.794C170.463 40.7876 170.404 40.7781 170.313 40.7653C170.223 40.7504 170.129 40.7429 170.028 40.7429C169.79 40.7429 169.577 40.793 169.389 40.8931C169.204 40.9911 169.057 41.1275 168.948 41.3022C168.842 41.4748 168.788 41.6719 168.788 41.8935V45H168.034ZM173.825 40.0909V40.7301H171.281V40.0909H173.825ZM172.023 38.9148H172.777V43.5938C172.777 43.8068 172.808 43.9666 172.87 44.0732C172.934 44.1776 173.015 44.2479 173.113 44.2841C173.213 44.3182 173.318 44.3352 173.429 44.3352C173.512 44.3352 173.58 44.331 173.634 44.3224C173.687 44.3118 173.729 44.3033 173.761 44.2969L173.915 44.9744C173.864 44.9936 173.792 45.0128 173.701 45.032C173.609 45.0533 173.493 45.0639 173.352 45.0639C173.139 45.0639 172.93 45.0181 172.726 44.9265C172.523 44.8349 172.355 44.6953 172.221 44.5078C172.089 44.3203 172.023 44.0838 172.023 43.7983V38.9148ZM176.965 45.1023C176.492 45.1023 176.084 44.9979 175.741 44.7891C175.4 44.5781 175.137 44.2841 174.952 43.907C174.769 43.5277 174.677 43.0866 174.677 42.5838C174.677 42.081 174.769 41.6378 174.952 41.2543C175.137 40.8686 175.395 40.5682 175.725 40.353C176.058 40.1357 176.445 40.027 176.889 40.027C177.144 40.027 177.397 40.0696 177.646 40.1548C177.895 40.2401 178.122 40.3786 178.327 40.5703C178.531 40.7599 178.694 41.0114 178.816 41.3246C178.937 41.6378 178.998 42.0234 178.998 42.4815V42.8011H175.214V42.1491H178.231C178.231 41.8722 178.176 41.625 178.065 41.4077C177.956 41.1903 177.801 41.0188 177.598 40.8931C177.398 40.7674 177.161 40.7045 176.889 40.7045C176.588 40.7045 176.328 40.7791 176.109 40.9283C175.892 41.0753 175.724 41.267 175.607 41.5036C175.49 41.7401 175.431 41.9936 175.431 42.2642V42.6989C175.431 43.0696 175.495 43.3839 175.623 43.6417C175.753 43.8974 175.933 44.0923 176.163 44.2266C176.393 44.3587 176.661 44.4247 176.965 44.4247C177.164 44.4247 177.343 44.397 177.502 44.3416C177.664 44.2841 177.804 44.1989 177.921 44.0859C178.038 43.9709 178.129 43.8281 178.193 43.6577L178.921 43.8622C178.845 44.1094 178.716 44.3267 178.535 44.5142C178.354 44.6996 178.13 44.8445 177.863 44.9489C177.597 45.0511 177.298 45.1023 176.965 45.1023ZM181.999 45.1023C181.59 45.1023 181.229 44.9989 180.916 44.7923C180.602 44.5835 180.357 44.2894 180.181 43.9102C180.004 43.5288 179.915 43.0781 179.915 42.5582C179.915 42.0426 180.004 41.5952 180.181 41.2159C180.357 40.8366 180.604 40.5437 180.919 40.337C181.234 40.1303 181.599 40.027 182.012 40.027C182.331 40.027 182.584 40.0803 182.769 40.1868C182.957 40.2912 183.1 40.4105 183.198 40.5447C183.298 40.6768 183.376 40.7855 183.431 40.8707H183.495V38.4545H184.249V45H183.52V44.2457H183.431C183.376 44.3352 183.297 44.4482 183.194 44.5845C183.092 44.7187 182.946 44.8391 182.757 44.9457C182.567 45.0501 182.314 45.1023 181.999 45.1023ZM182.101 44.4247C182.404 44.4247 182.66 44.3459 182.868 44.1882C183.077 44.0284 183.236 43.8079 183.345 43.5266C183.453 43.2433 183.508 42.9162 183.508 42.5455C183.508 42.179 183.454 41.8583 183.348 41.5835C183.241 41.3065 183.084 41.0913 182.875 40.9379C182.666 40.7823 182.408 40.7045 182.101 40.7045C181.782 40.7045 181.515 40.7866 181.302 40.9506C181.091 41.1126 180.933 41.3331 180.826 41.6122C180.722 41.8892 180.67 42.2003 180.67 42.5455C180.67 42.8949 180.723 43.2124 180.829 43.4979C180.938 43.7812 181.098 44.0071 181.309 44.1754C181.522 44.3416 181.786 44.4247 182.101 44.4247ZM188.369 45V38.4545H189.123V40.8707H189.187C189.242 40.7855 189.319 40.6768 189.417 40.5447C189.517 40.4105 189.66 40.2912 189.845 40.1868C190.033 40.0803 190.286 40.027 190.606 40.027C191.019 40.027 191.384 40.1303 191.699 40.337C192.014 40.5437 192.26 40.8366 192.437 41.2159C192.614 41.5952 192.703 42.0426 192.703 42.5582C192.703 43.0781 192.614 43.5288 192.437 43.9102C192.26 44.2894 192.015 44.5835 191.702 44.7923C191.389 44.9989 191.028 45.1023 190.619 45.1023C190.303 45.1023 190.051 45.0501 189.861 44.9457C189.672 44.8391 189.526 44.7187 189.423 44.5845C189.321 44.4482 189.242 44.3352 189.187 44.2457H189.097V45H188.369ZM189.11 42.5455C189.11 42.9162 189.165 43.2433 189.273 43.5266C189.382 43.8079 189.541 44.0284 189.749 44.1882C189.958 44.3459 190.214 44.4247 190.517 44.4247C190.832 44.4247 191.095 44.3416 191.306 44.1754C191.519 44.0071 191.679 43.7812 191.785 43.4979C191.894 43.2124 191.948 42.8949 191.948 42.5455C191.948 42.2003 191.895 41.8892 191.789 41.6122C191.684 41.3331 191.525 41.1126 191.312 40.9506C191.101 40.7866 190.836 40.7045 190.517 40.7045C190.21 40.7045 189.952 40.7823 189.743 40.9379C189.534 41.0913 189.377 41.3065 189.27 41.5835C189.164 41.8583 189.11 42.179 189.11 42.5455ZM194.166 46.8409C194.039 46.8409 193.925 46.8303 193.824 46.8089C193.724 46.7898 193.655 46.7706 193.617 46.7514L193.808 46.0866C193.992 46.1335 194.154 46.1506 194.294 46.1378C194.435 46.125 194.559 46.0621 194.668 45.9492C194.779 45.8384 194.88 45.6584 194.972 45.4091L195.112 45.0256L193.297 40.0909H194.115L195.47 44.0028H195.521L196.877 40.0909H197.695L195.611 45.7159C195.517 45.9695 195.401 46.1793 195.263 46.3455C195.124 46.5138 194.963 46.6385 194.78 46.7195C194.599 46.8004 194.394 46.8409 194.166 46.8409Z" fill="#6C757D"/>
<path d="M65.638 54.724C65.638 55.444 65.5 56.047 65.224 56.533C64.948 57.019 64.546 57.385 64.018 57.631C63.496 57.877 62.866 58 62.128 58H60.31V51.574H62.326C62.998 51.574 63.58 51.694 64.072 51.934C64.57 52.174 64.954 52.528 65.224 52.996C65.5 53.458 65.638 54.034 65.638 54.724ZM64.225 54.76C64.225 54.286 64.156 53.896 64.018 53.59C63.88 53.284 63.673 53.059 63.397 52.915C63.127 52.765 62.794 52.69 62.398 52.69H61.669V56.875H62.254C62.92 56.875 63.415 56.698 63.739 56.344C64.063 55.99 64.225 55.462 64.225 54.76ZM66.1621 53.086H67.6291L68.5561 55.849C68.5861 55.939 68.6101 56.029 68.6281 56.119C68.6521 56.209 68.6701 56.302 68.6821 56.398C68.7001 56.494 68.7121 56.596 68.7181 56.704H68.7451C68.7631 56.548 68.7871 56.401 68.8171 56.263C68.8531 56.119 68.8921 55.981 68.9341 55.849L69.8431 53.086H71.2831L69.2041 58.63C69.0781 58.966 68.9131 59.248 68.7091 59.476C68.5111 59.704 68.2801 59.875 68.0161 59.989C67.7521 60.103 67.4641 60.16 67.1521 60.16C67.0021 60.16 66.8701 60.151 66.7561 60.133C66.6481 60.121 66.5521 60.106 66.4681 60.088V59.026C66.5341 59.038 66.6121 59.05 66.7021 59.062C66.7981 59.074 66.8971 59.08 66.9991 59.08C67.1851 59.08 67.3441 59.041 67.4761 58.963C67.6141 58.885 67.7281 58.777 67.8181 58.639C67.9081 58.507 67.9801 58.363 68.0341 58.207L68.1151 57.964L66.1621 53.086ZM74.7781 52.996C75.3061 52.996 75.7291 53.14 76.0471 53.428C76.3651 53.71 76.5241 54.166 76.5241 54.796V58H75.1831V55.129C75.1831 54.775 75.1201 54.511 74.9941 54.337C74.8681 54.157 74.6671 54.067 74.3911 54.067C73.9831 54.067 73.7041 54.208 73.5541 54.49C73.4041 54.766 73.3291 55.165 73.3291 55.687V58H71.9881V53.086H73.0141L73.1941 53.716H73.2661C73.3741 53.548 73.5061 53.413 73.6621 53.311C73.8181 53.203 73.9921 53.125 74.1841 53.077C74.3761 53.023 74.5741 52.996 74.7781 52.996ZM79.9192 52.987C80.5792 52.987 81.0832 53.131 81.4312 53.419C81.7852 53.701 81.9622 54.136 81.9622 54.724V58H81.0262L80.7652 57.334H80.7292C80.5912 57.508 80.4472 57.652 80.2972 57.766C80.1532 57.88 79.9852 57.961 79.7932 58.009C79.6072 58.063 79.3762 58.09 79.1002 58.09C78.8122 58.09 78.5512 58.036 78.3172 57.928C78.0892 57.814 77.9092 57.643 77.7772 57.415C77.6452 57.181 77.5792 56.887 77.5792 56.533C77.5792 56.011 77.7622 55.627 78.1282 55.381C78.4942 55.129 79.0432 54.991 79.7752 54.967L80.6302 54.94V54.724C80.6302 54.466 80.5612 54.277 80.4232 54.157C80.2912 54.037 80.1052 53.977 79.8652 53.977C79.6252 53.977 79.3912 54.013 79.1632 54.085C78.9352 54.151 78.7072 54.235 78.4792 54.337L78.0382 53.428C78.3022 53.29 78.5932 53.182 78.9112 53.104C79.2352 53.026 79.5712 52.987 79.9192 52.987ZM80.1082 55.741C79.6762 55.753 79.3762 55.831 79.2082 55.975C79.0402 56.119 78.9562 56.308 78.9562 56.542C78.9562 56.746 79.0162 56.893 79.1362 56.983C79.2562 57.067 79.4122 57.109 79.6042 57.109C79.8922 57.109 80.1352 57.025 80.3332 56.857C80.5312 56.683 80.6302 56.44 80.6302 56.128V55.723L80.1082 55.741ZM89.1038 52.996C89.6618 52.996 90.0818 53.14 90.3638 53.428C90.6518 53.71 90.7958 54.166 90.7958 54.796V58H89.4548V55.129C89.4548 54.775 89.3948 54.511 89.2748 54.337C89.1548 54.157 88.9688 54.067 88.7168 54.067C88.3628 54.067 88.1108 54.193 87.9608 54.445C87.8108 54.697 87.7358 55.06 87.7358 55.534V58H86.3948V55.129C86.3948 54.895 86.3678 54.7 86.3138 54.544C86.2598 54.388 86.1788 54.271 86.0708 54.193C85.9628 54.109 85.8248 54.067 85.6568 54.067C85.4108 54.067 85.2158 54.13 85.0718 54.256C84.9278 54.382 84.8258 54.565 84.7658 54.805C84.7058 55.045 84.6758 55.339 84.6758 55.687V58H83.3348V53.086H84.3608L84.5408 53.716H84.6128C84.7148 53.548 84.8408 53.413 84.9908 53.311C85.1408 53.203 85.3058 53.125 85.4858 53.077C85.6718 53.023 85.8578 52.996 86.0438 52.996C86.4038 52.996 86.7098 53.056 86.9618 53.176C87.2138 53.29 87.4058 53.47 87.5378 53.716H87.6548C87.8048 53.464 88.0118 53.281 88.2758 53.167C88.5458 53.053 88.8218 52.996 89.1038 52.996ZM93.5176 53.086V58H92.1766V53.086H93.5176ZM92.8516 51.16C93.0496 51.16 93.2206 51.208 93.3646 51.304C93.5086 51.394 93.5806 51.565 93.5806 51.817C93.5806 52.063 93.5086 52.234 93.3646 52.33C93.2206 52.426 93.0496 52.474 92.8516 52.474C92.6476 52.474 92.4736 52.426 92.3296 52.33C92.1916 52.234 92.1226 52.063 92.1226 51.817C92.1226 51.565 92.1916 51.394 92.3296 51.304C92.4736 51.208 92.6476 51.16 92.8516 51.16ZM96.9168 58.09C96.4308 58.09 96.0168 58.003 95.6748 57.829C95.3328 57.649 95.0718 57.373 94.8918 57.001C94.7118 56.629 94.6218 56.152 94.6218 55.57C94.6218 54.97 94.7238 54.481 94.9278 54.103C95.1318 53.725 95.4138 53.446 95.7738 53.266C96.1398 53.086 96.5598 52.996 97.0338 52.996C97.3698 52.996 97.6608 53.029 97.9068 53.095C98.1588 53.161 98.3778 53.239 98.5638 53.329L98.1678 54.364C97.9578 54.28 97.7598 54.211 97.5738 54.157C97.3938 54.103 97.2138 54.076 97.0338 54.076C96.7998 54.076 96.6048 54.133 96.4488 54.247C96.2928 54.355 96.1758 54.52 96.0978 54.742C96.0258 54.958 95.9898 55.231 95.9898 55.561C95.9898 55.885 96.0288 56.155 96.1068 56.371C96.1908 56.581 96.3108 56.74 96.4668 56.848C96.6228 56.95 96.8118 57.001 97.0338 57.001C97.3158 57.001 97.5648 56.965 97.7808 56.893C97.9968 56.815 98.2068 56.71 98.4108 56.578V57.721C98.2068 57.853 97.9908 57.946 97.7628 58C97.5408 58.06 97.2588 58.09 96.9168 58.09ZM105.777 56.218C105.777 56.596 105.684 56.926 105.498 57.208C105.312 57.49 105.042 57.709 104.688 57.865C104.34 58.015 103.914 58.09 103.41 58.09C103.188 58.09 102.969 58.075 102.753 58.045C102.543 58.015 102.339 57.973 102.141 57.919C101.949 57.859 101.766 57.787 101.592 57.703V56.434C101.898 56.566 102.213 56.689 102.537 56.803C102.867 56.911 103.194 56.965 103.518 56.965C103.74 56.965 103.917 56.935 104.049 56.875C104.187 56.815 104.286 56.734 104.346 56.632C104.412 56.53 104.445 56.413 104.445 56.281C104.445 56.119 104.388 55.981 104.274 55.867C104.166 55.753 104.019 55.648 103.833 55.552C103.647 55.45 103.434 55.342 103.194 55.228C103.044 55.156 102.882 55.072 102.708 54.976C102.534 54.874 102.366 54.751 102.204 54.607C102.048 54.457 101.919 54.277 101.817 54.067C101.715 53.857 101.664 53.605 101.664 53.311C101.664 52.927 101.751 52.6 101.925 52.33C102.105 52.054 102.357 51.844 102.681 51.7C103.011 51.556 103.398 51.484 103.842 51.484C104.178 51.484 104.496 51.523 104.796 51.601C105.102 51.679 105.42 51.79 105.75 51.934L105.309 52.996C105.015 52.876 104.751 52.783 104.517 52.717C104.283 52.651 104.043 52.618 103.797 52.618C103.629 52.618 103.485 52.645 103.365 52.699C103.245 52.753 103.152 52.828 103.086 52.924C103.026 53.02 102.996 53.134 102.996 53.266C102.996 53.416 103.041 53.545 103.131 53.653C103.221 53.755 103.356 53.854 103.536 53.95C103.716 54.046 103.941 54.16 104.211 54.292C104.541 54.448 104.82 54.61 105.048 54.778C105.282 54.946 105.462 55.144 105.588 55.372C105.714 55.6 105.777 55.882 105.777 56.218ZM111.301 55.534C111.301 55.942 111.244 56.305 111.13 56.623C111.022 56.941 110.863 57.211 110.653 57.433C110.449 57.649 110.2 57.814 109.906 57.928C109.612 58.036 109.279 58.09 108.907 58.09C108.565 58.09 108.247 58.036 107.953 57.928C107.665 57.814 107.416 57.649 107.206 57.433C106.996 57.211 106.831 56.941 106.711 56.623C106.597 56.305 106.54 55.942 106.54 55.534C106.54 54.988 106.636 54.529 106.828 54.157C107.02 53.779 107.296 53.491 107.656 53.293C108.016 53.095 108.442 52.996 108.934 52.996C109.396 52.996 109.804 53.095 110.158 53.293C110.512 53.491 110.791 53.779 110.995 54.157C111.199 54.529 111.301 54.988 111.301 55.534ZM107.908 55.534C107.908 55.858 107.941 56.131 108.007 56.353C108.079 56.569 108.19 56.734 108.34 56.848C108.49 56.956 108.685 57.01 108.925 57.01C109.165 57.01 109.357 56.956 109.501 56.848C109.651 56.734 109.759 56.569 109.825 56.353C109.897 56.131 109.933 55.858 109.933 55.534C109.933 55.21 109.897 54.94 109.825 54.724C109.759 54.508 109.651 54.346 109.501 54.238C109.351 54.13 109.156 54.076 108.916 54.076C108.562 54.076 108.304 54.199 108.142 54.445C107.986 54.685 107.908 55.048 107.908 55.534ZM113.75 58H112.409V51.16H113.75V58ZM119.66 53.086V58H118.634L118.454 57.37H118.382C118.28 57.538 118.148 57.676 117.986 57.784C117.83 57.886 117.656 57.961 117.464 58.009C117.272 58.063 117.074 58.09 116.87 58.09C116.522 58.09 116.216 58.027 115.952 57.901C115.688 57.775 115.484 57.58 115.34 57.316C115.196 57.052 115.124 56.71 115.124 56.29V53.086H116.465V55.957C116.465 56.305 116.528 56.569 116.654 56.749C116.78 56.929 116.981 57.019 117.257 57.019C117.533 57.019 117.746 56.956 117.896 56.83C118.052 56.704 118.16 56.521 118.22 56.281C118.286 56.041 118.319 55.747 118.319 55.399V53.086H119.66ZM123.136 57.019C123.286 57.019 123.43 57.004 123.568 56.974C123.706 56.944 123.844 56.908 123.982 56.866V57.865C123.838 57.925 123.658 57.976 123.442 58.018C123.232 58.066 123.001 58.09 122.749 58.09C122.455 58.09 122.191 58.042 121.957 57.946C121.729 57.85 121.546 57.685 121.408 57.451C121.276 57.211 121.21 56.881 121.21 56.461V54.094H120.571V53.527L121.309 53.077L121.696 52.042H122.551V53.086H123.928V54.094H122.551V56.461C122.551 56.647 122.605 56.788 122.713 56.884C122.821 56.974 122.962 57.019 123.136 57.019ZM126.31 53.086V58H124.969V53.086H126.31ZM125.644 51.16C125.842 51.16 126.013 51.208 126.157 51.304C126.301 51.394 126.373 51.565 126.373 51.817C126.373 52.063 126.301 52.234 126.157 52.33C126.013 52.426 125.842 52.474 125.644 52.474C125.44 52.474 125.266 52.426 125.122 52.33C124.984 52.234 124.915 52.063 124.915 51.817C124.915 51.565 124.984 51.394 125.122 51.304C125.266 51.208 125.44 51.16 125.644 51.16ZM132.175 55.534C132.175 55.942 132.118 56.305 132.004 56.623C131.896 56.941 131.737 57.211 131.527 57.433C131.323 57.649 131.074 57.814 130.78 57.928C130.486 58.036 130.153 58.09 129.781 58.09C129.439 58.09 129.121 58.036 128.827 57.928C128.539 57.814 128.29 57.649 128.08 57.433C127.87 57.211 127.705 56.941 127.585 56.623C127.471 56.305 127.414 55.942 127.414 55.534C127.414 54.988 127.51 54.529 127.702 54.157C127.894 53.779 128.17 53.491 128.53 53.293C128.89 53.095 129.316 52.996 129.808 52.996C130.27 52.996 130.678 53.095 131.032 53.293C131.386 53.491 131.665 53.779 131.869 54.157C132.073 54.529 132.175 54.988 132.175 55.534ZM128.782 55.534C128.782 55.858 128.815 56.131 128.881 56.353C128.953 56.569 129.064 56.734 129.214 56.848C129.364 56.956 129.559 57.01 129.799 57.01C130.039 57.01 130.231 56.956 130.375 56.848C130.525 56.734 130.633 56.569 130.699 56.353C130.771 56.131 130.807 55.858 130.807 55.534C130.807 55.21 130.771 54.94 130.699 54.724C130.633 54.508 130.525 54.346 130.375 54.238C130.225 54.13 130.03 54.076 129.79 54.076C129.436 54.076 129.178 54.199 129.016 54.445C128.86 54.685 128.782 55.048 128.782 55.534ZM136.073 52.996C136.601 52.996 137.024 53.14 137.342 53.428C137.66 53.71 137.819 54.166 137.819 54.796V58H136.478V55.129C136.478 54.775 136.415 54.511 136.289 54.337C136.163 54.157 135.962 54.067 135.686 54.067C135.278 54.067 134.999 54.208 134.849 54.49C134.699 54.766 134.624 55.165 134.624 55.687V58H133.283V53.086H134.309L134.489 53.716H134.561C134.669 53.548 134.801 53.413 134.957 53.311C135.113 53.203 135.287 53.125 135.479 53.077C135.671 53.023 135.869 52.996 136.073 52.996ZM144.047 58H141.122V57.226L141.905 56.866V52.708L141.122 52.348V51.574H144.047V52.348L143.264 52.708V56.866L144.047 57.226V58ZM147.824 52.996C148.352 52.996 148.775 53.14 149.093 53.428C149.411 53.71 149.57 54.166 149.57 54.796V58H148.229V55.129C148.229 54.775 148.166 54.511 148.04 54.337C147.914 54.157 147.713 54.067 147.437 54.067C147.029 54.067 146.75 54.208 146.6 54.49C146.45 54.766 146.375 55.165 146.375 55.687V58H145.034V53.086H146.06L146.24 53.716H146.312C146.42 53.548 146.552 53.413 146.708 53.311C146.864 53.203 147.038 53.125 147.23 53.077C147.422 53.023 147.62 52.996 147.824 52.996ZM153.739 52.996C154.267 52.996 154.69 53.14 155.008 53.428C155.326 53.71 155.485 54.166 155.485 54.796V58H154.144V55.129C154.144 54.775 154.081 54.511 153.955 54.337C153.829 54.157 153.628 54.067 153.352 54.067C152.944 54.067 152.665 54.208 152.515 54.49C152.365 54.766 152.29 55.165 152.29 55.687V58H150.949V53.086H151.975L152.155 53.716H152.227C152.335 53.548 152.467 53.413 152.623 53.311C152.779 53.203 152.953 53.125 153.145 53.077C153.337 53.023 153.535 52.996 153.739 52.996ZM161.328 55.534C161.328 55.942 161.271 56.305 161.157 56.623C161.049 56.941 160.89 57.211 160.68 57.433C160.476 57.649 160.227 57.814 159.933 57.928C159.639 58.036 159.306 58.09 158.934 58.09C158.592 58.09 158.274 58.036 157.98 57.928C157.692 57.814 157.443 57.649 157.233 57.433C157.023 57.211 156.858 56.941 156.738 56.623C156.624 56.305 156.567 55.942 156.567 55.534C156.567 54.988 156.663 54.529 156.855 54.157C157.047 53.779 157.323 53.491 157.683 53.293C158.043 53.095 158.469 52.996 158.961 52.996C159.423 52.996 159.831 53.095 160.185 53.293C160.539 53.491 160.818 53.779 161.022 54.157C161.226 54.529 161.328 54.988 161.328 55.534ZM157.935 55.534C157.935 55.858 157.968 56.131 158.034 56.353C158.106 56.569 158.217 56.734 158.367 56.848C158.517 56.956 158.712 57.01 158.952 57.01C159.192 57.01 159.384 56.956 159.528 56.848C159.678 56.734 159.786 56.569 159.852 56.353C159.924 56.131 159.96 55.858 159.96 55.534C159.96 55.21 159.924 54.94 159.852 54.724C159.786 54.508 159.678 54.346 159.528 54.238C159.378 54.13 159.183 54.076 158.943 54.076C158.589 54.076 158.331 54.199 158.169 54.445C158.013 54.685 157.935 55.048 157.935 55.534ZM163.431 58L161.559 53.086H162.963L163.908 55.885C163.944 55.993 163.974 56.107 163.998 56.227C164.028 56.347 164.049 56.464 164.061 56.578C164.079 56.692 164.091 56.797 164.097 56.893H164.133C164.139 56.791 164.151 56.683 164.169 56.569C164.187 56.455 164.208 56.341 164.232 56.227C164.262 56.107 164.295 55.993 164.331 55.885L165.276 53.086H166.68L164.808 58H163.431ZM169.401 52.987C170.061 52.987 170.565 53.131 170.913 53.419C171.267 53.701 171.444 54.136 171.444 54.724V58H170.508L170.247 57.334H170.211C170.073 57.508 169.929 57.652 169.779 57.766C169.635 57.88 169.467 57.961 169.275 58.009C169.089 58.063 168.858 58.09 168.582 58.09C168.294 58.09 168.033 58.036 167.799 57.928C167.571 57.814 167.391 57.643 167.259 57.415C167.127 57.181 167.061 56.887 167.061 56.533C167.061 56.011 167.244 55.627 167.61 55.381C167.976 55.129 168.525 54.991 169.257 54.967L170.112 54.94V54.724C170.112 54.466 170.043 54.277 169.905 54.157C169.773 54.037 169.587 53.977 169.347 53.977C169.107 53.977 168.873 54.013 168.645 54.085C168.417 54.151 168.189 54.235 167.961 54.337L167.52 53.428C167.784 53.29 168.075 53.182 168.393 53.104C168.717 53.026 169.053 52.987 169.401 52.987ZM169.59 55.741C169.158 55.753 168.858 55.831 168.69 55.975C168.522 56.119 168.438 56.308 168.438 56.542C168.438 56.746 168.498 56.893 168.618 56.983C168.738 57.067 168.894 57.109 169.086 57.109C169.374 57.109 169.617 57.025 169.815 56.857C170.013 56.683 170.112 56.44 170.112 56.128V55.723L169.59 55.741ZM174.886 57.019C175.036 57.019 175.18 57.004 175.318 56.974C175.456 56.944 175.594 56.908 175.732 56.866V57.865C175.588 57.925 175.408 57.976 175.192 58.018C174.982 58.066 174.751 58.09 174.499 58.09C174.205 58.09 173.941 58.042 173.707 57.946C173.479 57.85 173.296 57.685 173.158 57.451C173.026 57.211 172.96 56.881 172.96 56.461V54.094H172.321V53.527L173.059 53.077L173.446 52.042H174.301V53.086H175.678V54.094H174.301V56.461C174.301 56.647 174.355 56.788 174.463 56.884C174.571 56.974 174.712 57.019 174.886 57.019ZM181.183 55.534C181.183 55.942 181.126 56.305 181.012 56.623C180.904 56.941 180.745 57.211 180.535 57.433C180.331 57.649 180.082 57.814 179.788 57.928C179.494 58.036 179.161 58.09 178.789 58.09C178.447 58.09 178.129 58.036 177.835 57.928C177.547 57.814 177.298 57.649 177.088 57.433C176.878 57.211 176.713 56.941 176.593 56.623C176.479 56.305 176.422 55.942 176.422 55.534C176.422 54.988 176.518 54.529 176.71 54.157C176.902 53.779 177.178 53.491 177.538 53.293C177.898 53.095 178.324 52.996 178.816 52.996C179.278 52.996 179.686 53.095 180.04 53.293C180.394 53.491 180.673 53.779 180.877 54.157C181.081 54.529 181.183 54.988 181.183 55.534ZM177.79 55.534C177.79 55.858 177.823 56.131 177.889 56.353C177.961 56.569 178.072 56.734 178.222 56.848C178.372 56.956 178.567 57.01 178.807 57.01C179.047 57.01 179.239 56.956 179.383 56.848C179.533 56.734 179.641 56.569 179.707 56.353C179.779 56.131 179.815 55.858 179.815 55.534C179.815 55.21 179.779 54.94 179.707 54.724C179.641 54.508 179.533 54.346 179.383 54.238C179.233 54.13 179.038 54.076 178.798 54.076C178.444 54.076 178.186 54.199 178.024 54.445C177.868 54.685 177.79 55.048 177.79 55.534ZM185.036 52.996C185.102 52.996 185.18 52.999 185.27 53.005C185.36 53.011 185.432 53.02 185.486 53.032L185.387 54.292C185.345 54.28 185.282 54.271 185.198 54.265C185.12 54.253 185.051 54.247 184.991 54.247C184.817 54.247 184.649 54.271 184.487 54.319C184.325 54.361 184.178 54.43 184.046 54.526C183.92 54.622 183.818 54.751 183.74 54.913C183.668 55.069 183.632 55.264 183.632 55.498V58H182.291V53.086H183.308L183.506 53.914H183.569C183.665 53.746 183.785 53.593 183.929 53.455C184.073 53.317 184.238 53.206 184.424 53.122C184.616 53.038 184.82 52.996 185.036 52.996ZM189.807 56.542C189.807 56.872 189.729 57.154 189.573 57.388C189.417 57.616 189.183 57.79 188.871 57.91C188.559 58.03 188.172 58.09 187.71 58.09C187.368 58.09 187.074 58.066 186.828 58.018C186.582 57.976 186.336 57.904 186.09 57.802V56.695C186.354 56.815 186.639 56.914 186.945 56.992C187.251 57.07 187.521 57.109 187.755 57.109C188.019 57.109 188.205 57.07 188.313 56.992C188.427 56.914 188.484 56.812 188.484 56.686C188.484 56.602 188.46 56.527 188.412 56.461C188.37 56.395 188.274 56.32 188.124 56.236C187.974 56.152 187.74 56.044 187.422 55.912C187.116 55.78 186.864 55.651 186.666 55.525C186.468 55.393 186.321 55.237 186.225 55.057C186.129 54.871 186.081 54.64 186.081 54.364C186.081 53.908 186.258 53.566 186.612 53.338C186.966 53.11 187.437 52.996 188.025 52.996C188.331 52.996 188.622 53.026 188.898 53.086C189.174 53.146 189.459 53.245 189.753 53.383L189.348 54.346C189.186 54.274 189.03 54.211 188.88 54.157C188.73 54.103 188.583 54.061 188.439 54.031C188.301 54.001 188.157 53.986 188.007 53.986C187.809 53.986 187.659 54.013 187.557 54.067C187.461 54.121 187.413 54.202 187.413 54.31C187.413 54.388 187.437 54.46 187.485 54.526C187.539 54.586 187.638 54.652 187.782 54.724C187.932 54.796 188.151 54.892 188.439 55.012C188.721 55.126 188.964 55.246 189.168 55.372C189.372 55.492 189.528 55.645 189.636 55.831C189.75 56.011 189.807 56.248 189.807 56.542ZM193.297 58V51.574H194.656V56.875H197.266V58H193.297ZM200.348 57.019C200.498 57.019 200.642 57.004 200.78 56.974C200.918 56.944 201.056 56.908 201.194 56.866V57.865C201.05 57.925 200.87 57.976 200.654 58.018C200.444 58.066 200.213 58.09 199.961 58.09C199.667 58.09 199.403 58.042 199.169 57.946C198.941 57.85 198.758 57.685 198.62 57.451C198.488 57.211 198.422 56.881 198.422 56.461V54.094H197.783V53.527L198.521 53.077L198.908 52.042H199.763V53.086H201.14V54.094H199.763V56.461C199.763 56.647 199.817 56.788 199.925 56.884C200.033 56.974 200.174 57.019 200.348 57.019ZM203.738 58.09C203.192 58.09 202.745 57.877 202.397 57.451C202.055 57.019 201.884 56.386 201.884 55.552C201.884 54.712 202.058 54.076 202.406 53.644C202.754 53.212 203.21 52.996 203.774 52.996C204.008 52.996 204.215 53.029 204.395 53.095C204.575 53.155 204.728 53.239 204.854 53.347C204.986 53.455 205.097 53.578 205.187 53.716H205.232C205.214 53.62 205.193 53.482 205.169 53.302C205.145 53.116 205.133 52.927 205.133 52.735V51.16H206.474V58H205.448L205.187 57.361H205.133C205.049 57.493 204.941 57.616 204.809 57.73C204.683 57.838 204.533 57.925 204.359 57.991C204.185 58.057 203.978 58.09 203.738 58.09ZM204.206 57.019C204.578 57.019 204.839 56.911 204.989 56.695C205.139 56.473 205.217 56.143 205.223 55.705V55.561C205.223 55.081 205.148 54.715 204.998 54.463C204.854 54.211 204.584 54.085 204.188 54.085C203.894 54.085 203.663 54.214 203.495 54.472C203.327 54.724 203.243 55.09 203.243 55.57C203.243 56.05 203.327 56.413 203.495 56.659C203.663 56.899 203.9 57.019 204.206 57.019ZM207.741 57.424C207.741 57.172 207.807 56.995 207.939 56.893C208.071 56.785 208.233 56.731 208.425 56.731C208.617 56.731 208.779 56.782 208.911 56.884C209.049 56.986 209.118 57.166 209.118 57.424C209.118 57.67 209.049 57.847 208.911 57.955C208.779 58.063 208.617 58.117 208.425 58.117C208.233 58.117 208.071 58.063 207.939 57.955C207.807 57.847 207.741 57.67 207.741 57.424Z" fill="#6C757D"/>
</svg>
