<svg width="166" height="39" viewBox="0 0 166 39" fill="none" xmlns="http://www.w3.org/2000/svg">
<path d="M3.73343 14.1977C4.37275 14.3946 5.06695 14.4947 5.81604 14.4947C6.85573 14.4947 7.75012 14.3204 8.50244 13.9717C9.25153 13.6229 9.83272 13.1257 10.2396 12.4799C10.6464 11.8342 10.853 11.0722 10.853 10.1907C10.853 9.71604 10.7497 9.27692 10.5463 8.86686C10.3429 8.46002 10.0426 8.09193 9.64867 7.76259C9.25476 7.43325 8.77366 7.14911 8.20861 6.90372C7.64356 6.66156 6.99779 6.45814 6.27453 6.30316C5.76115 6.1966 5.3188 6.07714 4.95071 5.9383C4.58262 5.79946 4.2888 5.64124 4.07246 5.46365C3.85613 5.28607 3.69469 5.08265 3.58814 4.85018C3.48159 4.62093 3.42992 4.36585 3.42992 4.0914C3.42992 3.71039 3.5397 3.37782 3.75603 3.09368C3.97237 2.80955 4.27265 2.58998 4.65365 2.43177C5.03466 2.27356 5.48347 2.19607 5.99685 2.19607C6.44566 2.19607 6.86541 2.27356 7.25933 2.42208C7.65325 2.57384 8.01488 2.79663 8.34422 3.09368C8.67356 3.39074 8.97062 3.7556 9.23215 4.18826L10.7336 2.70622C10.4301 2.17992 10.0491 1.73434 9.58733 1.37271C9.1256 1.01108 8.5993 0.736627 8.00842 0.552583C7.41754 0.368539 6.76532 0.274902 6.05497 0.274902C5.38337 0.274902 4.75698 0.371767 4.17902 0.562269C3.60105 0.752771 3.09735 1.02399 2.66791 1.37271C2.23848 1.72142 1.90591 2.13149 1.66052 2.60613C1.41835 3.08077 1.29566 3.59415 1.29566 4.14629C1.29566 4.69842 1.3796 5.22149 1.55073 5.67676C1.72186 6.13203 1.98663 6.53563 2.3418 6.89081C2.69698 7.24598 3.13932 7.54303 3.66563 7.77874C4.19193 8.01444 4.81187 8.20817 5.52221 8.35024C5.97102 8.42774 6.36494 8.5246 6.7072 8.63761C7.04945 8.75062 7.34974 8.87654 7.60481 9.02184C7.85989 9.16714 8.073 9.32535 8.23767 9.49648C8.40234 9.66761 8.52504 9.85811 8.60253 10.068C8.68002 10.2779 8.722 10.5039 8.722 10.7396C8.722 11.0948 8.60253 11.4112 8.36682 11.6889C8.13112 11.9665 7.80823 12.1829 7.39817 12.3411C6.99133 12.4993 6.53607 12.5768 6.0356 12.5768C5.2187 12.5768 4.51481 12.3992 3.92393 12.044C3.33306 11.6889 2.71312 11.0496 2.06735 10.1293L0.60791 11.8083C1.01474 12.3992 1.4797 12.8965 1.99955 13.3001C2.51939 13.7004 3.09735 14.0007 3.73666 14.1977H3.73343Z" fill="black"/>
<path d="M25.131 4.05906C25.0826 4.51433 25.0438 4.97282 25.0148 5.43132C24.9566 6.3806 24.9276 7.44612 24.9276 8.6311V14.2977H27.0586V0.478271H25.0858L20.4944 7.84649L15.9675 0.478271H13.8752V14.2977H16.0063V8.6311C16.0063 7.35571 15.9772 6.25144 15.9159 5.32477C15.89 4.90179 15.8513 4.48527 15.8061 4.07198L19.7776 10.3295H21.082L25.1375 4.05906H25.131Z" fill="black"/>
<path d="M32.9641 10.8622H38.747L40.0482 14.2977H42.3181L37.0066 0.478271H34.8336L29.4834 14.2977H31.6564L32.9641 10.8622ZM35.0919 5.2053C35.2114 4.8695 35.3308 4.5111 35.4568 4.13009C35.5827 3.74909 35.6989 3.38746 35.8119 3.0452C35.8313 2.98708 35.8507 2.93219 35.8668 2.8773C35.87 2.89345 35.8765 2.90313 35.8797 2.91928C35.9992 3.28091 36.1284 3.67806 36.2737 4.11395C36.419 4.54984 36.5481 4.94376 36.6579 5.29894C36.7709 5.65411 36.8452 5.8769 36.8839 5.97054L37.9623 8.81192H33.739L34.7916 6.04803C34.8691 5.82524 34.9692 5.54433 35.0887 5.20853L35.0919 5.2053Z" fill="black"/>
<path d="M52.3339 8.76671C52.5018 8.69568 52.6632 8.61496 52.8214 8.52132C53.4801 8.13386 54.0064 7.61725 54.4003 6.97148C54.7943 6.32571 54.9912 5.62828 54.9912 4.87919C54.9912 4.04937 54.7943 3.30351 54.4003 2.63837C54.0064 1.97323 53.4769 1.44692 52.8117 1.05946C52.1466 0.672002 51.4201 0.478271 50.629 0.478271H44.7461V14.2977H46.8771V9.10574H50.0317L52.9571 14.2977L55.5433 14.3171L52.3307 8.76671H52.3339ZM46.8804 2.52859H50.2771C50.7647 2.52859 51.2006 2.62868 51.5912 2.82564C51.9787 3.0226 52.2822 3.29705 52.4986 3.64577C52.7149 3.99448 52.8247 4.39809 52.8247 4.85981C52.8247 5.26665 52.7375 5.64119 52.5696 5.97376C52.3985 6.30956 52.1627 6.5711 51.8592 6.76483C51.5557 6.95533 51.2135 7.0522 50.8325 7.0522H46.8836V2.53182L46.8804 2.52859Z" fill="black"/>
<path d="M60.7 14.2977H62.831V2.53182H66.8187V0.478271H56.8286V2.53182H60.7V14.2977Z" fill="black"/>
<path d="M81.5937 7.84649L77.0669 0.478271H74.9746V14.2977H77.1056V8.6311C77.1056 7.35571 77.0766 6.25144 77.0152 5.32477C76.9894 4.90179 76.9507 4.48527 76.9055 4.07198L80.8769 10.3295H82.1814L86.2368 4.05906C86.1884 4.51433 86.1496 4.97282 86.1206 5.43132C86.0625 6.3806 86.0334 7.44612 86.0334 8.6311V14.2977H88.1644V0.478271H86.1916L81.6002 7.84649H81.5937Z" fill="black"/>
<path d="M92.0293 14.2977H100.737V12.2442H94.1636V8.23718H99.6494V6.18364H94.1636V2.53182H100.737V0.478271H92.0293V14.2977Z" fill="black"/>
<path d="M112.859 12.2442H106.285V8.23718H111.774V6.18364H106.285V2.53182H112.859V0.478271H104.154V14.2977H112.859V12.2442Z" fill="black"/>
<path d="M125.019 0.478271H115.032V2.53182H118.9V14.2977H121.031V2.53182H125.019V0.478271Z" fill="black"/>
<path d="M127.133 2.45109H129.364V12.3217H127.133V14.2977H133.727V12.3217H131.495V2.45109H133.727V0.478271H127.133V2.45109Z" fill="black"/>
<path d="M139.216 8.55044C139.216 8.43097 139.213 8.29536 139.206 8.13714C139.2 7.97893 139.19 7.77874 139.177 7.53658C139.164 7.29442 139.142 6.97799 139.109 6.59053C139.077 6.20307 139.038 5.72843 138.99 5.16984C138.958 4.763 138.919 4.29159 138.874 3.7556L146.917 14.301H148.87V0.478327H146.739V5.01808C146.739 5.59604 146.745 6.15786 146.758 6.69708C146.771 7.2363 146.787 7.75291 146.807 8.24692C146.826 8.74094 146.852 9.20912 146.884 9.64824C146.917 10.0906 146.952 10.5039 146.994 10.8913C147.007 11.0108 147.02 11.1206 147.033 11.2336L138.996 0.475098H137.082V14.2945H139.213V8.55044H139.216Z" fill="black"/>
<path d="M165.066 8.02747C165.059 7.90155 165.05 7.77239 165.037 7.63355C165.024 7.49471 165.005 7.35264 164.979 7.21057H158.86V9.32224H162.79V9.4417C162.79 9.84854 162.689 10.236 162.492 10.5976C162.296 10.9593 162.018 11.2789 161.663 11.5566C161.308 11.8343 160.901 12.0474 160.439 12.1991C159.977 12.3509 159.49 12.4252 158.98 12.4252C158.295 12.4252 157.646 12.2928 157.036 12.0312C156.422 11.7697 155.883 11.4048 155.418 10.9463C154.95 10.4846 154.585 9.94863 154.324 9.33838C154.059 8.7249 153.93 8.07913 153.93 7.39462C153.93 6.7101 154.056 6.02882 154.304 5.43148C154.553 4.83414 154.908 4.31107 155.36 3.86226C155.815 3.41345 156.342 3.06474 156.939 2.81612C157.536 2.5675 158.192 2.44157 158.902 2.44157C159.338 2.44157 159.771 2.50615 160.206 2.63853C160.642 2.77091 161.065 2.96141 161.479 3.21003C161.892 3.45866 162.299 3.77508 162.693 4.15931L164.075 2.71925C163.732 2.25753 163.29 1.85069 162.751 1.49552C162.212 1.14035 161.608 0.862666 160.946 0.665706C160.281 0.468747 159.599 0.368652 158.902 0.368652C157.901 0.368652 156.968 0.546239 156.099 0.901411C155.231 1.25658 154.472 1.75383 153.82 2.39314C153.168 3.03245 152.661 3.77831 152.299 4.63396C151.937 5.4896 151.757 6.40982 151.757 7.39785C151.757 8.38587 151.937 9.32869 152.299 10.1908C152.661 11.0529 153.171 11.8052 153.83 12.451C154.488 13.0968 155.25 13.6005 156.119 13.9621C156.987 14.3237 157.92 14.5045 158.921 14.5045C159.79 14.5045 160.597 14.356 161.34 14.059C162.082 13.7619 162.735 13.3454 163.293 12.8062C163.852 12.2669 164.291 11.6244 164.607 10.8818C164.924 10.1391 165.082 9.31255 165.082 8.40524C165.082 8.28578 165.079 8.16631 165.072 8.04039L165.066 8.02747Z" fill="black"/>
<path d="M9.48734 30.7811L4.26307 22.2795H1.8479V38.2236H4.30828V31.6852C4.30828 30.2128 4.27276 28.9406 4.20495 27.8687C4.17266 27.3811 4.13069 26.9 4.07903 26.4254L8.65753 33.6451H10.1622L14.8408 26.4125C14.7859 26.9388 14.7407 27.4651 14.7052 27.9946C14.6373 29.0892 14.6018 30.3194 14.6018 31.6852V38.2236H17.0622V22.2795H14.7859L9.48734 30.7811Z" fill="black"/>
<path d="M26.0383 22.2795L19.8647 38.2236H22.3703L23.8782 34.2618H30.549L32.0504 38.2236H34.669L28.5406 22.2795H26.0351H26.0383ZM24.779 31.8918L25.9931 28.7017C26.0835 28.4434 26.1965 28.1205 26.3354 27.7331C26.4742 27.3456 26.613 26.9323 26.7583 26.4932C26.9036 26.0541 27.0392 25.6343 27.1684 25.2404C27.191 25.1726 27.2104 25.108 27.233 25.0467C27.2394 25.0628 27.2427 25.0757 27.2491 25.0951C27.3847 25.5116 27.5365 25.9733 27.7044 26.4738C27.8723 26.9743 28.0208 27.4295 28.15 27.8396C28.2791 28.2497 28.3663 28.508 28.4115 28.6145L29.6546 31.895H24.7823L24.779 31.8918Z" fill="black"/>
<path d="M48.6111 27.5168C48.6111 28.1852 48.6176 28.8309 48.6337 29.4541C48.6499 30.0773 48.6693 30.6714 48.6919 31.2429C48.7145 31.8111 48.7435 32.3504 48.7823 32.8605C48.821 33.3707 48.863 33.8485 48.9082 34.2941C48.9211 34.4297 48.9372 34.5589 48.9534 34.6913L39.6834 22.2796H37.4749V38.2236H39.9352V31.5948C39.9352 31.4592 39.932 31.2978 39.9223 31.1169C39.9159 30.9361 39.9029 30.7037 39.8868 30.4227C39.8707 30.1418 39.8448 29.777 39.8061 29.3282C39.7673 28.8794 39.7221 28.3337 39.6705 27.6879C39.6317 27.2197 39.5865 26.6741 39.5349 26.0541L48.8146 38.2204H51.0683V22.2764H48.6079V27.5168H48.6111Z" fill="black"/>
<path d="M60.0478 22.2795L53.8743 38.2236H56.3798L57.8877 34.2618H64.5585L66.0599 38.2236H68.6785L62.5502 22.2795H60.0446H60.0478ZM58.7886 31.8918L60.0026 28.7017C60.093 28.4434 60.206 28.1205 60.3449 27.7331C60.4837 27.3456 60.6225 26.9323 60.7678 26.4932C60.9131 26.0541 61.0488 25.6343 61.1779 25.2404C61.2005 25.1726 61.2199 25.108 61.2425 25.0467C61.2489 25.0628 61.2522 25.0757 61.2586 25.0951C61.3942 25.5116 61.546 25.9733 61.7139 26.4738C61.8818 26.9743 62.0303 27.4295 62.1595 27.8396C62.2886 28.2497 62.3758 28.508 62.421 28.6145L63.6641 31.895H58.7918L58.7886 31.8918Z" fill="black"/>
<path d="M85.2165 30.5356C85.2003 30.3774 85.1777 30.2127 85.1487 30.0448H78.0872V32.4826H82.6205V32.6182C82.6205 33.0896 82.5075 33.5319 82.2782 33.9517C82.049 34.3682 81.7326 34.7363 81.3225 35.0559C80.9124 35.3756 80.441 35.621 79.9115 35.7954C79.3787 35.9697 78.8169 36.0569 78.226 36.0569C77.435 36.0569 76.6891 35.9051 75.982 35.6016C75.2749 35.2981 74.6517 34.8816 74.1157 34.3488C73.5765 33.8161 73.1535 33.1994 72.85 32.4922C72.5465 31.7851 72.3947 31.0393 72.3947 30.2482C72.3947 29.4571 72.54 28.6725 72.8274 27.9815C73.1148 27.2906 73.5216 26.6868 74.0447 26.1702C74.5678 25.6536 75.1748 25.2499 75.8658 24.9626C76.5567 24.6752 77.3123 24.5299 78.1324 24.5299C78.6329 24.5299 79.1333 24.6074 79.637 24.7592C80.1375 24.9109 80.6283 25.1305 81.1062 25.4211C81.584 25.7084 82.0522 26.0733 82.5075 26.5157L84.1025 24.8528C83.7086 24.32 83.1985 23.8519 82.5753 23.4418C81.9521 23.0317 81.2579 22.7121 80.4927 22.4861C79.7242 22.2568 78.9396 22.1438 78.1356 22.1438C76.9829 22.1438 75.9045 22.3504 74.9003 22.7573C73.8994 23.1673 73.0211 23.7421 72.2688 24.4783C71.5165 25.2144 70.9321 26.0765 70.5156 27.0646C70.099 28.0526 69.8892 29.1149 69.8892 30.2547C69.8892 31.3944 70.099 32.4826 70.5156 33.477C70.9321 34.4715 71.523 35.3401 72.2817 36.0859C73.0405 36.8286 73.922 37.4098 74.9229 37.8295C75.9239 38.2493 77.0023 38.4559 78.1582 38.4559C79.1592 38.4559 80.0891 38.2848 80.948 37.9425C81.8068 37.6003 82.5559 37.1192 83.2017 36.496C83.8475 35.8728 84.3512 35.1334 84.716 34.2746C85.0809 33.4157 85.2617 32.4632 85.2617 31.417C85.2617 31.2814 85.2585 31.1394 85.2488 30.9941C85.2423 30.8488 85.2294 30.697 85.2133 30.5388L85.2165 30.5356Z" fill="black"/>
<path d="M88.4744 38.2236H98.5193V35.8536H90.9347V31.2299H97.2665V28.8599H90.9347V24.6463H98.5193V22.2795H88.4744V38.2236Z" fill="black"/>
<path d="M110.098 30.7811L104.874 22.2795H102.458V38.2236H104.919V31.6852C104.919 30.2128 104.883 28.9406 104.816 27.8687C104.783 27.3811 104.741 26.9 104.69 26.4254L109.268 33.6451H110.773L115.451 26.4125C115.396 26.9388 115.351 27.4651 115.316 27.9946C115.248 29.0892 115.212 30.3194 115.212 31.6852V38.2236H117.673V22.2795H115.396L110.098 30.7811Z" fill="black"/>
<path d="M122.142 38.2236H132.187V35.8536H124.602V31.2299H130.934V28.8599H124.602V24.6463H132.187V22.2795H122.142V38.2236Z" fill="black"/>
<path d="M147.265 27.5168C147.265 28.1852 147.272 28.8309 147.288 29.4541C147.304 30.0773 147.323 30.6714 147.346 31.2429C147.369 31.8111 147.398 32.3504 147.436 32.8605C147.475 33.3707 147.517 33.8485 147.562 34.2941C147.575 34.4297 147.591 34.5589 147.607 34.6913L138.337 22.2796H136.129V38.2236H138.589V31.5948C138.589 31.4592 138.586 31.2978 138.576 31.1169C138.57 30.9361 138.557 30.7037 138.541 30.4227C138.525 30.1418 138.499 29.777 138.46 29.3282C138.421 28.8794 138.376 28.3337 138.325 27.6879C138.286 27.2197 138.241 26.6741 138.189 26.0541L147.469 38.2204H149.722V22.2764H147.262V27.5168H147.265Z" fill="black"/>
<path d="M152.754 24.6463H157.22V38.2236H159.68V24.6463H164.281V22.2795H152.754V24.6463Z" fill="black"/>
</svg>
